{"glyphs":{"0":{"ha":797,"x_min":-1,"x_max":657,"o":"m 376 1081 q 490 1053 442 1082 q 569 978 538 1025 q 620 869 601 931 q 648 744 639 808 q 656 617 657 679 q 650 507 656 556 q 631 406 644 460 q 597 296 618 351 q 548 189 576 240 q 482 97 519 138 q 397 31 444 57 q 293 0 350 4 q 188 15 233 -6 q 108 71 142 35 q 53 156 75 107 q 19 258 32 206 q 3 364 7 311 q 0 463 -1 417 q 13 592 1 521 q 47 738 25 664 q 100 882 68 811 q 176 1009 132 953 q 275 1101 219 1065 q 400 1143 331 1138 q 456 1133 433 1146 q 486 1096 478 1121 q 487 1076 490 1082 q 476 1072 483 1071 q 458 1077 468 1072 q 443 1090 449 1082 q 410 1097 436 1100 q 331 1057 367 1094 q 265 962 294 1019 q 211 834 235 904 q 172 696 188 764 q 146 569 156 628 q 133 474 136 510 q 132 406 132 449 q 136 315 132 364 q 150 218 140 267 q 178 130 160 169 q 223 67 196 90 q 289 46 250 43 q 385 74 342 50 q 462 135 428 99 q 521 219 496 172 q 565 317 546 267 q 594 417 583 367 q 611 511 606 468 q 617 609 617 553 q 611 725 618 665 q 589 842 604 785 q 546 944 574 899 q 477 1016 518 989 q 379 1042 436 1043 q 365 1048 369 1042 q 359 1061 360 1054 q 363 1074 358 1068 q 376 1081 367 1081 z "},"1":{"ha":428,"x_min":-1,"x_max":326,"o":"m 317 1153 q 325 1149 324 1153 q 325 1140 326 1144 l 125 17 q 103 5 124 10 q 60 -1 83 0 q 17 1 36 -3 q 0 14 -1 4 l 178 1014 q 128 967 154 990 q 82 929 101 944 q 51 915 64 917 q 32 919 38 914 q 29 933 26 924 q 46 954 32 943 q 117 1014 92 989 q 157 1060 143 1039 q 178 1101 171 1082 q 196 1142 186 1119 q 215 1149 199 1147 q 251 1152 231 1151 q 290 1153 271 1153 q 317 1153 308 1153 z "},"2":{"ha":854,"x_min":0,"x_max":749,"o":"m 390 144 q 489 135 446 144 q 565 108 532 125 q 625 70 599 92 q 675 26 651 49 q 683 10 683 18 q 678 -3 683 3 q 666 -10 674 -8 q 651 -6 658 -11 q 538 57 603 31 q 390 83 474 83 q 230 67 319 82 q 36 13 140 53 q 15 4 24 8 q 3 1 7 0 q 0 11 0 3 q 3 40 0 19 q 46 163 11 106 q 128 268 81 219 q 229 359 175 317 q 333 439 283 401 q 438 524 388 479 q 526 622 488 569 q 588 735 565 674 q 611 868 611 796 q 603 950 611 910 q 575 1023 594 990 q 523 1076 556 1056 q 440 1096 490 1096 q 308 1072 367 1096 q 210 996 250 1049 q 148 875 169 944 q 124 725 126 806 q 117 710 124 715 q 104 706 111 706 q 91 710 97 706 q 85 725 85 715 q 111 888 88 813 q 179 1019 135 963 q 295 1115 228 1082 q 442 1147 363 1149 q 560 1130 504 1147 q 657 1078 615 1113 q 724 991 699 1043 q 749 868 749 939 q 715 699 749 772 q 630 569 682 626 q 513 469 578 513 q 385 389 447 426 q 290 328 342 364 q 189 249 238 292 q 102 157 140 206 q 49 58 64 108 q 136 94 96 78 q 215 121 176 110 q 297 138 254 132 q 390 144 339 144 z "},"3":{"ha":860,"x_min":0,"x_max":739,"o":"m 474 615 q 616 572 560 607 q 701 487 672 538 q 735 375 731 436 q 719 254 739 314 q 672 158 703 204 q 595 76 640 111 q 492 19 550 40 q 364 -1 433 -1 q 202 21 269 -1 q 92 88 135 43 q 26 201 49 133 q 0 360 4 268 q 6 378 0 374 q 18 381 11 383 q 31 369 25 379 q 38 343 38 360 q 58 223 40 278 q 110 127 76 168 q 192 63 143 86 q 307 40 240 40 q 397 58 354 40 q 476 105 439 75 q 541 174 513 135 q 588 256 569 213 q 613 363 610 308 q 597 463 617 417 q 532 543 578 510 q 410 586 486 576 q 399 593 403 588 q 394 606 394 599 q 397 619 393 613 q 411 631 401 626 q 540 740 496 664 q 582 921 583 815 q 569 1003 582 969 q 535 1059 557 1038 q 484 1090 513 1081 q 424 1100 456 1100 q 278 1051 342 1099 q 179 931 214 1003 q 163 910 172 915 q 146 906 153 904 q 135 915 139 907 q 138 935 132 922 q 264 1090 181 1032 q 456 1149 347 1149 q 551 1135 504 1149 q 633 1094 597 1122 q 692 1022 669 1065 q 714 921 714 979 q 693 810 714 858 q 638 726 672 763 q 561 663 604 689 q 474 615 518 636 z "},"4":{"ha":817,"x_min":-1,"x_max":683,"o":"m 674 340 q 683 326 682 333 q 680 312 683 318 q 669 303 676 306 q 653 307 661 301 q 636 317 644 313 q 618 326 628 322 l 579 21 q 558 8 578 14 q 514 0 538 3 q 472 0 490 -3 q 454 13 453 3 l 499 361 q 278 364 394 378 q 57 321 161 350 q 17 317 31 313 q 1 333 3 321 q 9 363 -1 344 q 43 401 19 381 q 115 481 81 435 q 178 579 150 526 q 226 687 207 632 q 253 792 246 742 q 258 875 257 824 q 253 974 260 926 q 231 1057 247 1022 q 183 1090 214 1092 q 172 1098 176 1090 q 168 1115 168 1106 q 172 1131 168 1124 q 185 1139 176 1139 q 277 1106 239 1140 q 339 1022 315 1072 q 372 916 363 972 q 376 817 381 860 q 346 682 371 744 q 282 565 321 619 q 192 467 243 511 q 86 386 142 422 q 299 433 190 422 q 506 421 407 444 l 554 796 q 576 817 556 810 q 619 826 596 825 q 661 819 643 826 q 678 797 679 813 l 624 375 q 650 358 638 367 q 674 340 663 350 z "},"5":{"ha":893,"x_min":25,"x_max":789,"o":"m 239 738 q 358 788 294 772 q 485 799 422 803 q 603 771 547 794 q 702 704 660 747 q 767 597 744 661 q 785 450 789 533 q 745 268 779 350 q 652 127 711 186 q 512 33 593 68 q 331 -10 431 -3 q 235 -6 282 -14 q 149 24 189 1 q 76 85 108 47 q 28 182 44 124 q 30 197 25 192 q 42 204 35 203 q 56 203 49 206 q 65 193 63 200 q 109 110 82 143 q 170 59 136 78 q 244 35 204 40 q 326 33 285 29 q 465 78 404 40 q 568 175 525 117 q 635 306 611 233 q 663 456 658 378 q 647 590 667 535 q 590 678 626 644 q 503 726 553 713 q 399 736 454 740 q 290 711 344 732 q 189 656 236 690 q 147 640 165 638 q 117 654 128 642 q 105 685 106 667 q 119 715 104 703 q 198 799 157 749 q 272 906 239 850 q 323 1016 304 961 q 333 1111 342 1071 q 342 1133 331 1129 q 365 1133 353 1138 q 464 1099 419 1111 q 564 1094 508 1088 q 636 1114 601 1100 q 696 1151 671 1128 q 715 1154 707 1163 q 715 1133 722 1146 q 656 1067 694 1097 q 571 1032 617 1038 q 516 1033 544 1029 q 461 1044 488 1036 q 411 1062 435 1051 q 369 1083 388 1072 q 365 972 375 1021 q 337 883 356 924 q 292 808 318 843 q 239 738 265 772 z "},"6":{"ha":864,"x_min":-1,"x_max":715,"o":"m 171 635 q 327 703 254 686 q 460 711 400 721 q 569 669 521 701 q 649 591 617 638 q 699 488 682 544 q 715 371 715 431 q 692 235 714 301 q 624 116 669 168 q 508 31 578 64 q 340 -1 438 -1 q 187 28 250 -1 q 83 109 124 58 q 23 226 43 160 q 1 366 3 293 q 11 513 -1 439 q 47 653 24 586 q 138 840 83 751 q 257 997 192 929 q 395 1103 322 1064 q 543 1143 468 1143 q 563 1135 556 1143 q 569 1119 569 1128 q 563 1103 569 1111 q 544 1096 557 1096 q 441 1054 494 1096 q 338 946 388 1013 q 244 797 288 879 q 171 635 201 715 m 338 40 q 448 70 401 40 q 524 148 494 100 q 568 257 554 196 q 582 379 582 318 q 571 473 581 426 q 539 558 561 519 q 483 624 517 597 q 403 659 450 651 q 294 651 356 667 q 154 592 232 636 q 126 485 138 544 q 110 364 114 425 q 116 244 107 303 q 151 141 125 186 q 222 68 176 96 q 338 40 267 40 z "},"7":{"ha":600,"x_min":-3,"x_max":622,"o":"m 507 1133 q 537 1142 517 1140 q 576 1142 557 1144 q 608 1135 594 1140 q 619 1121 622 1129 q 531 965 578 1050 q 439 785 483 879 q 358 590 394 690 q 300 391 321 490 q 278 197 279 292 q 307 17 278 101 q 287 5 306 10 q 245 -1 268 0 q 203 1 222 -3 q 182 14 183 4 q 165 197 161 100 q 192 394 169 294 q 251 594 214 494 q 331 783 288 693 q 421 949 374 872 q 513 1083 468 1026 q 416 1024 467 1046 q 314 999 365 1001 q 201 1019 256 997 q 97 1072 146 1040 q 56 999 83 1025 q 36 986 49 992 q 13 980 24 981 q 0 985 3 979 q 8 1011 -3 992 q 36 1110 36 1057 q 40 1131 33 1124 q 71 1125 46 1138 q 197 1083 129 1094 q 325 1075 265 1071 q 364 1079 340 1076 q 413 1088 388 1082 q 464 1106 439 1094 q 507 1133 489 1117 z "},"8":{"ha":922,"x_min":-1,"x_max":743,"o":"m 736 375 q 717 231 743 300 q 632 111 690 163 q 486 29 574 60 q 282 -1 399 -1 q 123 40 186 -1 q 29 145 60 81 q 0 290 -1 210 q 33 447 1 369 q 125 590 64 524 q 275 694 186 656 q 156 813 192 750 q 119 935 121 875 q 136 1016 118 978 q 193 1082 154 1054 q 291 1126 232 1110 q 432 1143 350 1143 q 569 1121 511 1143 q 661 1063 628 1099 q 701 981 694 1026 q 683 886 707 935 q 603 791 660 838 q 454 708 547 744 q 660 553 593 636 q 736 375 728 469 m 244 926 q 289 828 254 878 q 401 739 324 778 q 537 799 482 763 q 621 874 592 835 q 653 953 650 914 q 633 1025 657 993 q 560 1076 610 1057 q 433 1096 510 1096 q 338 1082 376 1096 q 276 1045 299 1068 q 245 991 253 1022 q 244 926 238 960 m 286 40 q 403 67 344 40 q 505 141 461 94 q 571 250 549 188 q 581 382 593 313 q 507 526 567 454 q 324 664 447 597 q 176 572 236 631 q 85 443 117 513 q 49 302 53 374 q 71 172 46 231 q 149 77 96 114 q 286 40 203 40 z "},"9":{"ha":883,"x_min":-1,"x_max":717,"o":"m 374 1143 q 528 1113 464 1143 q 632 1033 592 1083 q 692 915 672 982 q 715 776 713 849 q 704 628 717 703 q 668 489 692 554 q 578 301 632 390 q 458 145 524 213 q 319 38 393 78 q 172 -1 246 -1 q 153 6 160 -1 q 145 22 146 14 q 151 38 144 31 q 171 46 157 46 q 274 88 221 46 q 376 196 326 129 q 470 344 426 263 q 546 506 514 426 q 398 444 468 460 q 267 439 328 429 q 156 480 206 449 q 72 556 107 511 q 17 656 36 600 q 0 771 -1 711 q 24 906 1 839 q 91 1026 46 974 q 206 1110 136 1078 q 374 1143 276 1143 m 564 560 q 591 667 581 608 q 602 786 601 726 q 592 903 603 846 q 556 1004 582 960 q 485 1075 529 1049 q 376 1101 442 1101 q 267 1072 313 1101 q 191 994 221 1042 q 147 885 161 946 q 133 764 133 825 q 160 626 133 692 q 242 522 188 560 q 376 488 296 485 q 564 560 457 492 z "},"\u0000":{"ha":0,"x_min":0,"x_max":0,"o":""},"\r":{"ha":208,"x_min":0,"x_max":0,"o":""}," ":{"ha":278,"x_min":0,"x_max":0,"o":""},"e":{"ha":456,"x_min":-10,"x_max":518,"o":"m 518 421 q 474 311 499 367 q 421 206 449 256 q 388 150 410 185 q 340 83 367 115 q 281 26 313 50 q 215 1 249 1 q 101 38 149 1 q 28 134 54 75 q -3 267 3 193 q 4 415 -10 340 q 41 538 17 479 q 101 642 65 597 q 183 715 136 688 q 285 742 229 742 q 316 733 304 742 q 334 710 328 724 q 342 681 340 697 q 339 647 343 664 q 325 608 335 628 q 303 568 315 588 q 228 482 274 524 q 133 419 183 440 q 122 361 126 397 q 117 283 118 325 q 121 200 117 242 q 136 125 125 158 q 166 70 147 92 q 214 49 185 49 q 263 66 239 49 q 310 108 288 83 q 350 160 332 133 q 379 204 368 186 q 434 311 408 257 q 479 421 460 365 l 518 421 m 290 696 q 246 674 267 696 q 206 618 225 651 q 173 544 188 585 q 147 468 158 504 q 208 515 179 488 q 260 571 238 542 q 287 613 275 590 q 303 654 299 635 q 305 679 306 663 q 290 696 304 696 z "},"r":{"ha":550,"x_min":-7,"x_max":613,"o":"m 613 421 q 592 357 607 403 q 557 254 576 311 q 524 167 542 211 q 481 85 506 122 q 428 25 457 49 q 364 1 399 1 q 277 23 311 1 q 223 80 243 44 q 195 160 203 115 q 188 252 188 206 q 192 343 188 299 q 201 421 196 388 q 214 488 207 457 q 217 544 221 518 q 194 593 214 571 q 128 635 175 615 q 111 579 122 615 q 88 505 100 543 q 65 434 76 467 q 50 389 54 401 l 13 389 q 24 430 15 401 q 45 496 33 458 q 69 574 57 533 q 92 650 82 614 q 31 692 58 665 q -4 758 3 719 q -3 794 -7 776 q 9 826 0 813 q 34 849 18 840 q 71 857 50 857 q 121 839 104 857 q 142 794 138 821 q 144 737 147 767 q 138 685 142 707 q 249 641 204 661 q 317 594 293 621 q 344 526 340 567 q 335 421 349 486 q 323 367 331 401 q 308 291 315 332 q 299 207 301 250 q 301 128 296 164 q 322 71 307 93 q 369 49 338 49 q 412 67 392 49 q 451 114 432 85 q 485 180 469 143 q 515 254 501 217 q 551 350 535 307 q 576 421 567 393 l 613 421 m 103 699 q 107 731 104 711 q 108 772 110 751 q 97 806 106 792 q 71 819 89 819 q 36 801 43 819 q 39 758 29 782 q 62 727 46 743 q 103 699 78 711 z "},"s":{"ha":485,"x_min":11,"x_max":549,"o":"m 549 421 q 533 369 544 401 q 499 308 522 332 q 447 268 476 283 q 383 245 417 253 q 318 233 350 238 q 320 161 322 201 q 303 85 318 121 q 254 26 288 50 q 164 1 221 1 q 58 37 99 1 q 14 119 18 72 q 28 185 11 158 q 72 229 44 213 q 133 253 100 246 q 199 264 167 261 q 173 357 186 311 q 149 451 160 403 q 134 526 140 488 q 125 600 128 564 q 107 553 114 574 q 97 525 100 532 l 56 401 l 18 401 q 38 465 26 433 q 58 529 49 497 q 68 556 61 536 q 85 601 75 576 q 106 650 94 625 q 131 694 118 675 q 181 772 147 742 q 269 801 214 801 q 313 783 297 801 q 322 768 319 776 q 321 753 324 760 q 311 745 318 747 q 294 749 304 743 q 278 753 286 753 q 238 734 251 753 q 219 686 225 715 q 234 581 218 639 q 269 457 250 524 q 294 365 283 411 q 313 271 306 318 q 367 280 338 274 q 422 297 396 286 q 467 326 447 308 q 494 368 486 343 q 511 421 504 394 l 549 421 m 154 50 q 199 71 185 50 q 217 120 214 92 q 217 178 221 149 q 207 226 213 208 q 157 220 185 225 q 105 203 129 215 q 65 171 81 190 q 54 121 50 151 q 87 70 60 90 q 154 50 114 50 z "},"x":{"ha":619,"x_min":7,"x_max":676,"o":"m 676 421 q 641 311 661 367 q 596 204 621 256 q 563 142 583 178 q 516 76 542 107 q 459 23 490 44 q 393 1 428 1 q 297 32 332 1 q 243 110 261 63 q 222 216 225 158 q 221 326 218 274 q 149 266 182 297 q 92 199 115 235 q 58 122 69 164 q 51 31 46 81 q 48 7 53 15 q 36 -3 43 -1 q 23 2 29 -4 q 15 22 17 8 q 22 135 7 85 q 65 228 36 186 q 136 306 94 269 q 224 375 178 342 q 246 467 231 417 q 272 563 261 517 q 283 599 276 576 q 289 643 289 622 q 280 679 289 664 q 244 694 271 694 q 192 672 217 694 q 146 619 167 650 q 110 553 125 588 q 88 497 94 519 q 72 449 81 474 q 56 401 64 425 l 17 401 q 31 449 24 425 q 49 499 39 474 q 77 574 60 532 q 119 653 94 615 q 177 716 144 690 q 251 742 210 742 q 349 699 318 742 q 383 596 381 656 q 382 540 385 568 q 374 482 379 511 q 449 551 415 514 q 506 631 483 588 q 538 725 529 674 q 539 839 547 776 q 543 855 538 849 q 556 862 549 861 q 569 859 563 863 q 576 846 575 856 q 574 707 588 768 q 531 595 561 646 q 457 503 501 544 q 361 425 413 463 q 349 374 357 408 q 335 298 342 340 q 326 212 329 256 q 328 131 322 168 q 350 72 333 94 q 399 49 367 49 q 447 66 424 49 q 491 108 471 83 q 527 158 511 132 q 553 204 543 185 q 601 310 581 257 q 639 421 622 364 l 676 421 z "},"z":{"ha":611,"x_min":1,"x_max":669,"o":"m 669 421 q 657 377 664 401 q 641 326 650 353 q 622 272 632 299 q 599 224 611 246 q 560 156 578 186 q 519 101 542 126 q 470 56 497 76 q 406 15 443 35 q 383 -76 397 -28 q 349 -170 369 -124 q 301 -259 328 -217 q 242 -333 275 -301 q 172 -385 210 -365 q 92 -404 135 -404 q 28 -381 47 -404 q 5 -325 8 -358 q 10 -256 1 -292 q 35 -193 19 -219 q 90 -118 61 -147 q 147 -68 118 -89 q 203 -33 175 -47 q 260 -3 232 -18 q 270 81 267 28 q 267 188 274 135 q 238 282 260 242 q 171 325 215 322 q 152 328 157 326 q 148 333 147 331 q 153 338 149 335 q 163 344 157 342 q 260 431 229 376 q 300 557 290 486 q 303 600 303 576 q 299 644 304 624 q 281 680 294 665 q 243 694 268 694 q 191 672 215 694 q 146 619 167 650 q 110 553 125 588 q 86 497 94 519 q 71 449 79 474 q 54 401 63 425 l 17 401 q 31 449 24 425 q 47 499 39 474 q 76 574 58 532 q 118 653 93 615 q 176 716 143 690 q 251 742 208 742 q 317 725 290 742 q 361 682 344 708 q 383 622 378 656 q 383 556 388 589 q 368 500 381 531 q 337 440 356 469 q 294 387 318 411 q 244 350 269 363 q 367 248 328 322 q 408 64 407 174 q 492 132 454 83 q 563 236 529 181 q 604 332 588 279 q 632 421 621 385 l 669 421 m 86 -357 q 134 -329 111 -357 q 177 -258 157 -301 q 215 -162 197 -215 q 246 -56 232 -108 q 212 -74 233 -62 q 166 -105 190 -86 q 117 -149 142 -124 q 71 -208 92 -175 q 53 -247 63 -222 q 42 -297 44 -272 q 49 -339 40 -321 q 86 -357 57 -357 z "},"v":{"ha":618,"x_min":-12,"x_max":676,"o":"m 676 421 q 659 364 668 390 q 633 310 650 338 q 591 259 615 282 q 539 224 567 236 q 460 213 499 207 q 389 247 421 219 q 358 187 374 218 q 324 128 342 156 q 290 81 308 104 q 252 41 272 58 q 210 13 232 24 q 163 1 188 1 q 85 21 117 1 q 35 73 54 40 q 5 147 15 106 q -10 229 -6 188 q -10 294 -12 260 q -3 362 -8 328 q 7 429 1 396 q 18 493 13 463 q 44 626 31 564 q 68 717 58 688 q 97 737 72 729 q 147 746 121 744 q 194 740 174 747 q 208 715 214 733 q 183 600 196 654 q 158 492 171 546 q 131 364 143 426 q 111 235 118 301 q 107 165 107 199 q 113 105 107 131 q 132 64 119 79 q 168 49 144 49 q 226 73 199 49 q 278 129 254 97 q 322 201 301 161 q 361 276 343 240 q 322 358 335 311 q 306 454 308 404 q 307 554 303 504 q 318 646 311 604 q 333 715 322 675 q 361 792 343 756 q 406 853 379 828 q 469 878 432 878 q 526 851 510 878 q 547 787 543 824 q 544 710 550 750 q 533 646 539 671 q 480 460 514 554 q 406 282 446 367 q 462 251 431 258 q 525 258 493 244 q 563 284 544 267 q 597 321 582 301 q 622 369 614 344 q 639 421 631 393 l 676 421 m 381 315 q 445 478 415 393 q 494 646 475 563 q 503 692 497 660 q 510 757 510 724 q 503 815 511 790 q 469 840 494 840 q 424 818 443 840 q 392 765 406 796 q 372 700 379 733 q 361 644 365 667 q 349 565 354 608 q 345 476 344 521 q 353 390 346 432 q 381 315 361 347 z "},"w":{"ha":994,"x_min":-12,"x_max":1051,"o":"m 1051 421 q 1005 306 1039 363 q 915 224 971 249 q 835 213 875 207 q 764 247 796 219 q 733 187 749 218 q 699 128 717 156 q 666 81 683 104 q 628 41 649 58 q 585 13 607 24 q 538 1 563 1 q 463 21 493 1 q 412 72 432 40 q 381 143 392 103 q 367 225 371 183 q 333 157 353 196 q 288 84 314 118 q 230 26 261 50 q 163 1 199 1 q 85 21 117 1 q 35 73 54 40 q 5 147 15 106 q -10 229 -6 188 q -10 294 -12 260 q -3 362 -8 328 q 7 429 1 396 q 18 493 13 463 q 44 626 31 564 q 68 717 58 688 q 97 737 72 729 q 147 746 121 744 q 194 740 174 747 q 208 715 214 733 q 183 600 196 654 q 158 492 171 546 q 131 364 143 426 q 111 235 118 301 q 107 165 107 199 q 113 105 107 131 q 132 64 119 79 q 168 49 144 49 q 231 81 200 49 q 288 156 261 113 q 334 247 314 200 q 367 321 354 293 q 373 372 369 346 q 381 421 376 397 q 397 522 389 468 q 421 619 406 575 q 449 640 425 632 q 500 649 474 647 q 547 643 526 650 q 561 618 567 636 q 540 519 551 568 q 517 419 528 469 q 499 328 507 374 q 486 235 492 283 q 482 165 482 199 q 488 105 482 131 q 508 64 494 79 q 543 49 521 49 q 601 73 574 49 q 653 129 629 97 q 697 201 676 161 q 738 276 718 240 q 697 358 710 311 q 681 454 685 404 q 682 554 678 504 q 693 646 686 604 q 709 715 699 675 q 738 792 719 756 q 782 853 756 828 q 844 878 808 878 q 902 851 885 878 q 923 787 919 824 q 920 710 926 750 q 908 646 914 671 q 855 460 889 554 q 782 282 821 367 q 837 251 806 258 q 900 258 868 244 q 942 286 924 268 q 974 326 960 304 q 997 372 988 347 q 1014 421 1007 397 l 1051 421 m 756 315 q 821 478 792 393 q 869 646 850 563 q 880 692 874 660 q 887 757 886 724 q 879 815 888 790 q 844 840 871 840 q 799 818 818 840 q 768 765 781 796 q 748 700 756 733 q 736 644 740 667 q 724 565 729 608 q 720 476 719 521 q 728 390 721 432 q 756 315 736 347 z "},"f":{"ha":357,"x_min":-51,"x_max":469,"o":"m 215 742 q 190 640 203 690 q 167 538 178 590 q 131 345 150 439 q 100 151 113 251 q 213 174 163 154 q 303 244 264 193 q 351 328 335 286 q 383 421 368 371 l 421 421 q 388 317 406 365 q 333 222 369 269 q 228 139 288 163 q 94 114 168 115 l 94 113 q 160 -24 132 38 q 207 -139 189 -86 q 229 -234 222 -187 q 221 -331 236 -281 q 176 -395 206 -375 q 101 -394 147 -415 q 19 -326 50 -372 q -27 -222 -11 -281 q -47 -96 -43 -162 q -49 35 -51 -29 q -38 156 -46 99 q -24 254 -31 214 q 7 424 -8 338 q 38 594 22 511 q 61 701 47 642 q 95 821 75 760 q 142 940 115 882 q 204 1042 169 997 q 282 1115 239 1088 q 378 1143 325 1143 q 442 1120 421 1143 q 466 1065 463 1097 q 460 996 469 1032 q 438 933 451 960 q 383 858 411 888 q 328 808 356 829 q 272 773 300 788 q 215 742 243 758 m 383 1096 q 336 1069 358 1096 q 294 998 314 1042 q 258 901 275 954 q 228 794 242 847 q 262 814 240 801 q 308 844 283 826 q 357 888 332 863 q 401 949 382 914 q 418 988 410 963 q 428 1036 426 1013 q 422 1078 431 1060 q 383 1096 413 1096 m 169 -150 q 135 -60 156 -108 q 86 43 114 -12 q 74 -78 79 -14 q 72 -200 69 -143 q 85 -299 74 -257 q 124 -353 97 -342 q 163 -352 149 -364 q 183 -319 176 -340 q 190 -234 197 -278 q 169 -150 183 -190 z "},"g":{"ha":710,"x_min":-19,"x_max":767,"o":"m 767 421 q 754 377 761 401 q 738 326 747 353 q 717 272 728 299 q 694 224 707 246 q 583 100 653 149 q 436 15 513 51 q 391 -126 418 -51 q 325 -262 364 -200 q 235 -364 286 -324 q 121 -404 185 -404 q 58 -381 78 -404 q 34 -325 38 -358 q 40 -256 31 -292 q 64 -193 49 -219 q 119 -118 92 -147 q 176 -68 147 -89 q 233 -33 204 -47 q 289 -3 261 -18 q 316 108 303 53 q 340 217 329 163 q 308 140 326 178 q 265 71 289 101 q 212 21 240 40 q 149 1 183 1 q 48 40 85 1 q -4 138 11 79 q -17 263 -19 196 q 0 388 -15 331 q 46 510 17 447 q 115 625 75 574 q 206 709 156 676 q 318 742 257 742 q 378 714 358 742 q 406 646 397 686 q 411 685 410 671 q 415 717 413 699 q 441 739 417 731 q 492 749 465 747 q 540 742 519 750 q 557 715 561 733 q 531 520 546 618 q 499 326 517 422 q 476 195 488 261 q 449 65 464 129 q 508 98 478 79 q 565 138 538 117 q 617 184 593 160 q 657 236 640 208 q 700 332 682 279 q 729 421 718 385 l 767 421 m 117 -357 q 165 -329 142 -357 q 208 -258 188 -301 q 245 -162 228 -215 q 276 -56 263 -108 q 242 -74 264 -62 q 196 -105 221 -86 q 146 -149 171 -124 q 101 -208 121 -175 q 83 -247 93 -222 q 72 -297 74 -272 q 78 -339 69 -321 q 117 -357 88 -357 m 372 528 q 373 587 374 557 q 367 641 372 617 q 351 680 363 665 q 321 694 340 694 q 274 673 297 694 q 228 617 250 651 q 189 543 207 583 q 157 465 171 503 q 133 398 143 428 q 121 357 124 368 q 111 318 117 346 q 101 256 106 290 q 97 185 97 222 q 101 118 96 149 q 121 68 107 88 q 161 49 135 49 q 225 83 196 49 q 278 167 254 118 q 317 265 301 215 q 342 347 333 315 q 364 444 358 400 q 372 528 369 489 z "},"h":{"ha":738,"x_min":-53,"x_max":799,"o":"m 528 450 q 493 310 514 382 q 460 181 472 239 q 450 85 447 122 q 489 49 453 49 q 539 66 514 49 q 586 108 564 83 q 626 160 608 133 q 656 204 644 186 q 714 311 688 257 q 760 421 740 365 l 799 421 q 753 311 779 367 q 699 206 728 256 q 660 143 683 178 q 609 76 638 108 q 547 23 581 44 q 479 1 514 1 q 376 42 404 1 q 349 149 349 83 q 367 293 349 214 q 404 450 385 372 q 419 526 413 483 q 424 606 426 568 q 406 669 422 643 q 349 694 389 694 q 276 664 311 694 q 213 590 242 633 q 166 500 185 547 q 143 419 147 453 q 138 388 140 403 q 132 337 136 374 q 119 230 128 300 q 93 33 110 160 q 67 10 90 19 q 16 1 43 1 q -32 7 -11 0 q -49 33 -53 14 q -11 316 -33 176 q 36 597 11 456 q 58 703 44 644 q 92 823 72 763 q 138 941 111 883 q 198 1044 164 999 q 275 1116 232 1089 q 372 1143 318 1143 q 435 1120 415 1143 q 460 1065 456 1097 q 455 996 464 1032 q 432 933 446 960 q 376 858 404 888 q 321 808 349 829 q 265 773 293 788 q 208 742 236 758 q 198 694 203 718 q 186 646 193 669 q 260 714 222 686 q 351 742 299 742 q 462 716 422 742 q 519 649 501 690 q 538 555 538 607 q 528 450 538 503 m 378 1096 q 330 1069 353 1096 q 288 998 307 1042 q 251 901 268 954 q 222 794 235 847 q 256 814 235 801 q 301 844 276 826 q 350 888 325 863 q 394 949 375 914 q 412 988 403 963 q 423 1036 421 1013 q 416 1078 425 1060 q 378 1096 407 1096 z "},"i":{"ha":390,"x_min":-12,"x_max":447,"o":"m 447 421 q 411 311 432 367 q 365 204 390 256 q 333 142 353 178 q 286 76 313 107 q 228 23 260 44 q 163 1 197 1 q 85 21 117 1 q 35 73 54 40 q 5 147 15 106 q -10 229 -6 188 q -10 294 -12 260 q -3 362 -8 328 q 7 429 1 396 q 18 493 13 463 q 44 626 31 564 q 68 717 58 688 q 97 737 72 729 q 147 746 121 744 q 194 740 174 747 q 208 715 214 733 q 183 600 196 654 q 158 492 171 546 q 131 364 143 426 q 111 235 118 301 q 107 165 107 199 q 113 105 107 131 q 132 64 119 79 q 168 49 144 49 q 217 66 193 49 q 260 108 240 83 q 297 158 281 132 q 324 204 314 185 q 372 310 350 257 q 408 421 393 364 l 447 421 m 178 935 q 223 915 206 935 q 238 865 240 894 q 216 816 235 836 q 169 796 197 796 q 125 816 143 796 q 110 865 107 836 q 132 915 113 894 q 178 935 151 935 z "},"j":{"ha":342,"x_min":-336,"x_max":400,"o":"m 400 421 q 387 377 394 401 q 370 326 379 353 q 350 272 361 299 q 326 224 339 246 q 277 156 306 186 q 215 100 249 125 q 144 54 182 75 q 68 15 107 33 q 23 -126 50 -51 q -42 -262 -4 -200 q -131 -364 -81 -324 q -246 -404 -182 -404 q -310 -381 -290 -404 q -333 -325 -329 -358 q -327 -256 -336 -292 q -303 -193 -318 -219 q -248 -118 -276 -147 q -192 -68 -219 -89 q -135 -33 -164 -47 q -78 -3 -107 -18 q -40 157 -58 76 q -10 319 -21 238 q -4 365 -8 333 q 6 438 0 397 q 17 524 11 479 q 28 609 22 569 q 38 678 33 649 q 44 717 42 707 q 71 737 47 729 q 121 746 94 744 q 168 740 147 747 q 185 715 189 733 q 177 650 181 681 q 169 588 174 619 q 160 524 165 557 q 150 454 156 492 q 119 259 135 356 q 81 65 104 163 q 140 98 110 79 q 197 138 169 117 q 249 184 225 160 q 290 236 274 208 q 333 332 315 279 q 363 421 351 385 l 400 421 m -251 -357 q -203 -329 -226 -357 q -160 -258 -181 -301 q -123 -162 -140 -215 q -92 -56 -106 -108 q -126 -74 -104 -62 q -172 -105 -147 -86 q -221 -149 -196 -124 q -267 -208 -246 -175 q -284 -247 -275 -222 q -295 -297 -293 -272 q -289 -339 -297 -321 q -251 -357 -281 -357 m 138 935 q 183 915 165 935 q 197 865 200 894 q 176 816 194 836 q 129 796 157 796 q 85 816 103 796 q 69 865 67 836 q 92 915 72 894 q 138 935 111 935 z "},"k":{"ha":617,"x_min":-53,"x_max":678,"o":"m 194 118 q 173 178 182 144 q 157 245 164 211 q 145 310 150 279 q 135 365 140 342 l 93 33 q 67 10 90 19 q 16 1 43 1 q -32 7 -11 0 q -49 33 -53 14 q -11 316 -33 176 q 36 597 11 456 q 58 703 44 644 q 92 823 72 763 q 138 941 111 883 q 198 1044 164 999 q 275 1116 232 1089 q 372 1143 318 1143 q 435 1120 415 1143 q 460 1065 456 1097 q 455 996 464 1032 q 432 933 446 960 q 378 858 406 888 q 322 808 350 829 q 266 773 294 788 q 210 742 238 758 q 199 697 203 718 q 189 653 194 676 q 254 716 218 690 q 340 742 290 742 q 413 724 382 742 q 464 676 444 706 q 490 612 483 647 q 486 542 496 576 q 452 462 474 494 q 401 408 431 429 q 334 373 371 386 q 256 350 297 360 q 253 316 253 338 q 255 269 253 294 q 263 215 257 243 q 279 160 268 186 q 293 130 283 149 q 315 93 303 111 q 342 62 328 75 q 368 49 356 49 q 418 66 393 49 q 466 108 443 83 q 507 158 489 132 q 536 204 525 185 q 594 311 568 257 q 640 421 619 365 l 678 421 q 633 311 658 367 q 579 206 607 256 q 535 133 558 169 q 483 68 513 97 q 418 20 454 39 q 336 1 382 1 q 253 36 288 1 q 194 118 218 71 m 140 397 q 165 392 139 392 q 228 403 192 392 q 299 444 264 415 q 353 522 335 472 q 363 567 358 538 q 367 626 368 597 q 357 677 367 656 q 322 699 347 699 q 274 679 299 699 q 226 629 249 660 q 186 560 204 599 q 160 486 168 522 q 153 455 156 465 q 148 437 150 444 q 144 421 146 429 q 140 397 143 413 m 378 1096 q 331 1069 353 1096 q 289 998 308 1042 q 253 901 269 954 q 222 794 236 847 q 256 814 235 801 q 302 844 278 826 q 351 888 326 863 q 394 949 375 914 q 412 988 403 963 q 423 1036 421 1013 q 416 1078 425 1060 q 378 1096 407 1096 z "},"l":{"ha":394,"x_min":-7,"x_max":460,"o":"m 328 201 q 417 418 383 307 l 454 418 q 369 201 422 304 q 337 140 357 175 q 290 73 317 104 q 233 20 264 42 q 167 -1 201 -1 q 81 22 114 -1 q 31 82 49 46 q 5 163 13 118 q -4 249 -3 207 q 4 422 -7 328 q 31 594 15 515 q 54 701 40 642 q 88 822 68 761 q 133 941 107 883 q 194 1044 160 999 q 272 1116 229 1089 q 369 1143 315 1143 q 433 1120 413 1143 q 456 1065 453 1097 q 451 996 460 1032 q 428 933 442 960 q 374 858 401 888 q 318 808 346 829 q 262 773 290 788 q 206 742 233 758 q 182 640 194 690 q 158 538 169 590 q 131 392 146 465 q 108 246 115 318 q 104 190 106 225 q 108 124 103 156 q 127 68 113 92 q 172 44 142 44 q 221 62 197 44 q 265 104 244 79 q 302 156 286 129 q 328 201 318 182 m 375 1096 q 327 1069 350 1096 q 285 998 304 1042 q 249 901 265 954 q 218 794 232 847 q 252 814 231 801 q 298 844 274 826 q 347 888 322 863 q 392 949 372 914 q 408 988 400 963 q 419 1036 417 1013 q 412 1078 421 1060 q 375 1096 403 1096 z "},"m":{"ha":1057,"x_min":-61,"x_max":1118,"o":"m 1118 421 q 1082 311 1103 367 q 1036 206 1061 256 q 1002 143 1022 178 q 956 76 982 108 q 898 23 929 44 q 832 1 867 1 q 756 20 788 1 q 704 69 724 39 q 676 139 685 100 q 667 218 667 178 q 668 278 667 250 q 674 332 669 306 q 683 385 678 358 q 694 442 688 411 q 707 515 700 471 q 710 599 714 558 q 690 667 707 639 q 631 696 672 696 q 575 674 600 696 q 531 619 550 651 q 499 553 511 588 q 481 494 486 518 q 460 258 475 379 q 436 33 444 136 q 414 10 435 19 q 368 1 393 1 q 324 7 343 0 q 308 33 306 14 q 323 157 314 92 q 342 290 332 222 q 359 424 351 357 q 369 556 367 492 q 363 610 367 585 q 351 654 358 635 q 330 685 343 674 q 297 696 317 696 q 246 673 269 696 q 203 617 222 650 q 172 550 185 585 q 150 492 158 515 l 83 33 q 57 10 81 19 q 7 1 33 1 q -40 7 -19 0 q -58 33 -61 14 q -33 201 -46 121 q -6 362 -19 281 q 23 530 8 443 q 53 718 38 617 q 76 739 56 731 q 122 749 97 747 q 164 743 146 750 q 179 718 182 736 l 168 646 q 222 713 189 685 q 296 742 256 742 q 360 731 333 742 q 408 700 388 719 q 441 655 428 681 q 463 601 454 629 q 490 653 472 628 q 530 697 507 678 q 579 729 553 717 q 631 742 606 742 q 743 715 701 742 q 805 644 785 688 q 826 547 825 601 q 819 439 828 493 q 802 338 813 388 q 786 236 792 289 q 781 165 782 199 q 786 106 781 132 q 803 64 792 79 q 839 49 815 49 q 886 66 863 49 q 931 108 910 83 q 967 160 951 133 q 993 204 983 186 q 1042 317 1021 257 q 1081 421 1064 376 l 1118 421 z "},"n":{"ha":754,"x_min":-62,"x_max":814,"o":"m 814 421 q 777 311 799 367 q 731 206 756 256 q 698 143 718 178 q 651 76 678 108 q 594 23 625 44 q 528 1 563 1 q 451 20 483 1 q 400 69 419 39 q 372 139 381 100 q 363 218 363 178 q 364 278 363 250 q 369 332 365 306 q 378 385 374 358 q 390 442 383 411 q 403 521 397 476 q 406 604 410 565 q 384 669 401 643 q 328 696 367 696 q 269 674 297 696 q 219 622 242 653 q 179 556 196 590 q 157 494 163 521 q 116 261 129 376 q 83 33 103 146 q 56 10 81 19 q 5 1 32 1 q -42 7 -22 0 q -57 33 -62 14 q -3 374 -33 206 q 51 717 28 543 q 75 740 54 731 q 120 749 96 749 q 163 743 144 750 q 178 718 181 736 q 172 682 175 703 q 167 646 169 661 q 194 680 176 663 q 233 711 211 697 q 278 733 254 725 q 326 742 303 742 q 440 715 399 742 q 501 644 482 688 q 522 546 521 600 q 515 439 524 492 q 498 338 508 388 q 482 236 488 289 q 477 165 478 199 q 481 106 476 132 q 498 64 486 79 q 533 49 510 49 q 582 66 558 49 q 626 108 606 83 q 663 160 647 133 q 689 204 679 186 q 775 421 743 308 l 814 421 z "},"o":{"ha":597,"x_min":-11,"x_max":656,"o":"m 339 126 q 309 86 326 108 q 271 45 292 64 q 227 14 250 26 q 182 1 204 1 q 78 40 118 1 q 17 138 38 79 q -8 263 -4 196 q 0 388 -11 331 q 36 510 11 447 q 98 625 61 574 q 183 709 135 676 q 289 742 231 742 q 331 725 317 742 q 343 679 346 708 q 338 672 343 674 q 327 669 333 669 q 315 672 321 669 q 310 678 310 674 q 296 694 307 694 q 249 672 271 694 q 209 614 228 649 q 175 538 190 579 q 149 458 160 496 q 131 392 138 421 q 122 357 124 364 q 116 317 119 344 q 111 256 113 290 q 110 185 110 221 q 119 118 111 149 q 141 68 126 88 q 181 49 156 49 q 213 58 196 49 q 247 80 231 67 q 278 109 264 93 q 301 139 292 125 q 237 186 263 154 q 197 258 211 218 q 178 343 182 299 q 179 429 174 388 q 192 493 182 458 q 218 559 201 528 q 260 611 235 590 q 321 632 286 632 q 367 622 347 632 q 401 594 388 611 q 421 556 414 578 q 431 508 428 533 q 432 422 436 468 q 417 331 428 376 q 392 240 407 285 q 358 161 376 196 q 405 164 379 158 q 455 181 431 169 q 501 209 479 193 q 538 244 522 225 q 586 328 569 286 q 617 421 603 371 l 656 421 q 622 317 640 365 q 567 222 603 269 q 465 144 526 169 q 339 126 404 119 m 321 171 q 354 246 339 204 q 380 333 369 288 q 394 422 390 378 q 393 504 397 467 q 375 566 390 538 q 321 594 360 594 q 280 576 297 594 q 250 530 263 557 q 231 474 238 503 q 221 425 224 446 q 220 349 217 389 q 236 274 224 310 q 270 211 249 239 q 321 171 292 183 z "},"p":{"ha":657,"x_min":-335,"x_max":715,"o":"m 715 421 q 703 372 710 400 q 685 314 696 344 q 574 172 649 210 q 399 144 499 133 q 358 92 381 118 q 308 47 335 67 q 249 14 281 26 q 185 1 218 1 q 144 13 161 1 q 120 43 128 25 q 114 83 113 61 q 128 126 115 106 q 160 164 140 149 q 204 188 181 179 q 253 198 228 196 q 304 197 279 200 q 331 261 319 231 q 348 321 342 292 q 358 381 354 350 q 363 446 361 411 q 361 524 364 481 q 349 604 358 567 q 321 667 339 642 q 272 692 303 692 q 222 660 243 692 q 185 588 200 629 q 162 508 171 547 q 151 454 153 469 q 115 234 133 342 q 69 15 97 126 q 24 -126 51 -51 q -41 -262 -3 -200 q -130 -364 -79 -324 q -244 -404 -181 -404 q -308 -381 -289 -404 q -331 -325 -328 -358 q -326 -256 -335 -292 q -301 -193 -317 -219 q -247 -118 -275 -147 q -190 -68 -218 -89 q -134 -33 -162 -47 q -76 -3 -106 -18 q -38 157 -57 76 q -8 319 -19 238 q -2 368 -7 333 q 8 448 3 403 q 20 543 14 493 q 33 636 26 593 q 43 711 39 679 q 50 753 47 743 q 77 774 53 765 q 128 783 101 782 q 174 778 154 785 q 190 753 194 771 q 178 649 186 703 q 196 679 183 663 q 224 710 208 696 q 259 733 240 724 q 297 742 278 742 q 386 713 349 742 q 447 640 424 685 q 480 541 469 596 q 488 435 490 486 q 472 305 485 365 q 422 181 458 244 q 556 206 497 178 q 644 314 615 235 q 663 372 656 343 q 678 421 671 400 l 715 421 m -250 -357 q -202 -329 -225 -357 q -159 -258 -179 -301 q -122 -162 -139 -215 q -90 -56 -104 -108 q -124 -74 -103 -62 q -170 -105 -146 -86 q -219 -149 -194 -124 q -265 -208 -244 -175 q -283 -247 -274 -222 q -294 -297 -292 -272 q -287 -339 -296 -321 q -250 -357 -279 -357 m 181 49 q 233 81 206 49 q 286 161 261 113 q 215 151 251 163 q 160 107 179 139 q 153 69 150 90 q 181 49 156 49 z "},"q":{"ha":667,"x_min":-19,"x_max":728,"o":"m 728 421 q 694 317 713 365 q 639 222 675 269 q 556 149 603 174 q 454 118 510 125 q 527 -22 494 43 q 579 -139 560 -86 q 608 -234 599 -187 q 604 -331 617 -281 q 576 -384 594 -364 q 531 -404 558 -404 q 447 -377 482 -404 q 390 -306 413 -350 q 356 -205 368 -261 q 339 -90 344 -149 q 333 26 333 -31 q 335 127 333 83 q 340 198 338 171 q 343 225 343 225 q 310 145 329 185 q 267 74 290 106 q 213 22 243 42 q 149 1 183 1 q 48 40 85 1 q -4 138 11 79 q -17 263 -19 196 q 0 388 -15 331 q 46 510 17 447 q 115 625 75 574 q 206 709 156 676 q 318 742 257 742 q 378 715 358 742 q 406 647 397 688 q 417 692 411 671 q 424 726 421 710 q 429 750 428 743 q 452 772 432 764 q 495 782 472 781 q 535 775 518 783 q 546 749 551 767 q 534 678 540 714 q 521 607 528 643 q 502 506 511 558 q 482 375 493 453 q 467 267 472 321 q 457 156 461 213 q 540 183 503 163 q 610 244 578 204 q 658 328 642 286 q 690 421 675 371 l 728 421 m 372 529 q 373 586 374 557 q 367 640 372 615 q 350 679 361 664 q 321 694 339 694 q 274 673 297 694 q 228 617 250 651 q 189 543 207 583 q 157 465 171 503 q 133 398 143 428 q 121 357 124 368 q 111 318 117 346 q 101 256 106 290 q 97 185 97 222 q 101 118 96 149 q 121 68 107 88 q 161 49 135 49 q 225 83 196 49 q 278 167 254 118 q 317 265 301 215 q 342 347 333 315 q 353 399 349 376 q 360 442 357 422 q 365 483 363 463 q 372 529 368 503 m 543 -150 q 504 -61 528 -108 q 450 43 481 -14 q 447 -10 449 26 q 444 -90 444 -46 q 445 -182 443 -135 q 456 -268 447 -229 q 483 -333 465 -307 q 528 -358 500 -358 q 552 -347 543 -358 q 565 -319 561 -336 q 567 -234 576 -278 q 543 -150 558 -190 z "},"t":{"ha":389,"x_min":-53,"x_max":453,"o":"m 453 421 q 415 311 438 367 q 367 204 392 256 q 334 142 354 178 q 288 76 314 107 q 230 23 261 44 q 164 1 199 1 q 87 21 118 1 q 36 73 56 40 q 6 147 17 106 q -8 229 -4 188 q -6 326 -11 271 q 12 456 -1 381 q 47 633 25 532 q 101 869 69 735 l 24 869 q -34 881 -15 869 q -53 908 -53 893 q -33 933 -53 922 q 28 943 -12 944 l 119 943 q 135 1004 126 975 q 151 1058 144 1033 q 180 1079 156 1071 q 231 1089 204 1088 q 277 1083 257 1090 q 292 1058 297 1076 q 278 1003 286 1032 q 264 942 271 974 l 349 942 q 424 931 401 942 q 445 908 446 921 q 425 885 444 896 q 375 872 406 874 q 315 870 347 871 q 249 869 283 869 q 209 708 228 786 q 172 553 190 631 q 140 397 154 476 q 113 235 125 318 q 107 165 107 199 q 113 105 107 131 q 133 64 119 79 q 169 49 146 49 q 218 66 194 49 q 263 108 242 83 q 299 158 283 132 q 325 204 315 185 q 376 310 353 257 q 414 421 399 364 l 453 421 z "},"u":{"ha":763,"x_min":-12,"x_max":822,"o":"m 822 421 q 786 311 807 367 q 740 204 765 256 q 707 142 728 178 q 660 76 686 107 q 603 23 635 44 q 536 1 571 1 q 461 21 492 1 q 410 72 431 40 q 380 142 390 103 q 365 224 369 182 l 357 204 q 326 142 344 178 q 283 76 308 107 q 228 23 258 44 q 163 1 197 1 q 85 21 117 1 q 35 73 54 40 q 5 147 15 106 q -10 229 -6 188 q -10 294 -12 260 q -3 362 -8 328 q 7 429 1 396 q 18 493 13 463 q 44 626 31 564 q 68 717 58 688 q 97 737 72 729 q 147 746 121 744 q 194 740 174 747 q 208 715 214 733 q 183 600 196 654 q 158 492 171 546 q 131 364 143 426 q 111 235 118 301 q 107 165 107 199 q 113 105 107 131 q 132 64 119 79 q 168 49 144 49 q 215 66 193 49 q 256 108 238 83 q 290 158 275 132 q 314 204 304 185 q 365 318 342 257 q 378 408 369 363 q 393 493 386 453 q 419 626 406 564 q 443 717 432 688 q 471 737 447 729 q 522 746 494 744 q 568 740 549 747 q 583 715 588 733 q 558 600 571 654 q 532 492 544 546 q 504 364 517 426 q 485 235 492 301 q 481 165 481 199 q 487 105 481 131 q 506 64 493 79 q 543 49 519 49 q 592 66 568 49 q 635 108 615 83 q 672 158 656 132 q 697 204 688 185 q 785 421 751 308 l 822 421 z "},"y":{"ha":744,"x_min":-12,"x_max":804,"o":"m 804 421 q 791 377 799 401 q 774 326 783 353 q 754 272 765 299 q 731 224 743 246 q 681 156 710 186 q 619 100 653 125 q 549 54 586 75 q 474 15 511 33 q 428 -126 456 -51 q 363 -262 401 -200 q 273 -364 324 -324 q 158 -404 222 -404 q 95 -381 115 -404 q 72 -325 75 -358 q 77 -256 68 -292 q 101 -193 86 -219 q 157 -118 129 -147 q 213 -68 185 -89 q 270 -33 242 -47 q 326 -3 299 -18 q 355 111 342 56 q 379 225 368 167 q 347 157 367 196 q 300 83 326 118 q 242 25 274 49 q 172 1 210 1 q 95 21 126 1 q 43 73 64 40 q 10 147 22 106 q -6 229 -1 188 q -3 362 -12 292 q 15 493 6 432 q 38 626 26 564 q 58 717 50 688 q 86 737 63 729 q 137 746 110 744 q 183 740 164 747 q 199 715 203 733 q 176 600 188 654 q 154 492 165 546 q 131 364 142 426 q 114 235 119 301 q 113 165 111 199 q 120 105 114 131 q 140 64 126 79 q 176 49 154 49 q 224 66 201 49 q 267 108 247 83 q 303 160 288 133 q 328 204 319 186 q 407 417 378 306 q 419 506 413 458 q 431 598 425 554 q 441 674 436 642 q 449 717 446 706 q 476 737 451 729 q 526 746 500 744 q 573 740 553 747 q 589 715 593 733 q 581 650 585 681 q 574 588 578 619 q 565 524 569 557 q 554 454 560 492 q 524 259 539 356 q 486 65 510 163 q 545 98 515 79 q 603 138 575 117 q 654 184 631 160 q 694 236 678 208 q 737 332 719 279 q 765 421 754 385 l 804 421 m 153 -357 q 201 -329 178 -357 q 245 -258 225 -301 q 282 -162 265 -215 q 313 -56 299 -108 q 278 -74 300 -62 q 233 -105 257 -86 q 183 -149 208 -124 q 139 -208 158 -175 q 121 -247 131 -222 q 109 -297 111 -272 q 116 -339 107 -321 q 153 -357 125 -357 z "},"d":{"ha":735,"x_min":-21,"x_max":808,"o":"m 675 204 q 724 310 701 257 q 761 421 746 364 l 800 421 q 763 311 785 367 q 717 204 742 256 q 684 142 704 178 q 638 76 664 107 q 580 23 611 44 q 514 1 549 1 q 433 22 464 1 q 383 74 401 42 q 356 147 364 107 q 344 225 347 186 q 311 145 331 185 q 268 74 292 106 q 215 22 244 42 q 150 1 185 1 q 49 40 86 1 q -4 138 13 79 q -18 263 -21 196 q 0 388 -15 331 q 39 504 15 442 q 98 619 63 567 q 182 707 133 672 q 294 742 231 742 q 334 733 318 742 q 360 711 350 725 q 378 680 371 697 q 389 646 385 663 q 428 798 403 713 q 492 960 453 883 q 585 1090 531 1038 q 717 1143 640 1143 q 780 1120 760 1143 q 804 1065 800 1097 q 799 996 808 1032 q 776 933 790 960 q 722 858 750 888 q 667 808 694 829 q 610 773 639 788 q 554 742 582 758 q 529 640 542 692 q 506 538 517 589 q 478 393 494 465 q 456 250 463 321 q 451 194 453 228 q 454 127 449 160 q 474 72 460 94 q 519 49 489 49 q 568 66 544 49 q 612 108 592 83 q 649 158 632 132 q 675 204 665 185 m 722 1096 q 675 1069 697 1096 q 633 998 653 1042 q 597 901 614 954 q 567 794 581 847 q 601 814 579 801 q 647 844 622 826 q 695 888 671 863 q 739 949 719 914 q 756 988 747 963 q 767 1036 765 1013 q 760 1078 769 1060 q 722 1096 751 1096 m 343 347 q 347 389 344 365 q 353 438 350 413 q 359 486 356 463 q 365 529 363 510 q 361 586 364 557 q 351 640 358 615 q 331 679 343 664 q 301 694 319 694 q 261 676 281 694 q 224 627 242 657 q 190 560 206 597 q 160 485 174 522 q 135 413 146 447 q 119 357 125 379 q 110 318 115 346 q 101 256 106 290 q 97 185 97 222 q 103 118 97 149 q 122 68 108 88 q 163 49 136 49 q 226 83 197 49 q 278 167 256 118 q 318 265 301 215 q 343 347 335 315 z "},"A":{"ha":1067,"x_min":1,"x_max":1125,"o":"m 1125 418 q 1089 308 1110 363 q 1043 201 1068 253 q 1009 139 1029 174 q 963 73 989 104 q 905 20 936 42 q 839 -1 874 -1 q 753 22 786 -1 q 703 82 721 46 q 677 163 685 118 q 668 249 669 207 q 679 452 664 344 q 717 656 694 560 q 605 634 661 644 q 496 621 549 624 q 437 448 468 539 q 368 271 406 357 q 331 194 353 236 q 282 113 310 153 q 220 43 254 74 q 146 1 186 13 q 71 1 106 -10 q 7 38 36 13 q 3 50 1 43 q 9 63 4 57 q 21 70 14 68 q 35 67 28 72 q 81 40 56 47 q 135 40 107 32 q 197 76 168 49 q 251 137 226 103 q 294 207 275 171 q 325 271 313 243 q 395 446 364 354 q 454 621 426 538 q 365 633 406 622 q 296 669 324 643 q 293 680 292 674 q 299 692 294 686 q 312 699 304 697 q 326 694 319 700 q 386 667 350 675 q 467 660 422 658 q 533 841 500 754 q 599 996 565 928 q 761 1143 671 1143 q 813 1125 792 1143 q 849 1080 835 1107 q 869 1022 863 1053 q 879 968 876 992 q 882 845 886 906 q 868 722 878 785 q 926 726 900 726 q 972 718 953 725 q 984 707 982 714 q 982 694 986 700 q 969 685 978 688 q 951 685 961 682 q 913 688 936 689 q 860 683 890 688 q 816 465 840 575 q 781 246 792 356 q 776 190 778 225 q 781 124 775 156 q 801 68 786 92 q 846 44 815 44 q 893 62 869 44 q 938 104 917 79 q 974 156 958 129 q 1000 201 990 182 q 1049 307 1028 253 q 1088 418 1071 361 l 1125 418 m 510 661 q 617 676 561 665 q 725 697 672 686 q 752 826 740 763 q 771 956 764 889 q 772 988 771 965 q 772 1035 774 1011 q 763 1077 769 1058 q 740 1096 756 1096 q 708 1082 724 1096 q 677 1049 692 1068 q 651 1011 663 1031 q 635 979 640 992 q 572 833 603 914 q 510 661 542 751 z "},"B":{"ha":810,"x_min":1,"x_max":869,"o":"m 869 421 q 855 376 864 401 q 835 324 846 351 q 778 229 811 265 q 706 174 744 193 q 627 148 668 154 q 546 144 586 142 q 510 92 531 118 q 463 47 489 67 q 407 14 438 26 q 343 1 376 1 q 300 13 318 1 q 274 43 282 25 q 265 83 265 61 q 276 126 265 106 q 349 188 299 172 q 449 197 399 203 q 474 292 467 244 q 488 389 482 340 q 478 484 493 439 q 432 563 464 529 q 353 617 400 597 q 247 636 306 636 q 215 514 228 569 q 188 393 201 458 q 172 301 179 350 q 160 202 165 251 q 149 107 154 153 q 140 25 144 61 q 115 2 138 11 q 67 -8 93 -7 q 22 -3 42 -10 q 6 24 1 4 q 31 250 17 140 q 67 471 46 360 q 90 579 75 519 q 126 701 106 639 q 174 827 147 764 q 231 946 200 890 q 294 1047 261 1001 q 365 1118 328 1092 q 307 1104 338 1114 q 250 1078 276 1094 q 203 1041 224 1063 q 174 994 182 1019 q 160 978 167 975 q 147 993 154 982 q 135 1016 140 1004 q 128 1040 129 1028 q 133 1067 126 1053 q 160 1097 140 1081 q 236 1135 186 1119 q 349 1154 286 1151 q 482 1135 421 1156 q 581 1077 543 1115 q 630 983 619 1039 q 610 857 640 928 q 509 731 576 778 q 361 667 442 683 q 465 643 417 663 q 548 590 513 624 q 602 506 583 556 q 618 390 621 456 q 606 285 615 335 q 568 183 596 236 q 640 190 608 183 q 699 212 672 196 q 750 255 726 228 q 796 324 774 282 q 818 376 810 350 q 832 421 826 401 l 869 421 m 436 1096 q 404 1076 421 1096 q 372 1022 388 1056 q 340 947 356 989 q 309 859 324 904 q 282 770 294 814 q 261 692 269 726 q 331 712 296 696 q 398 752 367 728 q 453 806 429 776 q 492 868 478 836 q 516 940 506 900 q 524 1014 526 979 q 501 1072 521 1049 q 436 1096 482 1096 m 335 49 q 385 81 360 49 q 433 161 411 113 q 361 151 397 163 q 310 107 325 139 q 306 69 301 90 q 335 49 310 49 z "},"C":{"ha":676,"x_min":-6,"x_max":735,"o":"m 735 418 q 678 259 714 340 q 589 111 643 178 q 499 31 551 65 q 394 -3 447 -3 q 254 44 307 -3 q 174 164 201 92 q 141 322 147 236 q 142 486 135 408 q 168 631 149 561 q 215 772 188 701 q 127 817 169 786 q 54 891 85 849 q 9 983 24 933 q 6 1083 -6 1033 q 20 1119 10 1107 q 43 1138 31 1132 q 69 1144 56 1143 q 96 1144 83 1144 q 115 1140 108 1144 q 107 1121 122 1136 q 67 1029 71 1079 q 85 935 64 979 q 144 856 106 890 q 231 808 183 821 q 299 935 260 875 q 384 1042 338 996 q 483 1116 431 1089 q 593 1143 536 1143 q 660 1117 638 1143 q 676 1047 683 1092 q 644 958 671 1003 q 586 882 617 914 q 480 801 540 833 q 353 760 419 768 q 310 628 331 696 q 279 486 289 561 q 269 342 271 419 q 278 199 267 265 q 316 89 289 133 q 396 44 343 44 q 477 69 436 44 q 550 129 518 94 q 638 263 603 186 q 697 418 674 340 l 735 418 m 599 1096 q 535 1072 567 1096 q 474 1006 503 1047 q 418 912 444 965 q 369 801 392 858 q 469 840 422 813 q 553 904 515 867 q 607 972 581 932 q 638 1053 633 1013 q 631 1086 640 1076 q 599 1096 622 1096 z "},"D":{"ha":807,"x_min":1,"x_max":867,"o":"m 867 421 q 841 344 856 382 q 804 271 826 306 q 741 203 776 229 q 666 164 706 178 q 587 146 626 150 q 513 144 547 142 q 474 92 496 118 q 427 47 453 67 q 371 14 401 26 q 306 1 340 1 q 263 13 281 1 q 236 43 244 25 q 228 83 228 61 q 239 126 228 106 q 270 165 250 150 q 315 188 290 179 q 365 197 339 196 q 414 196 390 199 q 495 414 463 297 q 540 649 528 531 q 545 707 543 671 q 547 786 547 743 q 544 874 547 829 q 532 960 540 919 q 499 1057 521 1018 q 436 1096 476 1096 q 383 1053 410 1096 q 332 942 357 1010 q 283 791 307 874 q 241 631 260 708 q 208 488 222 553 q 189 393 194 424 q 173 301 181 350 q 160 202 165 251 q 149 107 154 153 q 140 25 144 61 q 116 2 139 11 q 67 -8 93 -7 q 22 -3 42 -10 q 6 22 1 4 q 32 250 17 140 q 67 471 47 360 q 103 636 78 542 q 167 824 129 731 q 253 996 204 917 q 360 1114 301 1075 q 301 1102 331 1111 q 244 1078 271 1093 q 196 1042 217 1063 q 167 996 175 1022 q 153 980 160 976 q 140 994 147 983 q 128 1017 133 1006 q 121 1042 122 1029 q 126 1068 119 1054 q 153 1099 133 1082 q 229 1138 179 1121 q 343 1156 279 1154 q 527 1116 450 1157 q 644 964 604 1075 q 681 801 672 886 q 685 649 689 715 q 636 403 675 525 q 535 182 597 282 q 663 203 599 179 q 768 282 728 228 q 803 348 790 311 q 828 421 817 385 l 867 421 m 297 49 q 347 80 322 49 q 394 160 372 111 q 324 150 360 161 q 274 107 289 139 q 269 69 265 90 q 297 49 274 49 z "},"E":{"ha":650,"x_min":1,"x_max":710,"o":"m 585 201 q 671 418 639 304 l 710 418 q 673 308 694 363 q 626 201 651 253 q 514 46 574 92 q 378 0 454 0 q 244 31 306 0 q 141 115 183 63 q 79 239 99 168 q 72 388 60 310 q 110 508 82 453 q 181 608 139 564 q 275 682 222 651 q 389 728 328 713 q 293 888 317 786 q 206 901 250 889 q 122 937 161 914 q 52 993 82 960 q 8 1069 22 1026 q 3 1108 1 1093 q 14 1134 6 1124 q 34 1151 22 1144 q 57 1164 46 1158 q 76 1170 68 1171 q 79 1149 83 1169 q 81 1060 67 1100 q 127 991 96 1019 q 201 946 158 963 q 288 928 244 929 q 320 1040 296 993 q 382 1117 344 1088 q 468 1162 419 1147 q 572 1176 517 1176 q 638 1164 613 1176 q 671 1131 663 1151 q 669 1082 679 1110 q 628 1024 658 1054 q 583 982 610 1003 q 523 944 556 961 q 453 913 490 926 q 379 892 417 899 q 392 811 372 847 q 443 750 411 775 q 465 734 449 744 q 490 713 481 724 q 496 694 500 703 q 458 682 492 685 q 398 672 422 679 q 346 643 374 665 q 297 587 321 624 q 255 505 274 550 q 224 413 236 460 q 211 325 213 365 q 225 210 208 263 q 269 122 242 158 q 333 66 297 86 q 407 46 369 46 q 494 82 447 46 q 585 201 542 118 m 603 1124 q 529 1107 564 1124 q 467 1063 494 1090 q 419 1002 439 1036 q 389 933 399 968 q 510 981 453 949 q 597 1049 567 1013 q 614 1069 604 1057 q 629 1094 624 1082 q 630 1115 635 1106 q 603 1124 625 1124 z "},"F":{"ha":528,"x_min":4,"x_max":794,"o":"m 781 1251 q 790 1228 786 1240 q 793 1201 794 1215 q 784 1174 792 1188 q 758 1147 776 1161 q 660 1105 725 1121 q 521 1096 596 1089 q 478 1065 499 1090 q 440 1002 458 1040 q 407 919 422 964 q 378 829 392 874 q 356 745 365 785 q 340 681 346 706 q 427 688 386 690 q 503 658 468 686 q 509 646 510 653 q 503 633 508 639 q 491 626 499 628 q 478 628 483 624 q 410 649 449 650 q 329 639 372 647 q 299 483 313 558 q 273 333 285 408 q 251 182 261 258 q 231 25 240 106 q 206 2 228 11 q 158 -8 183 -7 q 113 -1 133 -8 q 97 25 93 6 q 131 319 110 165 q 183 613 153 474 q 95 624 139 611 q 8 675 51 638 q 6 685 4 679 q 13 697 7 692 q 24 704 18 701 q 36 703 31 707 q 113 660 74 671 q 193 653 153 650 q 233 791 210 721 q 289 924 257 861 q 360 1036 321 986 q 446 1114 400 1086 q 413 1124 432 1119 q 371 1129 393 1128 q 327 1128 349 1131 q 289 1122 306 1126 q 202 1079 240 1110 q 150 1003 164 1049 q 137 985 143 982 q 124 1000 131 989 q 110 1022 117 1011 q 101 1046 103 1033 q 106 1073 100 1058 q 131 1104 113 1088 q 217 1152 158 1132 q 347 1171 275 1172 q 400 1167 381 1171 q 434 1160 419 1164 q 463 1151 449 1156 q 497 1142 476 1146 q 522 1143 508 1143 q 546 1140 535 1143 l 543 1135 q 599 1139 569 1135 q 692 1176 649 1149 q 756 1250 735 1204 q 770 1267 764 1271 q 781 1251 776 1263 z "},"G":{"ha":964,"x_min":-3,"x_max":1024,"o":"m 1024 421 q 1010 377 1018 401 q 994 326 1003 353 q 974 272 985 299 q 950 224 963 246 q 849 100 910 149 q 713 15 789 51 q 667 -126 694 -51 q 602 -262 640 -200 q 513 -364 564 -324 q 399 -404 463 -404 q 335 -381 354 -404 q 312 -325 315 -358 q 317 -256 308 -292 q 342 -193 326 -219 q 397 -118 368 -147 q 453 -68 425 -89 q 509 -33 481 -47 q 567 -3 538 -18 q 594 110 581 54 q 618 225 607 167 q 582 152 603 192 q 533 78 561 113 q 471 21 506 44 q 394 -3 436 -3 q 254 44 307 -3 q 174 163 201 90 q 141 322 147 235 q 142 486 135 408 q 168 631 149 561 q 215 772 188 701 q 127 818 169 786 q 55 892 85 850 q 11 984 25 935 q 8 1083 -3 1033 q 22 1119 13 1107 q 44 1138 32 1132 q 70 1144 57 1143 q 96 1144 83 1144 q 115 1140 108 1144 q 107 1121 122 1136 q 67 1029 71 1079 q 85 935 64 979 q 144 856 106 890 q 231 808 183 821 q 299 935 260 875 q 383 1042 338 996 q 482 1116 429 1089 q 592 1143 535 1143 q 660 1117 638 1143 q 676 1047 682 1092 q 644 958 671 1003 q 586 882 617 914 q 480 801 540 833 q 353 760 419 768 q 337 717 347 747 q 315 648 326 688 q 294 566 304 608 q 279 486 283 524 q 269 342 271 419 q 278 199 267 265 q 316 89 289 133 q 396 44 343 44 q 452 60 426 44 q 499 99 478 75 q 536 149 519 122 q 565 201 553 176 q 608 293 589 246 q 643 389 628 340 q 652 454 647 419 q 664 517 657 489 q 692 538 668 529 q 741 547 715 546 q 786 542 767 549 q 801 517 806 535 q 785 397 794 457 q 767 278 776 338 q 725 65 750 171 q 832 138 783 94 q 914 236 881 181 q 957 332 939 279 q 985 421 975 385 l 1024 421 m 599 1096 q 534 1072 565 1096 q 474 1006 503 1047 q 418 912 444 965 q 369 801 392 858 q 468 840 421 813 q 553 904 515 867 q 607 972 581 932 q 638 1053 633 1013 q 631 1086 640 1076 q 599 1096 622 1096 m 393 -357 q 441 -329 418 -357 q 484 -258 464 -301 q 522 -162 504 -215 q 553 -56 539 -108 q 519 -74 540 -62 q 473 -105 497 -86 q 424 -149 449 -124 q 378 -208 399 -175 q 360 -247 369 -222 q 348 -297 350 -272 q 355 -339 346 -321 q 393 -357 364 -357 z "},"H":{"ha":1088,"x_min":6,"x_max":1146,"o":"m 1146 418 q 1110 308 1131 363 q 1064 201 1089 253 q 1030 139 1050 174 q 983 73 1010 104 q 926 20 957 42 q 860 -1 894 -1 q 775 22 807 -1 q 724 82 743 46 q 699 163 706 118 q 690 249 692 207 q 701 456 686 346 q 738 661 715 565 q 665 649 707 654 q 579 638 624 643 q 492 628 535 632 q 419 621 450 624 l 360 347 q 325 224 346 286 q 273 113 304 163 q 199 31 242 63 q 99 -1 156 -1 q 34 31 63 -1 q 6 107 6 63 q 11 124 6 118 q 24 130 17 129 q 37 126 31 131 q 44 111 43 121 q 61 63 47 85 q 100 39 75 40 q 145 56 125 38 q 181 102 165 74 q 206 167 196 131 q 224 238 217 203 q 235 301 231 272 q 242 347 239 331 q 263 467 250 396 q 294 622 275 539 q 221 638 254 626 q 163 672 188 650 q 160 683 158 676 q 166 694 161 689 q 178 702 171 700 q 193 699 186 704 q 304 660 232 667 q 329 759 315 710 q 360 857 343 808 q 385 924 371 889 q 417 993 399 960 q 456 1057 435 1026 q 501 1108 476 1088 q 423 1113 464 1117 q 347 1095 382 1110 q 283 1056 311 1081 q 243 994 256 1031 q 230 978 236 975 q 217 993 224 982 q 203 1016 210 1004 q 196 1040 197 1028 q 201 1067 194 1053 q 228 1097 208 1081 q 282 1128 249 1114 q 358 1149 315 1142 q 449 1153 400 1156 q 547 1136 497 1151 q 588 1143 568 1143 q 613 1135 606 1143 q 618 1119 619 1128 q 608 1102 617 1110 q 582 1094 599 1094 q 541 1067 558 1094 q 510 999 524 1039 q 488 917 497 960 q 469 846 478 875 q 449 753 458 800 q 428 661 439 707 q 500 668 458 664 q 587 678 542 672 q 674 690 632 683 q 747 701 717 696 q 771 787 757 739 q 804 883 785 835 q 849 979 824 932 q 905 1063 874 1026 q 975 1121 936 1099 q 1060 1143 1014 1143 q 1086 1136 1078 1143 q 1094 1120 1094 1129 q 1085 1104 1094 1111 q 1060 1097 1076 1097 q 1022 1075 1040 1097 q 985 1018 1003 1053 q 953 940 968 983 q 927 856 939 897 q 906 778 915 814 q 893 724 897 743 q 951 726 925 726 q 993 718 976 725 q 1005 707 1003 714 q 1003 694 1007 700 q 990 685 999 688 q 972 685 982 682 q 883 686 943 693 q 836 467 860 582 q 801 246 813 351 q 797 190 799 225 q 801 124 796 156 q 822 68 807 92 q 867 44 836 44 q 915 62 892 44 q 959 104 939 79 q 995 156 979 129 q 1021 201 1011 182 q 1070 307 1049 253 q 1108 418 1092 361 l 1146 418 z "},"I":{"ha":649,"x_min":4,"x_max":854,"o":"m 847 1197 q 850 1151 854 1174 q 806 1111 846 1128 q 724 1094 769 1096 q 640 1096 678 1092 q 581 1040 610 1089 q 526 917 553 990 q 478 759 500 844 q 439 596 456 674 q 388 320 407 454 q 351 43 368 186 q 442 56 396 39 q 517 108 489 72 q 534 121 529 126 q 542 104 539 115 q 545 56 549 81 q 501 14 542 32 q 461 3 483 7 q 416 -2 439 -1 q 370 -1 393 -3 q 329 4 347 0 q 297 -6 317 -1 q 260 -9 278 -10 q 228 1 242 -8 q 218 32 215 11 q 122 24 168 39 q 75 0 97 15 q 38 -37 53 -15 q 21 -50 26 -56 q 13 -32 15 -44 q 7 -6 10 -19 q 6 19 4 7 q 19 44 8 32 q 51 65 29 56 q 135 83 88 82 q 222 76 183 83 q 258 366 236 217 q 313 653 281 515 q 353 791 329 721 q 410 924 378 861 q 481 1036 442 986 q 567 1114 521 1086 q 509 1126 542 1125 q 444 1119 476 1126 q 385 1094 413 1111 q 343 1056 358 1078 q 325 1044 331 1038 q 317 1061 319 1050 q 311 1087 314 1074 q 311 1113 308 1100 q 324 1137 314 1125 q 357 1160 335 1149 q 433 1174 386 1172 q 536 1165 481 1176 q 578 1153 561 1160 q 624 1142 596 1147 q 643 1144 632 1143 q 663 1142 654 1144 q 664 1139 665 1140 l 663 1135 q 751 1149 707 1132 q 821 1203 794 1167 q 838 1214 833 1219 q 847 1197 843 1208 z "},"J":{"ha":654,"x_min":3,"x_max":788,"o":"m 781 1199 q 783 1152 788 1175 q 739 1113 779 1129 q 672 1095 707 1097 q 600 1096 636 1093 q 583 1062 592 1088 q 566 1001 574 1036 q 551 928 558 967 q 539 854 544 889 q 511 654 524 754 q 483 454 499 554 q 453 259 468 356 q 415 65 439 163 q 522 138 474 94 q 603 236 571 181 q 646 332 628 279 q 675 421 664 385 l 714 421 q 701 377 708 401 q 683 326 693 353 q 663 272 674 299 q 640 224 653 246 q 539 100 599 149 q 403 15 479 51 q 358 -126 385 -51 q 294 -262 332 -200 q 207 -365 257 -325 q 93 -406 157 -406 q 29 -383 49 -406 q 6 -326 10 -360 q 12 -257 3 -293 q 36 -194 21 -221 q 91 -119 63 -149 q 148 -69 119 -90 q 205 -34 176 -49 q 261 -4 233 -19 q 290 122 278 61 q 314 242 303 182 q 334 363 325 301 q 351 489 343 424 q 367 594 357 533 q 390 719 376 654 q 418 849 403 785 q 451 967 433 914 q 486 1058 468 1021 q 522 1106 504 1094 q 507 1109 519 1106 q 481 1117 494 1113 q 454 1124 467 1121 q 439 1128 442 1128 q 344 1113 392 1132 q 272 1057 297 1093 q 255 1044 260 1038 q 247 1063 250 1050 q 242 1088 244 1075 q 241 1113 239 1100 q 253 1137 243 1125 q 286 1160 264 1149 q 364 1175 317 1172 q 467 1165 411 1178 q 503 1156 489 1161 q 539 1146 517 1151 q 593 1143 567 1150 q 593 1136 596 1142 q 683 1151 638 1133 q 754 1204 728 1168 q 772 1215 767 1221 q 781 1199 778 1210 m 88 -358 q 135 -331 113 -358 q 178 -260 158 -303 q 216 -163 199 -217 q 247 -57 233 -110 q 213 -76 235 -64 q 167 -106 192 -87 q 118 -151 143 -125 q 72 -210 93 -176 q 55 -249 64 -224 q 44 -298 46 -274 q 50 -340 42 -322 q 88 -358 58 -358 z "},"K":{"ha":979,"x_min":6,"x_max":1038,"o":"m 1038 418 q 1001 308 1022 363 q 954 201 979 253 q 922 141 942 176 q 878 74 903 106 q 823 21 853 43 q 760 -1 793 -1 q 690 23 714 -1 q 657 91 667 47 q 649 194 647 135 q 656 325 650 254 q 653 440 661 383 q 621 540 646 496 q 550 610 596 583 q 433 638 504 638 q 403 501 417 563 q 392 449 397 475 q 381 402 386 424 q 374 366 376 381 q 369 347 371 351 q 333 224 356 286 q 278 113 311 163 q 200 31 244 63 q 99 -1 156 -1 q 34 31 63 -1 q 6 107 6 63 q 11 124 6 118 q 24 130 17 129 q 37 126 31 131 q 44 111 43 121 q 61 63 47 85 q 100 39 75 40 q 145 56 125 38 q 181 102 165 74 q 206 167 196 131 q 224 238 217 203 q 235 301 231 272 q 242 347 239 331 q 269 510 254 425 q 308 701 285 596 q 340 806 319 747 q 390 922 361 864 q 457 1031 419 981 q 539 1111 494 1082 q 463 1110 503 1115 q 388 1091 424 1106 q 325 1052 353 1076 q 286 994 297 1028 q 273 978 279 975 q 260 993 267 982 q 247 1016 253 1004 q 240 1040 242 1028 q 246 1067 239 1053 q 272 1097 253 1081 q 324 1127 292 1114 q 398 1147 357 1140 q 486 1153 439 1154 q 582 1139 533 1151 q 621 1143 600 1143 q 647 1136 639 1143 q 656 1120 656 1129 q 647 1104 656 1111 q 621 1097 638 1097 q 580 1073 600 1097 q 542 1010 560 1049 q 509 924 525 971 q 481 831 493 876 q 459 748 468 786 q 446 690 450 710 q 618 774 540 718 q 751 907 696 829 q 840 1125 819 1006 q 842 1140 842 1135 q 844 1147 843 1144 q 850 1149 846 1149 q 864 1149 854 1149 q 926 1131 900 1150 q 954 1093 951 1113 q 935 992 961 1044 q 865 888 910 939 q 713 753 797 811 q 540 668 628 696 q 658 627 607 657 q 740 552 708 597 q 786 450 772 507 q 792 329 800 393 q 772 224 785 275 q 752 133 760 172 q 747 71 744 94 q 775 47 750 47 q 817 65 796 47 q 856 107 838 82 q 890 158 875 132 q 913 201 904 185 q 999 418 967 304 l 1038 418 z "},"L":{"ha":600,"x_min":4,"x_max":740,"o":"m 735 -39 q 740 -74 739 -57 q 734 -105 740 -92 q 713 -125 728 -118 q 675 -129 699 -132 q 594 -106 646 -125 q 490 -62 543 -86 q 391 -19 436 -39 q 329 4 346 0 q 297 -6 317 -1 q 260 -9 278 -10 q 228 1 242 -8 q 218 32 215 11 q 122 24 168 39 q 75 0 97 15 q 38 -37 53 -15 q 21 -50 26 -56 q 13 -32 15 -44 q 7 -6 10 -19 q 6 19 4 7 q 19 44 8 32 q 51 65 29 56 q 135 90 88 82 q 224 92 182 97 q 260 374 239 233 q 313 653 281 515 q 337 746 324 699 q 367 839 350 793 q 275 820 318 824 q 203 825 232 817 q 167 842 179 832 q 151 865 156 853 q 148 890 147 876 q 150 915 149 903 q 156 934 151 928 q 175 925 160 940 q 219 893 193 906 q 276 876 246 881 q 335 875 306 871 q 388 892 364 879 q 460 1026 419 967 q 554 1117 501 1085 q 651 1143 599 1143 q 710 1115 697 1143 q 704 1050 724 1086 q 624 958 676 994 q 518 896 572 921 q 474 748 494 825 q 439 596 454 671 q 411 459 424 525 q 389 328 399 393 q 371 198 379 264 q 354 60 363 132 q 454 21 399 44 q 562 -21 510 -3 q 654 -46 614 -39 q 708 -33 694 -53 q 726 -22 721 -17 q 735 -39 732 -28 m 663 1103 q 621 1085 640 1103 q 585 1044 601 1068 q 558 994 569 1019 q 539 950 546 968 q 614 999 579 971 q 669 1068 649 1026 q 678 1090 675 1078 q 663 1103 681 1103 z "},"M":{"ha":1285,"x_min":6,"x_max":1343,"o":"m 1343 418 q 1307 308 1328 363 q 1261 201 1286 253 q 1228 139 1249 174 q 1181 73 1207 104 q 1124 20 1156 42 q 1058 -1 1093 -1 q 973 22 1006 -1 q 922 82 940 46 q 896 163 903 118 q 888 249 889 207 q 898 456 883 346 q 935 661 913 565 q 963 769 947 711 q 1001 885 979 828 q 1052 994 1024 943 q 1117 1083 1081 1046 q 1002 1006 1053 1057 q 911 899 951 954 q 839 778 878 851 q 765 624 800 706 q 701 464 729 543 q 657 325 672 385 q 640 310 654 315 q 610 310 625 306 q 587 334 596 315 q 585 390 578 353 q 609 517 597 450 q 631 653 621 585 q 644 787 640 721 q 646 910 649 853 q 644 954 646 924 q 638 1016 643 985 q 621 1071 632 1047 q 589 1094 610 1094 q 543 1070 558 1094 q 518 1019 528 1046 q 494 940 506 986 q 470 840 482 894 q 447 726 458 786 q 422 603 435 665 q 371 385 399 493 q 305 192 343 278 q 217 52 267 106 q 99 -1 167 -1 q 34 31 63 -1 q 6 107 6 63 q 11 124 6 118 q 24 130 17 129 q 37 126 31 131 q 44 111 43 121 q 61 63 47 85 q 100 39 75 40 q 163 85 136 36 q 213 214 190 133 q 254 397 235 294 q 297 606 274 499 q 334 764 314 686 q 379 909 354 842 q 435 1029 404 976 q 507 1113 467 1082 q 397 1078 447 1108 q 326 994 346 1049 q 313 978 319 975 q 300 993 307 982 q 288 1016 293 1004 q 281 1040 282 1028 q 286 1067 279 1053 q 313 1097 293 1081 q 391 1137 340 1121 q 507 1154 442 1153 q 608 1139 571 1154 q 667 1093 646 1124 q 694 1017 688 1063 q 704 911 701 971 q 705 730 710 828 q 689 536 700 632 q 769 728 725 632 q 871 910 813 825 q 947 1002 906 960 q 1035 1076 988 1044 q 1138 1125 1082 1107 q 1257 1143 1193 1143 q 1283 1136 1275 1143 q 1292 1120 1292 1129 q 1283 1104 1292 1111 q 1257 1097 1274 1097 q 1216 1072 1236 1097 q 1178 1008 1196 1047 q 1145 922 1161 969 q 1117 829 1129 875 q 1095 745 1104 783 q 1082 686 1086 707 q 1035 467 1058 582 q 1000 246 1011 351 q 995 190 997 225 q 999 124 993 156 q 1019 68 1004 92 q 1064 44 1033 44 q 1113 62 1089 44 q 1156 104 1136 79 q 1193 156 1176 129 q 1219 201 1210 182 q 1268 307 1246 253 q 1306 418 1290 361 l 1343 418 z "},"N":{"ha":1100,"x_min":6,"x_max":1003,"o":"m 956 1219 q 991 1058 979 1153 q 1003 853 1003 963 q 988 581 1003 719 q 943 324 972 443 q 919 237 935 292 q 877 129 903 182 q 817 38 851 76 q 739 -1 782 -1 q 680 36 703 -1 q 643 132 657 74 q 623 260 629 190 q 615 397 617 331 q 613 516 613 463 q 614 593 614 569 q 617 749 614 663 q 621 913 621 836 q 613 1042 621 990 q 581 1094 604 1094 q 541 1070 554 1094 q 518 1019 528 1046 q 494 940 506 986 q 470 839 482 893 q 447 724 458 785 q 422 601 435 664 q 371 384 399 492 q 305 191 343 276 q 217 52 267 106 q 99 -1 167 -1 q 34 31 63 -1 q 6 107 6 63 q 11 124 6 118 q 24 130 17 129 q 37 126 31 131 q 44 111 43 121 q 61 63 47 85 q 100 39 75 40 q 163 85 136 36 q 211 213 189 133 q 253 394 233 292 q 296 603 272 496 q 333 761 314 683 q 377 906 353 839 q 432 1027 401 974 q 503 1113 463 1081 q 394 1078 443 1107 q 326 994 346 1049 q 313 978 319 975 q 300 993 307 982 q 288 1016 293 1004 q 281 1040 282 1028 q 286 1067 279 1053 q 313 1097 293 1081 q 396 1138 340 1121 q 519 1154 451 1154 q 599 1141 567 1154 q 651 1103 631 1128 q 681 1041 671 1078 q 696 957 692 1004 q 701 860 700 910 q 701 762 701 810 q 699 673 700 714 q 696 603 697 632 q 695 542 696 589 q 695 432 694 494 q 699 300 696 369 q 708 173 703 231 q 724 77 714 115 q 749 39 733 39 q 801 75 775 39 q 847 160 826 111 q 883 257 868 208 q 904 332 897 306 q 949 586 933 450 q 964 853 964 722 q 940 1046 964 960 q 888 1188 915 1132 q 892 1205 883 1196 q 915 1220 901 1214 q 940 1227 928 1226 q 956 1219 953 1228 z "},"O":{"ha":889,"x_min":-3,"x_max":813,"o":"m 665 1001 q 757 902 725 965 q 801 766 789 839 q 809 617 813 693 q 793 482 806 542 q 735 292 774 383 q 640 133 696 201 q 532 35 592 74 q 399 -3 472 -3 q 294 21 338 -3 q 220 83 250 44 q 172 173 190 122 q 146 278 154 224 q 137 386 138 332 q 142 486 136 440 q 169 631 150 560 q 215 772 188 703 q 127 818 169 786 q 55 892 85 850 q 11 984 25 935 q 8 1083 -3 1033 q 22 1119 13 1107 q 44 1138 32 1132 q 70 1144 57 1143 q 96 1144 83 1144 q 115 1141 108 1144 q 107 1121 122 1138 q 67 1030 71 1079 q 85 935 64 981 q 144 856 106 890 q 231 808 183 821 q 299 935 260 875 q 384 1042 338 996 q 483 1116 431 1089 q 593 1143 536 1143 q 660 1117 638 1143 q 676 1047 683 1092 q 665 1001 675 1026 m 599 1096 q 535 1072 567 1096 q 474 1006 503 1047 q 418 912 444 965 q 369 801 392 858 q 510 867 444 817 q 614 983 576 917 q 583 992 599 990 q 553 996 568 994 q 540 1003 544 996 q 535 1017 535 1010 q 540 1031 535 1025 q 554 1036 544 1036 q 629 1019 593 1033 q 638 1053 635 1036 q 631 1086 640 1076 q 599 1096 622 1096 m 754 490 q 769 611 765 543 q 764 747 774 679 q 727 873 754 814 q 649 965 700 932 q 594 890 626 925 q 524 828 563 856 q 442 783 486 801 q 353 760 399 765 q 309 627 328 696 q 279 488 290 558 q 272 419 275 463 q 269 327 269 376 q 275 228 269 278 q 295 137 281 178 q 335 70 310 96 q 399 44 360 44 q 517 76 465 46 q 610 158 569 107 q 699 309 663 222 q 754 490 735 396 z "},"P":{"ha":893,"x_min":6,"x_max":881,"o":"m 526 1154 q 660 1136 594 1154 q 775 1079 725 1118 q 853 981 825 1040 q 875 842 881 922 q 840 722 871 779 q 752 622 810 665 q 609 552 694 578 q 410 526 524 526 q 397 469 403 499 q 385 413 390 439 q 375 369 379 388 q 369 347 371 351 q 333 224 356 286 q 278 113 311 163 q 200 31 244 63 q 99 -1 156 -1 q 34 31 63 -1 q 6 107 6 63 q 11 124 6 118 q 24 130 17 129 q 37 126 31 131 q 44 111 43 121 q 61 63 47 85 q 100 39 75 40 q 145 56 125 38 q 181 102 165 74 q 206 167 196 131 q 224 238 217 203 q 235 301 231 272 q 242 347 239 331 q 268 506 254 425 q 299 661 282 586 q 331 771 310 707 q 383 899 353 835 q 452 1021 414 964 q 536 1110 490 1078 q 458 1099 499 1107 q 381 1077 417 1092 q 320 1042 346 1063 q 285 994 294 1021 q 272 978 278 975 q 258 993 265 982 q 246 1016 251 1004 q 239 1040 240 1028 q 244 1067 238 1053 q 271 1097 251 1081 q 310 1119 285 1108 q 371 1137 336 1129 q 445 1149 406 1144 q 526 1154 485 1154 m 742 847 q 743 922 747 879 q 724 1003 739 965 q 681 1069 708 1042 q 614 1096 654 1096 q 574 1067 594 1096 q 536 994 554 1039 q 501 895 518 950 q 471 789 485 840 q 443 678 456 733 q 418 568 431 624 q 545 596 489 571 q 642 660 601 621 q 708 748 683 699 q 742 847 733 797 z "},"Q":{"ha":886,"x_min":3,"x_max":810,"o":"m 638 133 q 533 38 590 75 q 400 -3 475 0 q 468 -44 431 -21 q 546 -86 506 -68 q 626 -112 586 -104 q 704 -108 667 -121 q 725 -108 717 -104 q 737 -119 733 -112 q 736 -133 740 -125 q 719 -144 732 -140 q 638 -156 678 -158 q 557 -139 597 -153 q 476 -103 517 -125 q 396 -57 436 -81 q 285 5 340 -24 q 174 40 229 33 q 108 37 133 44 q 72 14 83 29 q 64 -22 60 -3 q 82 -56 68 -40 q 135 -85 100 -75 q 222 -85 169 -94 q 238 -89 232 -83 q 245 -101 244 -94 q 242 -115 246 -108 q 231 -124 239 -122 q 122 -121 167 -135 q 53 -82 78 -107 q 24 -23 29 -57 q 42 39 19 11 q 92 80 58 63 q 179 90 126 97 q 197 88 188 89 q 214 83 206 86 q 169 169 186 121 q 143 272 151 218 q 135 380 135 325 q 139 486 135 435 q 165 631 146 561 q 213 772 185 701 q 88 850 140 796 q 17 978 36 904 q 6 1031 10 1001 q 8 1083 3 1060 q 22 1119 13 1107 q 43 1138 32 1132 q 67 1144 54 1143 q 93 1144 81 1144 q 113 1141 106 1144 q 104 1121 119 1138 q 67 1050 78 1090 q 68 971 56 1010 q 128 869 86 911 q 228 808 169 826 q 296 935 257 875 q 381 1042 335 996 q 481 1116 428 1089 q 590 1143 533 1143 q 658 1117 635 1143 q 674 1047 681 1092 q 663 1001 672 1026 q 754 902 722 965 q 798 766 786 839 q 806 617 810 693 q 790 482 803 542 q 732 292 771 383 q 638 133 693 201 m 596 1096 q 532 1072 564 1096 q 471 1006 500 1047 q 415 912 442 965 q 367 801 389 858 q 508 867 442 817 q 611 983 574 917 q 581 992 596 990 q 550 996 565 994 q 537 1003 542 996 q 532 1017 532 1010 q 537 1031 532 1025 q 551 1036 542 1036 q 626 1019 590 1033 q 635 1053 632 1036 q 628 1086 638 1076 q 596 1096 619 1096 m 392 44 q 513 76 458 46 q 607 158 567 107 q 696 309 660 222 q 751 490 732 396 q 767 611 763 543 q 761 747 771 679 q 724 873 751 814 q 646 965 697 932 q 592 890 624 925 q 522 828 560 856 q 440 783 483 801 q 350 760 396 765 q 307 628 328 696 q 276 486 286 561 q 268 392 271 442 q 267 294 265 343 q 275 199 268 244 q 297 120 282 154 q 334 65 311 86 q 392 44 357 44 z "},"R":{"ha":957,"x_min":6,"x_max":1015,"o":"m 1015 418 q 978 308 1000 363 q 932 201 957 253 q 900 141 919 176 q 856 74 881 106 q 801 21 831 43 q 738 -1 771 -1 q 663 28 688 -1 q 631 110 639 58 q 628 233 624 163 q 639 386 632 304 q 632 477 643 432 q 595 558 621 522 q 528 615 569 593 q 433 638 488 638 q 403 501 417 563 q 392 449 397 475 q 381 402 386 424 q 374 366 376 381 q 369 347 371 351 q 333 224 356 286 q 278 113 311 163 q 200 31 244 63 q 99 -1 156 -1 q 34 31 63 -1 q 6 107 6 63 q 11 124 6 118 q 24 130 17 129 q 37 126 31 131 q 44 111 43 121 q 61 63 47 85 q 100 39 75 40 q 145 56 125 38 q 181 102 165 74 q 206 167 196 131 q 224 238 217 203 q 235 301 231 272 q 242 347 239 331 q 268 506 254 425 q 299 661 282 586 q 331 771 310 707 q 383 899 353 835 q 452 1021 414 964 q 536 1110 490 1078 q 458 1099 499 1107 q 381 1077 417 1092 q 320 1042 346 1063 q 285 994 294 1021 q 272 978 278 975 q 258 993 265 982 q 246 1016 251 1004 q 239 1040 240 1028 q 244 1067 238 1053 q 271 1097 251 1081 q 310 1119 285 1108 q 371 1137 336 1129 q 445 1149 406 1144 q 526 1154 485 1154 q 668 1135 606 1154 q 773 1086 731 1117 q 836 1016 815 1056 q 854 935 857 976 q 831 851 851 894 q 769 769 810 807 q 669 704 729 732 q 531 667 610 676 q 624 642 581 665 q 701 581 668 619 q 754 494 735 543 q 774 393 774 444 q 760 268 774 331 q 735 157 746 206 q 724 78 724 108 q 753 47 725 47 q 794 65 774 47 q 834 107 815 82 q 867 158 853 132 q 890 201 882 185 q 976 418 944 304 l 1015 418 m 614 1096 q 581 1076 597 1096 q 548 1022 564 1056 q 517 947 532 989 q 490 859 503 904 q 465 770 476 814 q 446 692 454 726 q 562 724 511 700 q 649 781 613 747 q 707 853 686 814 q 732 929 728 892 q 728 992 736 963 q 703 1045 719 1022 q 663 1082 686 1068 q 614 1096 640 1096 z "},"S":{"ha":792,"x_min":-4,"x_max":851,"o":"m 851 421 q 837 374 844 397 q 821 326 829 350 q 723 164 788 235 q 571 53 658 93 q 410 -1 485 14 q 256 -14 335 -17 q 178 0 215 -12 q 108 34 140 13 q 51 86 75 56 q 15 156 28 117 q 14 290 -4 222 q 82 403 32 357 q 101 413 92 413 q 115 407 111 413 q 118 392 119 401 q 107 372 117 382 q 51 276 65 332 q 53 167 38 221 q 85 104 64 129 q 135 65 107 79 q 197 44 164 50 q 267 39 231 39 q 340 55 306 39 q 401 97 374 71 q 447 159 428 124 q 476 232 467 194 q 483 325 490 286 q 452 395 475 364 q 395 455 429 426 q 324 517 361 483 q 237 599 279 556 q 166 697 194 643 q 131 815 138 750 q 151 963 124 881 q 244 1092 178 1042 q 415 1143 311 1143 q 515 1112 478 1143 q 565 1036 551 1081 q 621 1031 597 1036 q 637 1020 633 1028 q 638 1006 640 1013 q 628 994 636 999 q 610 992 621 989 q 574 996 593 996 q 576 947 576 972 q 569 899 575 922 q 549 857 563 876 q 513 825 535 838 q 472 814 493 815 q 434 819 451 813 q 404 842 417 826 q 388 881 392 857 q 392 936 382 911 q 423 981 403 961 q 469 1013 443 1000 q 522 1031 496 1025 q 487 1078 511 1060 q 419 1096 463 1096 q 330 1058 375 1096 q 261 961 285 1021 q 244 847 238 897 q 278 756 251 797 q 346 678 306 714 q 431 606 386 642 q 519 528 478 567 q 585 445 560 489 q 620 350 611 401 q 614 232 629 299 q 518 74 592 136 q 677 172 607 107 q 782 326 747 238 q 799 374 790 350 q 814 421 807 397 l 851 421 m 533 993 q 494 980 514 989 q 457 958 474 971 q 431 926 440 944 q 425 886 421 908 q 451 853 431 858 q 494 860 472 849 q 520 884 511 868 q 533 919 529 900 q 535 957 536 938 q 533 993 535 976 z "},"T":{"ha":596,"x_min":3,"x_max":1010,"o":"m 974 1244 q 989 1249 981 1250 q 1002 1243 997 1249 q 1008 1231 1007 1238 q 1004 1218 1010 1224 q 922 1166 967 1183 q 828 1141 876 1149 q 729 1133 779 1133 q 632 1129 679 1132 q 590 1096 610 1124 q 551 1026 569 1068 q 518 935 533 985 q 490 838 503 886 q 467 747 476 789 q 451 681 457 706 q 385 355 411 524 q 340 25 360 186 q 317 2 339 11 q 269 -8 294 -7 q 224 -1 244 -8 q 208 25 204 6 q 245 340 222 183 q 304 653 268 497 q 340 786 318 715 q 392 923 363 857 q 456 1044 421 989 q 532 1131 490 1099 q 443 1133 492 1131 q 346 1132 394 1135 q 251 1119 297 1129 q 169 1086 206 1108 q 108 1026 132 1064 q 82 931 85 989 q 69 906 81 914 q 43 899 57 899 q 17 906 29 899 q 6 929 6 914 q 49 1075 3 1022 q 170 1153 94 1128 q 342 1182 246 1178 q 535 1185 438 1186 q 573 1183 554 1183 q 611 1183 592 1183 q 635 1185 624 1185 q 660 1182 647 1185 q 755 1183 710 1182 q 840 1190 800 1185 q 915 1208 881 1196 q 974 1244 949 1221 z "},"U":{"ha":954,"x_min":3,"x_max":1014,"o":"m 1014 418 q 978 308 999 363 q 932 201 957 253 q 898 139 918 174 q 851 73 878 104 q 794 20 825 42 q 728 -1 763 -1 q 647 19 679 -1 q 597 74 615 40 q 569 147 578 107 q 558 226 561 188 q 493 125 532 168 q 413 53 454 82 q 331 10 371 25 q 263 -4 292 -4 q 178 24 217 -4 q 111 103 139 51 q 70 227 83 154 q 65 389 57 300 q 95 597 74 486 q 149 810 117 708 q 222 992 182 911 q 304 1108 261 1072 q 227 1113 267 1117 q 152 1095 188 1110 q 90 1055 117 1081 q 50 994 63 1029 q 37 978 43 975 q 24 993 31 982 q 11 1016 17 1004 q 4 1040 6 1028 q 10 1067 3 1053 q 36 1097 17 1081 q 89 1128 56 1114 q 164 1149 122 1142 q 254 1153 206 1156 q 353 1138 303 1151 q 389 1143 368 1143 q 414 1135 407 1143 q 419 1119 421 1128 q 409 1102 418 1110 q 383 1094 400 1094 q 346 1061 365 1094 q 307 972 326 1028 q 269 842 288 915 q 235 691 251 769 q 206 533 218 613 q 185 386 193 454 q 194 131 164 215 q 281 44 225 46 q 342 63 306 44 q 417 115 378 81 q 492 199 456 149 q 557 314 529 249 q 573 491 560 401 q 606 661 586 581 q 635 778 619 717 q 665 900 650 840 q 698 1015 681 960 q 733 1113 715 1069 q 763 1133 739 1125 q 812 1142 786 1140 q 856 1137 838 1143 q 869 1113 875 1131 q 808 899 839 1003 q 751 686 778 796 q 704 467 728 582 q 669 246 681 351 q 665 190 667 225 q 669 124 664 156 q 690 68 675 92 q 735 44 704 44 q 782 62 758 44 q 826 104 806 79 q 863 156 847 129 q 889 201 879 182 q 938 307 917 253 q 976 418 960 361 l 1014 418 z "},"V":{"ha":801,"x_min":4,"x_max":844,"o":"m 815 1208 q 838 1142 831 1181 q 842 1072 844 1104 q 813 888 836 981 q 761 707 790 794 q 692 524 731 614 q 613 353 654 433 q 530 208 572 274 q 450 99 488 142 q 365 21 408 46 q 282 -4 322 -4 q 202 23 235 -4 q 149 94 169 50 q 119 194 129 139 q 104 305 108 250 q 101 409 100 360 q 104 490 101 458 q 126 674 110 579 q 169 853 143 768 q 227 1005 194 938 q 300 1108 260 1072 q 223 1113 263 1117 q 149 1095 183 1110 q 90 1055 115 1081 q 56 994 65 1029 q 43 978 50 975 q 29 993 36 982 q 15 1016 22 1004 q 6 1040 8 1028 q 10 1067 4 1053 q 33 1097 15 1081 q 83 1128 51 1114 q 157 1149 115 1142 q 247 1153 199 1156 q 346 1138 294 1151 q 382 1143 363 1143 q 408 1135 400 1143 q 416 1119 417 1128 q 406 1102 415 1110 q 381 1094 397 1094 q 347 1067 364 1094 q 315 995 331 1040 q 286 890 300 950 q 260 762 272 829 q 240 624 249 694 q 225 490 231 554 q 220 431 224 471 q 215 341 217 390 q 216 239 214 292 q 227 143 218 186 q 253 72 236 100 q 300 44 271 44 q 410 113 353 44 q 508 248 463 174 q 594 401 554 322 q 667 562 633 481 q 725 719 700 643 q 774 892 753 803 q 803 1069 796 982 q 781 1160 806 1125 q 711 1213 756 1194 q 697 1228 692 1221 q 714 1239 703 1235 q 739 1247 726 1243 q 765 1250 751 1251 q 790 1240 778 1249 q 815 1208 803 1231 z "},"W":{"ha":1186,"x_min":4,"x_max":1211,"o":"m 1182 1208 q 1204 1142 1197 1181 q 1208 1072 1211 1104 q 1180 888 1203 981 q 1129 707 1157 794 q 1059 524 1097 614 q 980 353 1021 433 q 897 208 939 274 q 817 99 854 142 q 732 21 775 46 q 649 -4 689 -4 q 540 58 579 -6 q 489 231 500 121 q 451 158 472 199 q 403 81 431 117 q 342 20 376 44 q 264 -4 307 -4 q 172 24 213 -4 q 106 103 132 51 q 69 227 81 154 q 67 389 58 300 q 97 597 75 486 q 151 810 118 708 q 223 992 183 911 q 306 1108 263 1072 q 228 1113 268 1117 q 153 1095 189 1110 q 91 1055 118 1081 q 51 994 64 1029 q 38 978 44 975 q 25 993 32 982 q 13 1016 18 1004 q 6 1040 7 1028 q 11 1067 4 1053 q 38 1097 18 1081 q 90 1128 57 1114 q 165 1149 124 1142 q 256 1153 207 1156 q 354 1138 304 1151 q 390 1143 369 1143 q 415 1135 408 1143 q 421 1119 422 1128 q 410 1102 419 1110 q 385 1094 401 1094 q 347 1061 367 1094 q 308 972 328 1028 q 271 842 289 915 q 236 691 253 769 q 207 533 219 613 q 186 386 194 454 q 196 131 165 215 q 282 44 226 46 q 481 307 376 44 q 490 410 482 351 q 511 531 499 469 q 540 648 524 592 q 571 743 556 704 q 597 763 575 756 q 641 772 618 771 q 681 767 664 774 q 693 743 697 761 q 639 533 667 640 q 599 321 611 425 q 602 114 588 182 q 668 44 617 46 q 778 113 718 44 q 876 248 829 174 q 962 401 922 322 q 1034 562 1001 481 q 1092 719 1067 643 q 1142 892 1119 803 q 1169 1069 1164 982 q 1149 1160 1174 1125 q 1079 1213 1124 1194 q 1065 1228 1058 1221 q 1082 1239 1071 1235 q 1107 1247 1094 1243 q 1132 1250 1119 1251 q 1157 1240 1144 1249 q 1182 1208 1169 1231 z "},"X":{"ha":707,"x_min":4,"x_max":767,"o":"m 767 421 q 730 311 751 367 q 683 204 708 256 q 651 142 671 178 q 604 76 631 107 q 547 23 578 44 q 481 1 515 1 q 398 26 431 1 q 347 95 365 51 q 321 199 328 139 q 314 326 314 258 q 326 524 317 422 q 206 414 263 469 q 110 299 149 358 q 59 175 72 239 q 69 40 46 111 q 67 27 72 33 q 56 19 63 21 q 42 18 49 17 q 33 26 35 19 q 20 185 4 111 q 81 327 36 260 q 193 456 126 394 q 332 579 260 518 q 340 640 333 596 q 352 742 346 685 q 360 863 358 800 q 357 977 363 925 q 335 1063 351 1029 q 285 1097 318 1097 q 238 1080 261 1097 q 193 1038 214 1063 q 156 985 172 1013 q 131 940 140 958 q 81 835 103 889 q 43 724 60 781 l 6 724 q 42 834 21 779 q 88 940 63 889 q 122 1002 101 967 q 167 1069 142 1038 q 224 1122 193 1100 q 292 1143 256 1143 q 374 1120 340 1143 q 427 1060 407 1097 q 458 975 447 1022 q 472 878 468 928 q 475 783 476 829 q 472 701 474 736 q 572 801 528 751 q 639 905 615 851 q 662 1015 663 958 q 626 1135 661 1072 q 624 1153 621 1144 q 633 1165 626 1161 q 647 1166 639 1168 q 661 1154 656 1164 q 703 1009 703 1076 q 672 880 703 942 q 588 760 642 818 q 469 646 535 703 q 450 483 463 565 q 429 322 438 401 q 422 213 424 263 q 425 126 419 163 q 444 69 431 89 q 486 49 458 49 q 535 66 511 49 q 578 108 558 83 q 615 158 599 132 q 642 204 632 185 q 690 310 668 257 q 728 421 713 364 l 767 421 z "},"Y":{"ha":949,"x_min":4,"x_max":1008,"o":"m 1008 421 q 995 377 1003 401 q 978 326 988 353 q 958 272 968 299 q 935 224 947 246 q 834 100 894 149 q 697 15 774 51 q 652 -126 679 -51 q 587 -262 625 -200 q 498 -364 549 -324 q 382 -404 447 -404 q 319 -381 339 -404 q 296 -325 299 -358 q 302 -256 293 -292 q 326 -193 311 -219 q 381 -118 353 -147 q 438 -68 410 -89 q 494 -33 465 -47 q 551 -3 522 -18 q 578 110 565 54 q 603 225 592 167 q 567 152 588 192 q 518 78 546 113 q 456 21 490 44 q 379 -3 421 -3 q 265 25 310 -3 q 192 99 219 53 q 150 203 164 144 q 132 325 136 263 q 131 444 128 376 q 144 588 135 513 q 169 742 154 664 q 206 890 185 819 q 255 1017 228 960 q 315 1108 282 1074 q 237 1112 278 1115 q 158 1094 196 1108 q 92 1054 121 1079 q 51 994 64 1029 q 38 978 44 975 q 25 993 32 982 q 13 1016 18 1004 q 6 1040 7 1028 q 11 1067 4 1053 q 38 1097 18 1081 q 90 1128 57 1114 q 165 1149 124 1142 q 256 1153 207 1156 q 354 1138 304 1151 q 390 1143 369 1143 q 415 1135 408 1143 q 421 1119 422 1128 q 410 1102 419 1110 q 385 1094 401 1094 q 351 1047 367 1094 q 320 924 335 999 q 294 758 306 849 q 273 583 282 668 q 259 428 264 497 q 254 328 254 360 q 259 224 254 275 q 278 133 264 174 q 316 69 292 93 q 381 44 340 44 q 437 60 411 44 q 483 99 463 75 q 521 149 504 122 q 550 201 538 176 q 628 389 596 292 q 677 755 651 571 q 739 1113 703 939 q 765 1133 742 1125 q 813 1142 788 1140 q 858 1137 839 1143 q 875 1113 878 1131 q 814 694 843 903 q 751 278 785 486 q 710 65 735 171 q 817 138 768 94 q 899 236 865 181 q 940 332 922 279 q 969 421 958 385 l 1008 421 m 378 -357 q 426 -329 403 -357 q 469 -258 449 -301 q 506 -162 489 -215 q 538 -56 524 -108 q 503 -74 525 -62 q 458 -105 482 -86 q 408 -149 433 -124 q 363 -208 383 -175 q 344 -247 354 -222 q 333 -297 335 -272 q 340 -339 331 -321 q 378 -357 349 -357 z "},"Z":{"ha":806,"x_min":51,"x_max":868,"o":"m 868 421 q 851 377 861 401 q 831 326 842 353 q 806 272 819 299 q 779 224 793 246 q 732 156 756 186 q 681 101 708 126 q 622 56 654 76 q 550 18 589 36 q 490 -124 526 -49 q 407 -261 454 -199 q 303 -365 360 -324 q 181 -406 246 -406 q 119 -383 138 -406 q 101 -326 101 -360 q 113 -257 100 -293 q 142 -194 125 -221 q 205 -119 172 -149 q 270 -67 238 -89 q 335 -30 303 -46 q 397 1 367 -14 q 428 115 413 49 q 456 249 444 181 q 472 380 468 317 q 465 488 475 443 q 436 540 458 519 q 383 563 414 560 q 360 563 376 563 q 332 565 344 563 q 318 577 319 568 q 338 606 317 586 q 390 674 363 628 q 439 777 417 721 q 474 892 461 833 q 483 997 486 950 q 454 1072 479 1044 q 376 1096 429 1100 q 331 1087 354 1094 q 282 1062 307 1079 q 230 1015 257 1044 q 176 940 203 986 q 148 887 160 913 q 128 835 136 861 q 119 781 121 810 q 118 715 117 751 q 63 742 74 715 q 59 805 51 768 q 85 879 67 842 q 117 940 104 917 q 187 1038 149 997 q 265 1103 225 1078 q 343 1140 304 1129 q 415 1151 382 1151 q 492 1136 456 1151 q 553 1092 528 1121 q 593 1021 579 1063 q 603 926 607 979 q 550 767 596 851 q 408 594 504 682 q 572 532 524 588 q 621 392 621 476 q 606 233 621 317 q 567 71 592 150 q 666 142 626 104 q 743 236 706 181 q 795 332 772 279 q 831 421 818 385 l 868 421 m 181 -358 q 233 -330 206 -358 q 286 -257 260 -301 q 337 -158 313 -212 q 379 -51 361 -104 q 341 -71 365 -58 q 288 -103 317 -83 q 229 -150 258 -124 q 176 -210 200 -176 q 156 -249 167 -224 q 140 -298 144 -274 q 144 -340 136 -322 q 181 -358 151 -358 z "},"":{"ha":1138,"x_min":-19,"x_max":1124,"o":"m 464 235 q 460 158 460 194 q 483 86 461 122 q 535 26 503 54 q 610 -24 567 -3 q 685 61 640 17 q 781 143 729 106 q 889 205 833 181 q 999 229 944 229 q 1060 217 1032 229 q 1103 184 1088 206 q 1122 133 1119 163 q 1107 71 1124 104 q 1019 -32 1076 7 q 892 -90 961 -71 q 749 -107 822 -108 q 614 -89 676 -106 q 539 -235 568 -158 q 499 -396 510 -312 q 492 -407 497 -404 q 483 -408 488 -410 q 474 -403 478 -407 q 471 -393 469 -400 q 507 -225 482 -303 q 575 -76 532 -147 q 411 40 471 -37 q 365 126 381 81 q 343 225 349 172 q 310 145 329 185 q 267 74 290 106 q 213 22 243 42 q 149 1 183 1 q 48 40 85 1 q -4 138 11 79 q -17 263 -19 196 q 0 388 -15 331 q 45 510 17 447 q 113 625 74 574 q 203 709 153 676 q 315 742 254 742 q 375 714 356 742 q 403 646 394 686 q 413 687 408 669 q 421 717 417 704 q 449 737 425 729 q 500 746 474 744 q 547 740 526 747 q 561 715 567 733 q 536 600 549 654 q 511 492 524 546 q 483 364 496 426 q 464 235 471 301 m 379 533 q 378 589 381 560 q 367 641 375 618 q 348 679 360 664 q 318 694 336 694 q 271 673 294 694 q 226 617 247 651 q 188 543 206 583 q 156 465 169 503 q 133 398 142 428 q 121 357 124 368 q 111 318 117 346 q 101 256 106 290 q 97 185 97 222 q 101 118 96 149 q 121 68 107 88 q 161 49 135 49 q 224 84 194 49 q 277 168 253 119 q 319 269 301 217 q 347 353 336 321 q 362 443 354 399 q 379 533 369 488 m 1072 89 q 1072 165 1097 140 q 997 190 1046 190 q 899 167 949 190 q 802 110 849 144 q 716 35 756 75 q 649 -40 676 -6 q 763 -60 700 -58 q 885 -46 825 -61 q 997 3 946 -31 q 1072 89 1047 36 z "},"":{"ha":692,"x_min":-736,"x_max":750,"o":"m 215 49 q 266 81 240 49 q 314 161 292 113 q 242 151 278 163 q 190 107 206 139 q 186 69 182 90 q 215 49 190 49 m 200 653 q 258 717 225 693 q 331 742 290 742 q 424 708 388 742 q 481 626 461 675 q 507 521 501 578 q 508 417 513 464 q 490 293 503 349 q 446 178 476 238 q 492 170 467 172 q 541 171 517 168 q 588 183 565 174 q 624 211 610 193 q 653 260 639 232 q 678 316 667 288 q 697 372 689 344 q 713 421 706 400 l 750 421 q 733 365 743 397 q 711 300 724 333 q 684 236 699 267 q 653 188 669 206 q 604 150 632 163 q 547 135 576 138 q 485 135 517 132 q 426 144 454 139 q 390 92 411 118 q 344 47 369 67 q 288 14 318 26 q 224 1 257 1 q 183 13 200 1 q 156 43 165 25 q 147 83 147 61 q 157 126 146 106 q 229 188 179 172 q 329 197 279 203 q 362 306 350 253 q 381 419 374 360 q 388 492 383 446 q 391 582 393 538 q 374 659 389 626 q 325 692 360 692 q 274 667 300 692 q 224 608 247 642 q 185 541 201 575 q 163 488 168 507 q 142 390 151 447 q 124 269 132 332 q 110 144 117 206 q 97 33 103 82 q 72 10 96 19 q 22 1 49 1 q -27 7 -6 0 q -44 33 -49 14 q -18 256 -33 150 q 14 474 -3 361 q 29 560 19 511 q 51 663 39 610 q 79 770 64 717 q 111 868 94 824 q -103 899 8 869 q -324 958 -214 928 q -537 1004 -435 988 q -725 999 -640 1021 q -735 1016 -733 996 q -725 1061 -736 1036 q -685 1107 -714 1086 q -601 1128 -656 1128 q -504 1112 -558 1128 q -389 1072 -450 1096 q -262 1020 -328 1049 q -131 968 -197 992 q 2 928 -64 944 q 129 913 68 913 q 175 1002 150 960 q 230 1076 200 1044 q 297 1125 260 1107 q 376 1143 333 1143 q 422 1124 407 1143 q 439 1075 438 1104 q 428 1010 440 1046 q 392 944 417 975 q 330 891 367 914 q 246 864 293 868 l 200 653 m 260 910 q 335 947 304 917 q 381 1010 365 976 q 397 1069 396 1043 q 383 1096 397 1096 q 347 1081 364 1096 q 315 1041 331 1067 q 286 981 300 1015 q 260 910 272 947 z "},"":{"ha":740,"x_min":-396,"x_max":800,"o":"m 343 347 q 347 389 344 365 q 353 438 350 413 q 359 486 356 463 q 365 529 363 510 q 361 586 364 557 q 351 640 358 615 q 331 679 343 664 q 301 694 319 694 q 261 676 281 694 q 224 627 242 657 q 190 560 206 597 q 160 485 174 522 q 135 413 146 447 q 119 357 125 379 q 110 318 115 346 q 101 256 106 290 q 97 185 97 222 q 103 118 97 149 q 122 68 108 88 q 163 49 136 49 q 226 83 197 49 q 278 167 256 118 q 318 265 301 215 q 343 347 335 315 m 506 538 q 478 393 494 465 q 456 250 463 321 q 451 194 453 228 q 454 127 449 160 q 474 72 460 94 q 519 49 489 49 q 568 66 544 49 q 612 108 592 83 q 649 158 632 132 q 675 204 665 185 q 724 310 701 257 q 761 421 746 364 l 800 421 q 763 311 785 367 q 717 204 742 256 q 684 142 704 178 q 638 76 664 107 q 580 23 611 44 q 514 1 549 1 q 433 22 464 1 q 383 74 401 42 q 356 147 364 107 q 344 225 347 186 q 311 145 331 185 q 268 74 292 106 q 215 22 244 42 q 150 1 185 1 q 49 40 86 1 q -4 138 13 79 q -18 263 -21 196 q 0 388 -15 331 q 39 504 15 442 q 98 619 63 567 q 182 707 133 672 q 294 742 231 742 q 334 733 318 742 q 360 711 350 725 q 378 680 371 697 q 389 646 385 663 q 417 755 400 692 q 451 868 433 818 q 238 899 349 869 q 16 958 126 928 q -197 1004 -94 988 q -385 999 -300 1021 q -394 1016 -393 996 q -385 1061 -396 1036 q -344 1107 -374 1086 q -261 1128 -315 1128 q -164 1112 -218 1128 q -49 1072 -110 1096 q 78 1020 13 1049 q 210 968 143 992 q 342 928 276 944 q 469 913 408 913 q 515 1002 490 960 q 570 1076 540 1044 q 637 1125 600 1107 q 717 1143 674 1143 q 763 1124 747 1143 q 779 1075 778 1104 q 769 1010 781 1046 q 732 944 757 975 q 670 891 707 914 q 586 864 633 868 l 506 538 m 600 910 q 675 947 644 917 q 721 1010 706 976 q 737 1069 736 1043 q 724 1096 738 1096 q 688 1081 704 1096 q 656 1041 671 1067 q 626 981 640 1015 q 600 910 613 947 z "},"":{"ha":363,"x_min":-736,"x_max":440,"o":"m 169 -150 q 135 -60 156 -108 q 86 43 114 -12 q 74 -78 79 -14 q 72 -200 69 -143 q 85 -299 74 -257 q 124 -353 97 -342 q 163 -352 149 -364 q 183 -319 176 -340 q 190 -234 197 -278 q 169 -150 183 -190 m 179 586 l 100 151 q 213 174 163 154 q 303 244 264 193 q 351 328 335 286 q 383 421 368 371 l 421 421 q 388 317 406 365 q 333 222 369 269 q 228 139 288 163 q 94 114 168 115 l 94 113 q 160 -24 132 38 q 207 -139 189 -86 q 229 -234 222 -187 q 221 -331 236 -281 q 176 -395 206 -375 q 101 -394 147 -415 q 19 -326 50 -372 q -27 -222 -11 -281 q -47 -96 -43 -162 q -49 35 -51 -29 q -38 156 -46 99 q -24 254 -31 214 q 7 424 -8 338 q 38 594 22 511 q 51 658 43 624 q 69 729 60 693 q 90 801 79 765 q 111 868 100 836 q -103 899 8 869 q -324 958 -214 928 q -537 1004 -435 988 q -725 999 -640 1021 q -735 1016 -733 996 q -725 1061 -736 1036 q -685 1107 -714 1086 q -601 1128 -656 1128 q -504 1112 -558 1128 q -389 1072 -450 1096 q -262 1020 -328 1049 q -131 968 -197 992 q 2 928 -64 944 q 129 913 68 913 q 175 1002 150 960 q 230 1076 200 1044 q 297 1125 260 1107 q 376 1143 333 1143 q 422 1124 407 1143 q 439 1075 438 1104 q 428 1010 440 1046 q 392 944 417 975 q 330 891 367 914 q 246 864 293 868 l 179 586 m 260 910 q 335 947 304 917 q 381 1010 365 976 q 397 1069 396 1043 q 383 1096 397 1096 q 347 1081 364 1096 q 315 1041 331 1067 q 286 981 300 1015 q 260 910 272 947 z "},"":{"ha":663,"x_min":-19,"x_max":1215,"o":"m 372 528 q 373 587 374 557 q 367 641 372 617 q 351 680 363 665 q 321 694 340 694 q 274 673 297 694 q 228 617 250 651 q 189 543 207 583 q 157 465 171 503 q 133 398 143 428 q 121 357 124 368 q 111 318 117 346 q 101 256 106 290 q 97 185 97 222 q 101 118 96 149 q 121 68 107 88 q 161 49 135 49 q 225 83 196 49 q 278 167 254 118 q 317 265 301 215 q 342 347 333 315 q 364 444 358 400 q 372 528 369 489 m 450 72 q 431 -1 443 40 q 401 -100 419 -43 q 596 -69 496 -74 q 791 -87 696 -65 q 970 -160 886 -110 q 1117 -290 1054 -210 q 1176 -392 1153 -337 q 1208 -506 1200 -447 q 1205 -622 1215 -564 q 1164 -732 1194 -679 q 1090 -819 1135 -782 q 990 -876 1044 -856 q 878 -897 936 -896 q 764 -879 819 -899 q 649 -804 690 -853 q 590 -694 607 -756 q 578 -564 574 -632 q 601 -431 582 -496 q 616 -403 607 -411 q 632 -398 625 -396 q 642 -411 639 -400 q 639 -442 644 -422 q 617 -560 622 -499 q 625 -676 611 -621 q 676 -776 639 -732 q 778 -843 713 -819 q 878 -858 826 -860 q 976 -839 929 -857 q 1064 -789 1024 -821 q 1131 -712 1104 -757 q 1167 -612 1158 -665 q 1169 -508 1176 -560 q 1140 -406 1161 -456 q 1086 -315 1118 -357 q 942 -189 1025 -236 q 765 -122 858 -142 q 573 -110 671 -103 q 385 -146 475 -117 q 340 -244 365 -197 q 282 -327 314 -292 q 211 -383 250 -362 q 126 -404 172 -404 q 86 -387 97 -404 q 76 -345 75 -369 q 90 -296 78 -321 q 118 -254 101 -271 q 246 -160 157 -207 q 254 -133 250 -147 q 264 -101 258 -119 q 276 -56 269 -82 q 292 7 283 -29 q 317 112 304 60 q 340 217 329 164 q 308 140 326 178 q 265 71 289 101 q 212 21 240 40 q 149 1 183 1 q 48 40 85 1 q -4 138 11 79 q -17 263 -19 196 q 0 388 -15 331 q 46 510 17 447 q 115 625 75 574 q 206 709 156 676 q 318 742 257 742 q 378 714 358 742 q 406 646 397 686 q 411 685 410 671 q 415 717 413 699 q 441 739 417 731 q 492 749 465 747 q 540 742 519 750 q 557 715 561 733 q 531 520 546 618 q 499 326 517 422 q 476 199 488 264 q 450 72 464 135 m 132 -357 q 173 -324 146 -357 q 228 -215 200 -292 q 182 -247 201 -231 q 149 -279 163 -264 q 122 -334 124 -311 q 132 -357 119 -357 z "},"":{"ha":738,"x_min":-742,"x_max":799,"o":"m 186 646 q 260 714 222 686 q 351 742 299 742 q 462 716 422 742 q 519 649 501 690 q 538 555 538 607 q 528 450 538 503 q 493 310 514 382 q 460 181 472 239 q 450 85 447 122 q 489 49 453 49 q 539 66 514 49 q 586 108 564 83 q 626 160 608 133 q 656 204 644 186 q 714 311 688 257 q 760 421 740 365 l 799 421 q 753 311 779 367 q 699 206 728 256 q 660 143 683 178 q 609 76 638 108 q 547 23 581 44 q 479 1 514 1 q 376 42 404 1 q 349 149 349 83 q 367 293 349 214 q 404 450 385 372 q 419 526 413 483 q 424 606 426 568 q 406 669 422 643 q 349 694 389 694 q 276 664 311 694 q 213 590 242 633 q 166 500 185 547 q 143 419 147 453 q 138 388 140 403 q 132 337 136 374 q 119 230 128 300 q 93 33 110 160 q 67 10 90 19 q 16 1 43 1 q -32 7 -11 0 q -49 33 -53 14 q -11 316 -33 176 q 36 597 11 456 q 49 661 42 626 q 65 731 57 696 q 84 802 74 767 q 106 868 94 838 q -108 899 3 869 q -330 958 -219 928 q -543 1004 -440 988 q -731 999 -646 1021 q -740 1016 -739 996 q -731 1061 -742 1036 q -690 1107 -719 1086 q -607 1128 -661 1128 q -510 1112 -564 1128 q -394 1072 -456 1096 q -268 1020 -333 1049 q -136 968 -203 992 q -3 928 -69 944 q 124 913 63 913 q 169 1002 144 960 q 224 1076 194 1044 q 291 1125 254 1107 q 371 1143 328 1143 q 417 1124 401 1143 q 433 1075 432 1104 q 423 1010 435 1046 q 386 944 411 975 q 324 891 361 914 q 240 864 288 868 l 186 646 m 254 910 q 329 947 299 917 q 375 1010 360 976 q 391 1069 390 1043 q 378 1096 392 1096 q 342 1081 358 1096 q 310 1041 325 1067 q 281 981 294 1015 q 254 910 267 947 z "},"":{"ha":797,"x_min":-12,"x_max":769,"o":"m 50 42 q 8 126 22 75 q -10 229 -6 178 q -10 294 -12 260 q -3 362 -8 328 q 7 429 1 396 q 18 493 13 463 q 44 626 31 564 q 68 717 58 688 q 97 737 72 729 q 147 746 121 744 q 194 740 174 747 q 208 715 214 733 q 183 600 196 654 q 158 492 171 546 q 131 364 143 426 q 111 235 118 301 q 108 146 107 194 q 133 61 110 97 q 188 10 157 25 q 256 -24 218 -4 q 331 61 286 17 q 427 143 375 106 q 535 205 479 181 q 644 229 590 229 q 706 217 678 229 q 749 184 733 206 q 767 133 765 163 q 753 71 769 104 q 665 -32 722 7 q 538 -90 607 -71 q 395 -107 468 -108 q 260 -89 322 -106 q 185 -235 214 -158 q 144 -396 156 -312 q 138 -407 143 -404 q 128 -408 133 -410 q 119 -403 124 -407 q 117 -393 115 -400 q 153 -225 128 -303 q 221 -76 178 -147 q 128 -30 174 -58 q 50 42 82 -1 m 718 89 q 717 165 743 140 q 643 190 692 190 q 544 167 594 190 q 448 110 494 144 q 362 35 401 75 q 294 -40 322 -6 q 408 -60 346 -58 q 531 -46 471 -61 q 642 3 592 -31 q 718 89 693 36 m 178 935 q 223 915 206 935 q 238 865 240 894 q 216 816 235 836 q 169 796 197 796 q 125 816 143 796 q 110 865 107 836 q 132 915 113 894 q 178 935 151 935 z "},"":{"ha":288,"x_min":-290,"x_max":850,"o":"m 82 72 q 76 51 81 68 q 66 10 72 33 q 52 -42 60 -14 q 36 -100 44 -71 q 231 -69 131 -74 q 426 -87 331 -65 q 605 -160 521 -110 q 751 -290 689 -210 q 811 -392 788 -337 q 842 -506 835 -447 q 840 -622 850 -564 q 799 -732 829 -679 q 724 -819 769 -782 q 625 -876 679 -856 q 513 -897 571 -896 q 399 -879 454 -899 q 283 -804 325 -853 q 225 -694 242 -756 q 213 -564 208 -632 q 236 -431 217 -496 q 251 -403 242 -411 q 267 -398 260 -396 q 276 -411 274 -400 q 274 -442 279 -422 q 251 -560 257 -499 q 260 -676 246 -621 q 310 -776 274 -732 q 413 -843 347 -819 q 513 -858 461 -860 q 611 -839 564 -857 q 699 -789 658 -821 q 765 -712 739 -757 q 802 -612 793 -665 q 803 -508 811 -560 q 774 -406 796 -456 q 721 -315 753 -357 q 576 -189 660 -236 q 399 -122 493 -142 q 208 -110 306 -103 q 19 -146 110 -117 q -26 -244 0 -197 q -83 -327 -51 -292 q -154 -383 -115 -362 q -239 -404 -193 -404 q -279 -387 -268 -404 q -289 -345 -290 -369 q -276 -296 -287 -321 q -247 -254 -264 -271 q -119 -160 -208 -207 q -103 -108 -111 -135 q -89 -56 -96 -82 q -61 62 -74 10 q -39 159 -49 114 q -22 243 -29 204 q -10 319 -15 282 q -4 365 -8 333 q 6 438 0 397 q 17 524 11 479 q 28 609 22 569 q 38 678 33 649 q 44 717 42 707 q 71 737 47 729 q 121 746 94 744 q 168 740 147 747 q 185 715 189 733 q 177 650 181 681 q 169 588 174 619 q 160 524 165 557 q 150 454 156 492 q 120 263 135 358 q 82 72 106 168 m -233 -357 q -192 -324 -219 -357 q -137 -215 -165 -292 q -183 -247 -164 -231 q -217 -279 -203 -264 q -244 -334 -242 -311 q -233 -357 -246 -357 m 138 935 q 183 915 165 935 q 197 865 200 894 q 176 816 194 836 q 129 796 157 796 q 85 816 103 796 q 69 865 67 836 q 92 915 72 894 q 138 935 111 935 z "},"":{"ha":617,"x_min":-742,"x_max":678,"o":"m 189 653 q 254 716 218 690 q 340 742 290 742 q 413 724 382 742 q 464 676 444 706 q 490 612 483 647 q 486 542 496 576 q 452 462 474 494 q 401 408 431 429 q 334 373 371 386 q 256 350 297 360 q 253 316 253 338 q 255 269 253 294 q 263 215 257 243 q 279 160 268 186 q 293 130 283 149 q 315 93 303 111 q 342 62 328 75 q 368 49 356 49 q 418 66 393 49 q 466 108 443 83 q 507 158 489 132 q 536 204 525 185 q 594 311 568 257 q 640 421 619 365 l 678 421 q 633 311 658 367 q 579 206 607 256 q 535 133 558 169 q 483 68 513 97 q 418 20 454 39 q 336 1 382 1 q 253 36 288 1 q 194 118 218 71 q 173 178 182 144 q 157 245 164 211 q 145 310 150 279 q 135 365 140 342 l 93 33 q 67 10 90 19 q 16 1 43 1 q -32 7 -11 0 q -49 33 -53 14 q -11 316 -33 176 q 36 597 11 456 q 65 731 47 656 q 106 868 82 806 q -108 899 3 869 q -330 958 -219 928 q -543 1004 -440 988 q -731 999 -646 1021 q -740 1016 -739 996 q -731 1061 -742 1036 q -690 1107 -719 1086 q -607 1128 -661 1128 q -510 1112 -564 1128 q -394 1072 -456 1096 q -268 1020 -333 1049 q -136 968 -203 992 q -3 928 -69 944 q 124 913 63 913 q 169 1002 144 960 q 224 1076 194 1044 q 291 1125 254 1107 q 371 1143 328 1143 q 417 1124 401 1143 q 433 1075 432 1104 q 423 1010 435 1046 q 386 944 411 975 q 324 891 361 914 q 240 864 288 868 l 189 653 m 140 397 q 165 392 139 392 q 228 403 192 392 q 299 444 264 415 q 353 522 335 472 q 363 567 358 538 q 367 626 368 597 q 357 677 367 656 q 322 699 347 699 q 274 679 299 699 q 226 629 249 660 q 186 560 204 599 q 160 486 168 522 q 153 455 156 465 q 148 437 150 444 q 144 421 146 429 q 140 397 143 413 m 254 910 q 329 947 299 917 q 375 1010 360 976 q 391 1069 390 1043 q 378 1096 392 1096 q 342 1081 358 1096 q 310 1041 325 1067 q 281 981 294 1015 q 254 910 267 947 z "},"":{"ha":394,"x_min":-744,"x_max":453,"o":"m 158 538 q 131 392 146 465 q 108 246 115 318 q 104 190 106 225 q 108 124 103 156 q 127 68 113 92 q 172 44 142 44 q 221 62 197 44 q 265 104 244 79 q 302 156 286 129 q 328 201 318 182 q 377 307 356 253 q 415 418 399 361 l 453 418 q 417 308 438 363 q 369 201 396 253 q 337 140 357 175 q 290 73 317 104 q 233 20 264 42 q 167 -1 201 -1 q 81 22 114 -1 q 31 82 49 46 q 5 163 13 118 q -4 249 -3 207 q 4 422 -7 328 q 31 594 15 515 q 44 658 36 624 q 61 729 51 693 q 81 801 71 765 q 103 868 92 836 q -111 899 0 869 q -333 958 -222 928 q -546 1004 -443 988 q -733 999 -649 1021 q -743 1016 -742 996 q -733 1061 -744 1036 q -693 1107 -722 1086 q -610 1128 -664 1128 q -512 1112 -567 1128 q -397 1072 -458 1096 q -271 1020 -336 1049 q -139 968 -206 992 q -6 928 -72 944 q 121 913 60 913 q 167 1002 142 960 q 222 1076 192 1044 q 288 1125 251 1107 q 368 1143 325 1143 q 414 1124 399 1143 q 431 1075 429 1104 q 420 1010 432 1046 q 383 944 408 975 q 322 891 358 914 q 238 864 285 868 l 158 538 m 251 910 q 326 947 296 917 q 372 1010 357 976 q 388 1069 388 1043 q 375 1096 389 1096 q 339 1081 356 1096 q 307 1041 322 1067 q 278 981 292 1015 q 251 910 264 947 z "},"":{"ha":1454,"x_min":-61,"x_max":1436,"o":"m 800 86 q 847 24 815 50 q 922 -24 879 -3 q 997 61 953 17 q 1094 143 1042 106 q 1201 205 1146 181 q 1311 229 1257 229 q 1372 217 1344 229 q 1416 184 1400 206 q 1434 133 1432 163 q 1419 71 1436 104 q 1331 -32 1389 7 q 1204 -90 1274 -71 q 1062 -107 1135 -108 q 926 -89 989 -106 q 851 -235 881 -158 q 811 -396 822 -312 q 805 -407 810 -404 q 795 -408 800 -410 q 786 -403 790 -407 q 783 -393 782 -400 q 819 -225 794 -303 q 888 -76 844 -147 q 795 -26 836 -57 q 724 40 754 4 q 701 79 711 56 q 683 128 690 103 q 671 177 675 153 q 667 218 667 201 q 668 278 667 250 q 674 332 669 306 q 683 385 678 358 q 694 442 688 411 q 707 515 700 471 q 710 599 714 558 q 690 667 707 639 q 631 696 672 696 q 575 674 600 696 q 531 619 550 651 q 499 553 511 588 q 481 494 486 518 q 460 258 475 379 q 436 33 444 136 q 414 10 435 19 q 368 1 393 1 q 324 7 343 0 q 308 33 306 14 q 323 157 314 92 q 342 290 332 222 q 359 424 351 357 q 369 556 367 492 q 363 610 367 585 q 351 654 358 635 q 330 685 343 674 q 297 696 317 696 q 246 673 269 696 q 203 617 222 650 q 172 550 185 585 q 150 492 158 515 l 83 33 q 57 10 81 19 q 7 1 33 1 q -40 7 -19 0 q -58 33 -61 14 q -33 201 -46 121 q -6 362 -19 281 q 23 530 8 443 q 53 718 38 617 q 76 739 56 731 q 122 749 97 747 q 164 743 146 750 q 179 718 182 736 l 168 646 q 222 713 189 685 q 296 742 256 742 q 360 731 333 742 q 408 700 388 719 q 441 655 428 681 q 463 601 454 629 q 490 653 472 628 q 530 697 507 678 q 579 729 553 717 q 631 742 606 742 q 743 715 701 742 q 805 644 785 688 q 826 547 825 601 q 819 439 828 493 q 802 338 813 388 q 786 236 792 289 q 784 198 785 219 q 785 156 783 176 q 790 117 786 135 q 800 86 793 99 m 1385 89 q 1384 165 1410 140 q 1310 190 1358 190 q 1211 167 1261 190 q 1115 110 1161 144 q 1028 35 1068 75 q 961 -40 989 -6 q 1075 -60 1013 -58 q 1198 -46 1138 -61 q 1309 3 1258 -31 q 1385 89 1360 36 z "},"":{"ha":1147,"x_min":-62,"x_max":1135,"o":"m 485 86 q 541 26 504 54 q 621 -24 578 -3 q 696 61 651 17 q 792 143 740 106 q 900 205 844 181 q 1010 229 956 229 q 1071 217 1043 229 q 1115 184 1099 206 q 1133 133 1131 163 q 1118 71 1135 104 q 1030 -32 1088 7 q 903 -90 972 -71 q 760 -107 833 -108 q 625 -89 688 -106 q 550 -235 579 -158 q 510 -396 521 -312 q 503 -407 508 -404 q 494 -408 499 -410 q 485 -403 489 -407 q 482 -393 481 -400 q 518 -225 493 -303 q 586 -76 543 -147 q 498 -32 539 -57 q 427 28 457 -7 q 380 109 397 63 q 363 218 363 156 q 364 278 363 250 q 369 332 365 306 q 378 385 374 358 q 390 442 383 411 q 403 521 397 476 q 406 604 410 565 q 384 669 401 643 q 328 696 367 696 q 269 674 297 696 q 219 622 242 653 q 179 556 196 590 q 157 494 163 521 q 116 261 129 376 q 83 33 103 146 q 56 10 81 19 q 5 1 32 1 q -42 7 -22 0 q -57 33 -62 14 q -3 374 -33 206 q 51 717 28 543 q 75 740 54 731 q 120 749 96 749 q 163 743 144 750 q 178 718 181 736 q 172 682 175 703 q 167 646 169 661 q 194 680 176 663 q 233 711 211 697 q 278 733 254 725 q 326 742 303 742 q 440 715 399 742 q 501 644 482 688 q 522 546 521 600 q 515 439 524 492 q 498 338 508 388 q 482 236 488 289 q 474 147 476 185 q 485 86 471 108 m 1083 89 q 1083 165 1108 140 q 1008 190 1057 190 q 910 167 960 190 q 813 110 860 144 q 727 35 767 75 q 660 -40 688 -6 q 774 -60 711 -58 q 897 -46 836 -61 q 1008 3 957 -31 q 1083 89 1058 36 z "},"":{"ha":656,"x_min":-292,"x_max":849,"o":"m 181 49 q 233 81 206 49 q 286 161 261 113 q 215 151 251 163 q 160 107 179 139 q 153 69 150 90 q 181 49 156 49 m -71 21 q -35 170 -51 96 q -8 319 -19 244 q -2 368 -7 333 q 8 448 3 403 q 20 543 14 493 q 33 636 26 593 q 43 711 39 679 q 50 753 47 743 q 77 774 53 765 q 128 783 101 782 q 174 778 154 785 q 190 753 194 771 q 178 649 186 703 q 196 679 183 663 q 224 710 208 696 q 259 733 240 724 q 297 742 278 742 q 386 713 349 742 q 447 640 424 685 q 480 541 469 596 q 488 435 490 486 q 472 305 485 365 q 422 181 458 244 q 556 206 497 178 q 644 314 615 235 q 663 372 656 343 q 678 421 671 400 l 715 421 q 703 372 710 400 q 685 314 696 344 q 574 172 649 210 q 399 144 499 133 q 358 92 381 118 q 308 47 335 67 q 249 14 281 26 q 185 1 218 1 q 144 13 161 1 q 120 43 128 25 q 114 83 113 61 q 128 126 115 106 q 160 164 140 149 q 204 188 181 179 q 253 198 228 196 q 304 197 279 200 q 331 261 319 231 q 348 321 342 292 q 358 381 354 350 q 363 446 361 411 q 361 524 364 481 q 349 604 358 567 q 321 667 339 642 q 272 692 303 692 q 222 660 243 692 q 185 588 200 629 q 162 508 171 547 q 151 454 153 469 q 115 234 133 342 q 69 15 97 126 q 66 1 68 8 q 60 -19 64 -7 q 50 -51 56 -32 q 35 -100 44 -69 q 229 -69 129 -74 q 424 -87 329 -65 q 603 -160 519 -110 q 750 -290 688 -210 q 810 -392 786 -337 q 841 -506 833 -447 q 838 -622 849 -564 q 797 -732 828 -679 q 723 -819 768 -782 q 624 -876 678 -856 q 511 -897 569 -896 q 397 -879 453 -899 q 282 -804 324 -853 q 224 -694 240 -756 q 211 -564 207 -632 q 235 -431 215 -496 q 249 -403 240 -411 q 265 -398 258 -396 q 275 -411 272 -400 q 272 -442 278 -422 q 250 -560 256 -499 q 258 -676 244 -621 q 309 -776 272 -732 q 411 -843 346 -819 q 511 -858 460 -860 q 610 -839 563 -857 q 697 -789 657 -821 q 764 -712 738 -757 q 801 -612 792 -665 q 802 -508 810 -560 q 773 -406 794 -456 q 719 -315 751 -357 q 575 -189 658 -236 q 398 -122 492 -142 q 206 -110 304 -103 q 18 -146 108 -117 q -27 -244 -1 -197 q -85 -327 -53 -292 q -156 -383 -117 -362 q -240 -404 -194 -404 q -281 -387 -269 -404 q -290 -345 -292 -369 q -277 -296 -289 -321 q -249 -254 -265 -271 q -121 -160 -210 -207 l -71 21 m -235 -357 q -194 -324 -221 -357 q -139 -215 -167 -292 q -185 -247 -165 -231 q -218 -279 -204 -264 q -245 -334 -243 -311 q -235 -357 -247 -357 z "},"":{"ha":978,"x_min":-6,"x_max":958,"o":"m 317 89 q 369 23 336 49 q 444 -24 401 -3 q 519 61 475 17 q 616 143 564 106 q 724 205 668 181 q 833 229 779 229 q 894 217 867 229 q 938 184 922 206 q 956 133 954 163 q 942 71 958 104 q 853 -32 911 7 q 726 -90 796 -71 q 584 -107 657 -108 q 449 -89 511 -106 q 374 -235 403 -158 q 333 -396 344 -312 q 327 -407 332 -404 q 317 -408 322 -410 q 308 -403 313 -407 q 306 -393 304 -400 q 342 -225 317 -303 q 410 -76 367 -147 q 305 -15 349 -51 q 229 86 261 22 q 203 165 211 121 q 193 256 194 210 q 195 344 192 301 q 203 421 199 388 q 215 488 208 457 q 217 546 221 519 q 194 594 214 572 q 128 636 175 617 q 119 603 124 621 q 105 558 114 586 q 83 490 96 531 q 50 389 69 449 l 13 389 q 53 518 31 451 q 93 650 76 585 q 32 692 60 665 q -3 758 4 719 q -2 794 -6 776 q 10 826 1 813 q 35 849 19 840 q 72 857 51 857 q 122 839 106 857 q 144 794 139 821 q 146 737 149 767 q 139 685 143 707 q 250 641 206 661 q 318 594 294 621 q 346 526 342 567 q 336 421 350 486 q 323 356 332 399 q 308 264 314 313 q 303 167 303 215 q 317 89 304 119 m 104 699 q 108 731 106 711 q 109 772 111 751 q 99 806 107 792 q 72 819 90 819 q 38 801 44 819 q 40 758 31 782 q 63 727 47 743 q 104 699 79 711 m 907 89 q 906 165 932 140 q 832 190 881 190 q 733 167 783 190 q 637 110 683 144 q 551 35 590 75 q 483 -40 511 -6 q 597 -60 535 -58 q 720 -46 660 -61 q 831 3 781 -31 q 907 89 882 36 z "},"":{"ha":788,"x_min":-86,"x_max":758,"o":"m 126 76 q 174 21 146 44 q 244 -24 201 -3 q 319 61 275 17 q 416 143 364 106 q 524 205 468 181 q 633 229 579 229 q 694 217 667 229 q 738 184 722 206 q 756 133 754 163 q 742 71 758 104 q 653 -32 711 7 q 526 -90 596 -71 q 384 -107 457 -108 q 249 -89 311 -106 q 174 -235 203 -158 q 133 -396 144 -312 q 127 -407 132 -404 q 117 -408 122 -410 q 108 -403 113 -407 q 106 -393 104 -400 q 142 -225 117 -303 q 210 -76 167 -147 q 46 40 106 -37 q 7 130 18 81 q -8 229 -4 179 q -6 326 -11 271 q 12 456 -1 381 q 47 633 25 532 q 101 869 69 735 l -10 869 q -67 881 -49 869 q -86 908 -86 893 q -66 933 -86 922 q -6 943 -46 944 l 119 943 q 135 1004 126 975 q 151 1058 144 1033 q 180 1079 156 1071 q 231 1089 204 1088 q 277 1083 257 1090 q 292 1058 297 1076 q 278 1003 286 1032 q 264 942 271 974 l 349 942 q 424 931 401 942 q 445 908 446 921 q 425 885 444 896 q 375 872 406 874 q 315 870 347 871 q 249 869 283 869 q 209 708 228 786 q 172 553 190 631 q 140 397 154 476 q 113 235 125 318 q 108 144 106 186 q 126 76 111 101 m 707 89 q 706 165 732 140 q 632 190 681 190 q 533 167 583 190 q 437 110 483 144 q 351 35 390 75 q 283 -40 311 -6 q 397 -60 335 -58 q 520 -46 460 -61 q 631 3 581 -31 q 707 89 682 36 z "},"":{"ha":1164,"x_min":-12,"x_max":1142,"o":"m 593 -76 q 493 -26 539 -57 q 413 57 447 6 q 391 100 400 76 q 377 147 382 124 q 369 190 372 169 q 365 224 367 211 l 357 204 q 326 142 344 178 q 283 76 308 107 q 228 23 258 44 q 163 1 197 1 q 85 21 117 1 q 35 73 54 40 q 5 147 15 106 q -10 229 -6 188 q -10 294 -12 260 q -3 362 -8 328 q 7 429 1 396 q 18 493 13 463 q 44 626 31 564 q 68 717 58 688 q 97 737 72 729 q 147 746 121 744 q 194 740 174 747 q 208 715 214 733 q 183 600 196 654 q 158 492 171 546 q 131 364 143 426 q 111 235 118 301 q 107 165 107 199 q 113 105 107 131 q 132 64 119 79 q 168 49 144 49 q 215 66 193 49 q 256 108 238 83 q 290 158 275 132 q 314 204 304 185 q 365 318 342 257 q 378 408 369 363 q 393 493 386 453 q 419 626 406 564 q 443 717 432 688 q 471 737 447 729 q 522 746 494 744 q 568 740 549 747 q 583 715 588 733 q 558 600 571 654 q 532 492 544 546 q 504 364 517 426 q 485 235 492 301 q 485 164 482 203 q 494 103 488 125 q 548 28 511 58 q 628 -24 585 -3 q 703 61 658 17 q 799 143 747 106 q 907 205 851 181 q 1017 229 963 229 q 1078 217 1050 229 q 1122 184 1106 206 q 1140 133 1138 163 q 1125 71 1142 104 q 1037 -32 1094 7 q 910 -90 979 -71 q 767 -107 840 -108 q 632 -89 694 -106 q 557 -235 586 -158 q 517 -396 528 -312 q 510 -407 515 -404 q 501 -408 506 -410 q 492 -403 496 -407 q 489 -393 488 -400 q 525 -225 500 -303 q 593 -76 550 -147 m 1090 89 q 1090 165 1115 140 q 1015 190 1064 190 q 917 167 967 190 q 820 110 867 144 q 734 35 774 75 q 667 -40 694 -6 q 781 -60 718 -58 q 903 -46 843 -61 q 1015 3 964 -31 q 1090 89 1065 36 z "},"":{"ha":696,"x_min":-12,"x_max":1257,"o":"m 443 -85 q 638 -54 538 -58 q 833 -72 738 -50 q 1012 -144 928 -94 q 1158 -275 1096 -194 q 1218 -377 1194 -322 q 1249 -490 1242 -432 q 1247 -606 1257 -549 q 1206 -717 1236 -664 q 1131 -803 1176 -767 q 1032 -860 1086 -840 q 919 -882 978 -881 q 806 -864 861 -883 q 690 -789 732 -837 q 632 -678 649 -740 q 619 -549 615 -617 q 643 -415 624 -481 q 658 -388 649 -396 q 674 -383 667 -381 q 683 -396 681 -385 q 681 -426 686 -407 q 658 -544 664 -483 q 667 -661 653 -606 q 717 -760 681 -717 q 819 -828 754 -804 q 919 -843 868 -844 q 1018 -824 971 -842 q 1106 -774 1065 -806 q 1172 -697 1146 -742 q 1209 -597 1200 -650 q 1210 -492 1218 -544 q 1181 -391 1203 -440 q 1128 -300 1160 -342 q 983 -174 1067 -221 q 806 -107 900 -126 q 615 -94 713 -87 q 426 -131 517 -101 q 381 -229 407 -182 q 324 -312 356 -276 q 253 -368 292 -347 q 168 -389 214 -389 q 128 -372 139 -389 q 118 -330 117 -354 q 131 -281 119 -306 q 160 -239 143 -256 q 288 -144 199 -192 q 306 -86 296 -119 q 331 13 315 -53 q 356 119 344 65 q 379 225 368 172 q 347 157 367 196 q 300 83 326 118 q 242 25 274 49 q 172 1 210 1 q 95 21 126 1 q 43 73 64 40 q 10 147 22 106 q -6 229 -1 188 q -3 362 -12 292 q 15 493 6 432 q 38 626 26 564 q 58 717 50 688 q 86 737 63 729 q 137 746 110 744 q 183 740 164 747 q 199 715 203 733 q 176 600 188 654 q 154 492 165 546 q 131 364 142 426 q 114 235 119 301 q 113 165 111 199 q 120 105 114 131 q 140 64 126 79 q 176 49 154 49 q 224 66 201 49 q 267 108 247 83 q 303 160 288 133 q 328 204 319 186 q 407 417 378 306 q 419 506 413 458 q 431 598 425 554 q 441 674 436 642 q 449 717 446 706 q 476 737 451 729 q 526 746 500 744 q 573 740 553 747 q 589 715 593 733 q 581 650 585 681 q 574 588 578 619 q 565 524 569 557 q 554 454 560 492 q 525 265 539 358 q 489 75 511 171 l 443 -85 m 174 -342 q 215 -309 188 -342 q 269 -200 242 -276 q 224 -232 243 -215 q 190 -264 204 -249 q 163 -319 165 -296 q 174 -342 161 -342 z "},"":{"ha":1307,"x_min":-19,"x_max":1289,"o":"m 379 533 q 378 589 381 560 q 367 641 375 618 q 348 679 360 664 q 318 694 336 694 q 271 673 294 694 q 226 617 247 651 q 188 543 206 583 q 156 465 169 503 q 133 398 142 428 q 121 357 124 368 q 111 318 117 346 q 101 256 106 290 q 97 185 97 222 q 101 118 96 149 q 121 68 107 88 q 161 49 135 49 q 224 84 194 49 q 277 168 253 119 q 319 269 301 217 q 347 353 336 321 q 362 443 354 399 q 379 533 369 488 m 360 133 q 349 178 353 156 q 343 225 346 201 q 310 145 329 185 q 267 74 290 106 q 213 22 243 42 q 149 1 183 1 q 48 40 85 1 q -4 138 11 79 q -17 263 -19 196 q 0 388 -15 331 q 45 510 17 447 q 113 625 74 574 q 203 709 153 676 q 315 742 254 742 q 375 714 356 742 q 403 646 394 686 q 413 687 408 669 q 421 717 417 704 q 449 737 425 729 q 500 746 474 744 q 547 740 526 747 q 561 715 567 733 q 536 600 549 654 q 511 492 524 546 q 483 364 496 426 q 464 235 471 301 q 460 181 461 207 q 461 132 458 156 q 479 82 467 101 q 517 63 492 63 q 594 80 551 63 q 679 122 636 97 q 761 173 722 146 q 828 219 800 200 q 922 294 874 254 q 1017 379 971 335 q 1106 472 1064 424 q 1179 569 1147 519 q 1230 682 1214 622 q 1245 801 1246 742 q 1226 914 1244 860 q 1172 1009 1207 968 q 1087 1074 1138 1050 q 971 1099 1036 1099 q 844 1058 896 1099 q 769 957 792 1017 q 756 830 746 897 q 813 710 765 763 q 822 690 822 699 q 817 675 822 681 q 803 670 813 669 q 786 682 794 671 q 716 824 728 744 q 732 973 704 903 q 823 1091 760 1043 q 978 1139 886 1139 q 1107 1112 1050 1139 q 1203 1040 1164 1085 q 1263 935 1242 994 q 1287 809 1285 875 q 1270 676 1289 743 q 1213 547 1251 608 q 1138 449 1181 499 q 1047 353 1094 400 q 948 265 999 307 q 850 188 897 222 q 777 134 818 164 q 690 78 736 104 q 598 33 644 51 q 510 15 551 15 q 415 51 451 15 q 360 133 378 86 z "},"":{"ha":692,"x_min":-587,"x_max":750,"o":"m 215 49 q 266 81 240 49 q 314 161 292 113 q 242 151 278 163 q 190 107 206 139 q 186 69 182 90 q 215 49 190 49 m 200 653 q 258 717 225 693 q 331 742 290 742 q 424 708 388 742 q 481 626 461 675 q 507 521 501 578 q 508 417 513 464 q 490 293 503 349 q 446 178 476 238 q 492 170 467 172 q 541 171 517 168 q 588 183 565 174 q 624 211 610 193 q 653 260 639 232 q 678 316 667 288 q 697 372 689 344 q 713 421 706 400 l 750 421 q 733 365 743 397 q 711 300 724 333 q 684 236 699 267 q 653 188 669 206 q 604 150 632 163 q 547 135 576 138 q 485 135 517 132 q 426 144 454 139 q 390 92 411 118 q 344 47 369 67 q 288 14 318 26 q 224 1 257 1 q 183 13 200 1 q 156 43 165 25 q 147 83 147 61 q 157 126 146 106 q 229 188 179 172 q 329 197 279 203 q 362 306 350 253 q 381 419 374 360 q 388 492 383 446 q 391 582 393 538 q 374 659 389 626 q 325 692 360 692 q 274 667 300 692 q 224 608 247 642 q 185 541 201 575 q 163 488 168 507 q 142 390 151 447 q 124 269 132 332 q 110 144 117 206 q 97 33 103 82 q 72 10 96 19 q 22 1 49 1 q -27 7 -6 0 q -44 33 -49 14 q -18 256 -33 150 q 14 474 -3 361 q 28 552 19 507 q 48 647 36 597 q 73 745 60 696 q 100 838 86 794 q -112 870 -3 839 q -316 956 -221 901 q -483 1088 -411 1011 q -585 1257 -556 1165 q -575 1272 -587 1268 q -558 1263 -562 1275 q -458 1106 -531 1176 q -291 983 -386 1035 q -89 904 -196 932 q 115 878 18 876 l 129 913 q 174 1002 149 960 q 229 1076 199 1044 q 297 1125 260 1107 q 376 1143 333 1143 q 418 1130 403 1143 q 438 1096 433 1117 q 438 1048 443 1075 q 419 993 433 1021 q 346 904 392 940 q 242 853 300 868 l 200 653 m 372 1000 q 401 1066 396 1036 q 382 1096 406 1096 q 337 1070 358 1096 q 296 1004 315 1044 q 256 899 272 953 q 322 940 292 911 q 372 1000 353 968 z "},"":{"ha":740,"x_min":-247,"x_max":800,"o":"m 506 538 q 478 393 494 465 q 456 250 463 321 q 451 194 453 228 q 454 127 449 160 q 474 72 460 94 q 519 49 489 49 q 568 66 544 49 q 612 108 592 83 q 649 158 632 132 q 675 204 665 185 q 724 310 701 257 q 761 421 746 364 l 800 421 q 763 311 785 367 q 717 204 742 256 q 684 142 704 178 q 638 76 664 107 q 580 23 611 44 q 514 1 549 1 q 433 22 464 1 q 383 74 401 42 q 356 147 364 107 q 344 225 347 186 q 311 145 331 185 q 268 74 292 106 q 215 22 244 42 q 150 1 185 1 q 49 40 86 1 q -4 138 13 79 q -18 263 -21 196 q 0 388 -15 331 q 39 504 15 442 q 98 619 63 567 q 182 707 133 672 q 294 742 231 742 q 334 733 318 742 q 360 711 350 725 q 378 680 371 697 q 389 646 385 663 q 413 740 399 688 q 440 838 426 793 q 228 870 338 839 q 24 956 119 901 q -143 1088 -71 1011 q -244 1257 -215 1165 q -235 1272 -247 1268 q -218 1263 -222 1275 q -118 1106 -190 1176 q 49 983 -46 1035 q 251 904 144 932 q 456 878 358 876 l 469 913 q 514 1002 489 960 q 569 1076 539 1044 q 637 1125 600 1107 q 717 1143 674 1143 q 758 1130 743 1143 q 778 1096 774 1117 q 778 1048 783 1075 q 760 993 774 1021 q 686 904 732 940 q 582 853 640 868 l 506 538 m 343 347 q 347 389 344 365 q 353 438 350 413 q 359 486 356 463 q 365 529 363 510 q 361 586 364 557 q 351 640 358 615 q 331 679 343 664 q 301 694 319 694 q 261 676 281 694 q 224 627 242 657 q 190 560 206 597 q 160 485 174 522 q 135 413 146 447 q 119 357 125 379 q 110 318 115 346 q 101 256 106 290 q 97 185 97 222 q 103 118 97 149 q 122 68 108 88 q 163 49 136 49 q 226 83 197 49 q 278 167 256 118 q 318 265 301 215 q 343 347 335 315 m 713 1000 q 741 1066 736 1036 q 722 1096 746 1096 q 677 1070 699 1096 q 636 1004 656 1044 q 596 899 613 953 q 663 940 632 911 q 713 1000 693 968 z "},"":{"ha":363,"x_min":-587,"x_max":443,"o":"m 169 -150 q 135 -60 156 -108 q 86 43 114 -12 q 74 -78 79 -14 q 72 -200 69 -143 q 85 -299 74 -257 q 124 -353 97 -342 q 163 -352 149 -364 q 183 -319 176 -340 q 190 -234 197 -278 q 169 -150 183 -190 m 167 538 q 131 345 150 439 q 100 151 113 251 q 213 174 163 154 q 303 244 264 193 q 351 328 335 286 q 383 421 368 371 l 421 421 q 388 317 406 365 q 333 222 369 269 q 228 139 288 163 q 94 114 168 115 l 94 113 q 160 -24 132 38 q 207 -139 189 -86 q 229 -234 222 -187 q 221 -331 236 -281 q 176 -395 206 -375 q 101 -394 147 -415 q 19 -326 50 -372 q -27 -222 -11 -281 q -47 -96 -43 -162 q -49 35 -51 -29 q -38 156 -46 99 q -24 254 -31 214 q 7 424 -8 338 q 38 594 22 511 q 49 650 42 619 q 65 713 56 681 q 83 778 74 746 q 100 838 92 810 q -112 870 -3 839 q -316 956 -221 901 q -483 1088 -411 1011 q -585 1257 -556 1165 q -575 1272 -587 1268 q -558 1263 -562 1275 q -458 1106 -531 1176 q -291 983 -386 1035 q -89 904 -196 932 q 115 878 18 876 l 129 913 q 174 1002 149 960 q 229 1076 199 1044 q 297 1125 260 1107 q 376 1143 333 1143 q 418 1130 403 1143 q 438 1096 433 1117 q 438 1048 443 1075 q 419 993 433 1021 q 346 904 392 940 q 242 853 300 868 l 167 538 m 372 1000 q 401 1066 396 1036 q 382 1096 406 1096 q 337 1070 358 1096 q 296 1004 315 1044 q 256 899 272 953 q 322 940 292 911 q 372 1000 353 968 z "},"":{"ha":663,"x_min":-19,"x_max":956,"o":"m 411 -79 q 535 -83 469 -75 q 663 -110 600 -90 q 783 -160 726 -129 q 879 -235 839 -192 q 899 -196 893 -215 q 904 -158 904 -176 q 897 -119 904 -137 q 879 -87 890 -101 q 872 -65 871 -75 q 878 -51 872 -56 q 892 -47 883 -46 q 910 -60 901 -49 q 933 -104 924 -79 q 943 -157 943 -129 q 935 -211 944 -183 q 904 -267 926 -239 q 943 -440 956 -344 q 935 -478 940 -458 q 918 -513 929 -497 q 891 -540 907 -529 q 853 -550 875 -550 q 815 -537 829 -550 q 794 -506 801 -525 q 784 -466 786 -487 q 785 -426 782 -444 q 808 -342 790 -382 q 854 -267 826 -303 q 763 -193 818 -224 q 644 -144 707 -162 q 516 -120 581 -126 q 396 -119 451 -114 q 356 -207 379 -161 q 302 -291 333 -253 q 229 -354 271 -329 q 136 -379 188 -379 q 92 -360 106 -379 q 79 -315 79 -342 q 91 -260 79 -289 q 124 -210 103 -231 q 187 -150 150 -175 q 264 -110 224 -125 q 303 54 283 -26 q 340 217 324 135 q 308 140 326 178 q 265 71 289 101 q 212 21 240 40 q 149 1 183 1 q 48 40 85 1 q -4 138 11 79 q -17 263 -19 196 q 0 388 -15 331 q 46 510 17 447 q 115 625 75 574 q 206 709 156 676 q 318 742 257 742 q 378 714 358 742 q 406 646 397 686 q 411 685 410 671 q 415 717 413 699 q 441 739 417 731 q 492 749 465 747 q 540 742 519 750 q 557 715 561 733 q 531 520 546 618 q 499 326 517 422 q 478 201 489 267 q 453 76 467 136 l 411 -79 m 372 528 q 373 587 374 557 q 367 641 372 617 q 351 680 363 665 q 321 694 340 694 q 274 673 297 694 q 228 617 250 651 q 189 543 207 583 q 157 465 171 503 q 133 398 143 428 q 121 357 124 368 q 111 318 117 346 q 101 256 106 290 q 97 185 97 222 q 101 118 96 149 q 121 68 107 88 q 161 49 135 49 q 225 83 196 49 q 278 167 254 118 q 317 265 301 215 q 342 347 333 315 q 364 444 358 400 q 372 528 369 489 m 904 -436 q 903 -366 908 -400 q 878 -300 897 -332 q 842 -362 857 -329 q 824 -431 828 -394 q 822 -453 822 -439 q 826 -479 822 -467 q 836 -501 829 -492 q 856 -511 843 -511 q 876 -503 868 -511 q 891 -483 885 -494 q 900 -458 897 -471 q 904 -436 903 -444 m 140 -332 q 187 -293 157 -332 q 249 -160 217 -254 q 154 -233 188 -192 q 123 -303 124 -274 q 140 -332 122 -332 z "},"":{"ha":738,"x_min":-593,"x_max":799,"o":"m 186 646 q 260 714 222 686 q 351 742 299 742 q 462 716 422 742 q 519 649 501 690 q 538 555 538 607 q 528 450 538 503 q 493 310 514 382 q 460 181 472 239 q 450 85 447 122 q 489 49 453 49 q 539 66 514 49 q 586 108 564 83 q 626 160 608 133 q 656 204 644 186 q 714 311 688 257 q 760 421 740 365 l 799 421 q 753 311 779 367 q 699 206 728 256 q 660 143 683 178 q 609 76 638 108 q 547 23 581 44 q 479 1 514 1 q 376 42 404 1 q 349 149 349 83 q 367 293 349 214 q 404 450 385 372 q 419 526 413 483 q 424 606 426 568 q 406 669 422 643 q 349 694 389 694 q 276 664 311 694 q 213 590 242 633 q 166 500 185 547 q 143 419 147 453 q 138 388 140 403 q 132 337 136 374 q 119 230 128 300 q 93 33 110 160 q 67 10 90 19 q 16 1 43 1 q -32 7 -11 0 q -49 33 -53 14 q -11 316 -33 176 q 36 597 11 456 q 47 652 40 622 q 62 715 54 682 q 78 778 69 747 q 94 838 86 810 q -117 870 -8 839 q -322 956 -226 901 q -489 1088 -417 1011 q -590 1257 -561 1165 q -581 1272 -593 1268 q -564 1263 -568 1275 q -464 1106 -536 1176 q -297 983 -392 1035 q -94 904 -201 932 q 110 878 13 876 l 124 913 q 168 1002 143 960 q 224 1076 193 1044 q 291 1125 254 1107 q 371 1143 328 1143 q 413 1130 397 1143 q 433 1096 428 1117 q 433 1048 438 1075 q 414 993 428 1021 q 340 904 386 940 q 236 853 294 868 l 186 646 m 367 1000 q 395 1066 390 1036 q 376 1096 400 1096 q 331 1070 353 1096 q 290 1004 310 1044 q 250 899 267 953 q 317 940 286 911 q 367 1000 347 968 z "},"":{"ha":949,"x_min":-12,"x_max":935,"o":"m 7 133 q -3 181 0 156 q -10 229 -7 206 q -10 294 -12 260 q -3 362 -8 328 q 7 429 1 396 q 18 493 13 463 q 44 626 31 564 q 68 717 58 688 q 97 737 72 729 q 147 746 121 744 q 194 740 174 747 q 208 715 214 733 q 183 600 196 654 q 158 492 171 546 q 131 364 143 426 q 111 235 118 301 q 107 181 108 207 q 108 133 106 156 q 126 83 114 103 q 163 63 138 63 q 240 80 197 63 q 325 122 282 97 q 407 173 368 146 q 474 219 446 200 q 568 294 519 254 q 663 379 617 335 q 751 472 710 424 q 825 569 793 519 q 876 682 860 622 q 891 801 892 742 q 872 914 890 860 q 818 1009 853 968 q 733 1074 783 1050 q 617 1099 682 1099 q 490 1058 542 1099 q 415 957 438 1017 q 401 830 392 897 q 458 710 411 763 q 468 690 468 699 q 463 675 468 681 q 449 670 458 669 q 432 682 440 671 q 362 824 374 744 q 378 973 350 903 q 469 1091 406 1043 q 624 1139 532 1139 q 753 1112 696 1139 q 849 1040 810 1085 q 909 935 888 994 q 933 809 931 875 q 916 676 935 743 q 858 547 897 608 q 783 449 826 499 q 692 353 740 400 q 594 265 644 307 q 496 188 543 222 q 423 134 464 164 q 336 78 382 104 q 244 33 290 51 q 156 15 197 15 q 61 51 97 15 q 7 133 25 86 m 178 935 q 223 915 206 935 q 238 865 240 894 q 216 816 235 836 q 169 796 197 796 q 125 816 143 796 q 110 865 107 836 q 132 915 113 894 q 178 935 151 935 z "},"":{"ha":294,"x_min":-293,"x_max":583,"o":"m -72 18 q -37 168 -53 93 q -10 319 -21 243 q -4 365 -8 333 q 6 438 0 397 q 17 524 11 479 q 28 609 22 569 q 38 678 33 649 q 44 717 42 707 q 71 737 47 729 q 121 746 94 744 q 168 740 147 747 q 185 715 189 733 q 177 650 181 681 q 169 588 174 619 q 160 524 165 557 q 150 454 156 492 q 133 347 142 406 q 113 228 124 289 q 90 109 103 168 q 64 1 78 50 l 39 -79 q 163 -83 97 -75 q 291 -110 228 -90 q 410 -160 354 -129 q 507 -235 467 -192 q 526 -196 521 -215 q 532 -158 532 -176 q 525 -119 532 -137 q 507 -87 518 -101 q 499 -65 499 -75 q 506 -51 500 -56 q 520 -47 511 -46 q 538 -60 529 -49 q 561 -104 551 -79 q 571 -157 571 -129 q 563 -211 572 -183 q 532 -267 554 -239 q 571 -440 583 -344 q 563 -478 568 -458 q 546 -513 557 -497 q 519 -540 535 -529 q 481 -550 503 -550 q 443 -537 457 -550 q 422 -506 429 -525 q 412 -466 414 -487 q 413 -426 410 -444 q 436 -342 418 -382 q 482 -267 454 -303 q 390 -193 446 -224 q 272 -144 335 -162 q 144 -120 208 -126 q 24 -119 79 -114 q -16 -207 7 -161 q -70 -291 -39 -253 q -143 -354 -101 -329 q -236 -379 -185 -379 q -280 -360 -267 -379 q -293 -315 -293 -342 q -281 -260 -293 -289 q -249 -210 -269 -231 q -185 -150 -222 -175 q -108 -110 -149 -125 q -100 -81 -106 -99 q -90 -46 -94 -64 q -80 -10 -85 -28 q -72 18 -75 7 m 532 -436 q 531 -366 536 -400 q 506 -300 525 -332 q 470 -362 485 -329 q 451 -431 456 -394 q 450 -453 450 -439 q 453 -479 450 -467 q 464 -501 457 -492 q 483 -511 471 -511 q 504 -503 496 -511 q 519 -483 513 -494 q 528 -458 525 -471 q 532 -436 531 -444 m -232 -332 q -185 -293 -215 -332 q -124 -160 -156 -254 q -218 -233 -185 -192 q -249 -303 -249 -274 q -232 -332 -250 -332 m 138 935 q 183 915 165 935 q 197 865 200 894 q 176 816 194 836 q 129 796 157 796 q 85 816 103 796 q 69 865 67 836 q 92 915 72 894 q 138 935 111 935 z "},"":{"ha":617,"x_min":-593,"x_max":678,"o":"m 189 653 q 254 716 218 690 q 340 742 290 742 q 413 724 382 742 q 464 676 444 706 q 490 612 483 647 q 486 542 496 576 q 452 462 474 494 q 401 408 431 429 q 334 373 371 386 q 256 350 297 360 q 253 316 253 338 q 255 269 253 294 q 263 215 257 243 q 279 160 268 186 q 293 130 283 149 q 315 93 303 111 q 342 62 328 75 q 368 49 356 49 q 418 66 393 49 q 466 108 443 83 q 507 158 489 132 q 536 204 525 185 q 594 311 568 257 q 640 421 619 365 l 678 421 q 633 311 658 367 q 579 206 607 256 q 535 133 558 169 q 483 68 513 97 q 418 20 454 39 q 336 1 382 1 q 253 36 288 1 q 194 118 218 71 q 173 178 182 144 q 157 245 164 211 q 145 310 150 279 q 135 365 140 342 l 93 33 q 67 10 90 19 q 16 1 43 1 q -32 7 -11 0 q -49 33 -53 14 q -11 316 -33 176 q 36 597 11 456 q 47 652 40 622 q 62 715 54 682 q 78 778 69 747 q 94 838 86 810 q -117 870 -8 839 q -322 956 -226 901 q -489 1088 -417 1011 q -590 1257 -561 1165 q -581 1272 -593 1268 q -564 1263 -568 1275 q -464 1106 -536 1176 q -297 983 -392 1035 q -94 904 -201 932 q 110 878 13 876 l 124 913 q 168 1002 143 960 q 224 1076 193 1044 q 291 1125 254 1107 q 371 1143 328 1143 q 413 1130 397 1143 q 433 1096 428 1117 q 433 1048 438 1075 q 414 993 428 1021 q 340 904 386 940 q 236 853 294 868 l 189 653 m 140 397 q 165 392 139 392 q 228 403 192 392 q 299 444 264 415 q 353 522 335 472 q 363 567 358 538 q 367 626 368 597 q 357 677 367 656 q 322 699 347 699 q 274 679 299 699 q 226 629 249 660 q 186 560 204 599 q 160 486 168 522 q 153 455 156 465 q 148 437 150 444 q 144 421 146 429 q 140 397 143 413 m 367 1000 q 395 1066 390 1036 q 376 1096 400 1096 q 331 1070 353 1096 q 290 1004 310 1044 q 250 899 267 953 q 317 940 286 911 q 367 1000 347 968 z "},"":{"ha":394,"x_min":-596,"x_max":453,"o":"m 158 538 q 131 392 146 465 q 108 246 115 318 q 104 190 106 225 q 108 124 103 156 q 127 68 113 92 q 172 44 142 44 q 221 62 197 44 q 265 104 244 79 q 302 156 286 129 q 328 201 318 182 q 377 307 356 253 q 415 418 399 361 l 453 418 q 417 308 438 363 q 369 201 396 253 q 337 140 357 175 q 290 73 317 104 q 233 20 264 42 q 167 -1 201 -1 q 81 22 114 -1 q 31 82 49 46 q 5 163 13 118 q -4 249 -3 207 q 4 422 -7 328 q 31 594 15 515 q 43 650 36 619 q 58 713 50 681 q 74 777 65 744 q 92 838 83 810 q -120 870 -11 839 q -324 956 -229 901 q -492 1088 -419 1011 q -593 1257 -564 1165 q -583 1272 -596 1268 q -567 1263 -571 1275 q -467 1106 -539 1176 q -299 983 -394 1035 q -97 904 -204 932 q 107 878 10 876 l 121 913 q 165 1002 140 960 q 221 1076 190 1044 q 288 1125 251 1107 q 368 1143 325 1143 q 410 1130 394 1143 q 430 1096 425 1117 q 430 1048 435 1075 q 411 993 425 1021 q 338 904 383 940 q 233 853 292 868 l 158 538 m 364 1000 q 392 1066 388 1036 q 374 1096 397 1096 q 328 1070 350 1096 q 288 1004 307 1044 q 247 899 264 953 q 314 940 283 911 q 364 1000 344 968 z "},"":{"ha":1628,"x_min":-61,"x_max":1611,"o":"m 678 133 q 669 290 658 214 q 694 442 679 365 q 707 515 700 471 q 710 599 714 558 q 690 667 707 639 q 631 696 672 696 q 575 674 600 696 q 531 619 550 651 q 499 553 511 588 q 481 494 486 518 q 460 258 475 379 q 436 33 444 136 q 414 10 435 19 q 368 1 393 1 q 324 7 343 0 q 308 33 306 14 q 323 157 314 92 q 342 290 332 222 q 359 424 351 357 q 369 556 367 492 q 363 610 367 585 q 351 654 358 635 q 330 685 343 674 q 297 696 317 696 q 246 673 269 696 q 203 617 222 650 q 172 550 185 585 q 150 492 158 515 l 83 33 q 57 10 81 19 q 7 1 33 1 q -40 7 -19 0 q -58 33 -61 14 q -33 201 -46 121 q -6 362 -19 281 q 23 530 8 443 q 53 718 38 617 q 76 739 56 731 q 122 749 97 747 q 164 743 146 750 q 179 718 182 736 l 168 646 q 222 713 189 685 q 296 742 256 742 q 360 731 333 742 q 408 700 388 719 q 441 655 428 681 q 463 601 454 629 q 490 653 472 628 q 530 697 507 678 q 579 729 553 717 q 631 742 606 742 q 743 715 701 742 q 805 644 785 688 q 826 547 825 601 q 819 439 828 493 q 793 286 808 365 q 782 132 778 207 q 801 82 788 101 q 839 63 814 63 q 916 80 874 63 q 1001 122 958 97 q 1083 173 1044 146 q 1150 219 1122 200 q 1244 294 1196 254 q 1340 379 1293 335 q 1428 472 1386 424 q 1501 569 1469 519 q 1552 682 1536 622 q 1567 801 1568 742 q 1548 914 1567 860 q 1494 1009 1529 968 q 1409 1074 1460 1050 q 1293 1099 1358 1099 q 1166 1058 1218 1099 q 1091 957 1114 1017 q 1078 830 1068 897 q 1135 710 1088 763 q 1144 690 1144 699 q 1140 675 1144 681 q 1126 670 1135 669 q 1108 682 1117 671 q 1038 824 1050 744 q 1054 973 1026 903 q 1145 1091 1082 1043 q 1300 1139 1208 1139 q 1429 1112 1372 1139 q 1525 1040 1486 1085 q 1585 935 1564 994 q 1609 809 1607 875 q 1592 676 1611 743 q 1535 547 1574 608 q 1460 449 1503 499 q 1369 353 1417 400 q 1270 265 1321 307 q 1172 188 1219 222 q 1099 134 1140 164 q 1013 78 1058 104 q 920 33 967 51 q 832 15 874 15 q 735 51 774 15 q 678 133 696 86 z "},"":{"ha":1329,"x_min":-62,"x_max":1307,"o":"m 372 133 q 365 290 356 214 q 390 442 375 367 q 403 521 397 476 q 406 604 410 565 q 384 669 401 643 q 328 696 367 696 q 269 674 297 696 q 219 622 242 653 q 179 556 196 590 q 157 494 163 521 q 116 261 129 376 q 83 33 103 146 q 56 10 81 19 q 5 1 32 1 q -42 7 -22 0 q -57 33 -62 14 q -3 374 -33 206 q 51 717 28 543 q 75 740 54 731 q 120 749 96 749 q 163 743 144 750 q 178 718 181 736 q 172 682 175 703 q 167 646 169 661 q 194 680 176 663 q 233 711 211 697 q 278 733 254 725 q 326 742 303 742 q 440 715 399 742 q 501 644 482 688 q 522 546 521 600 q 515 439 524 492 q 502 365 510 403 q 488 288 494 326 q 478 210 482 249 q 478 133 475 171 q 497 83 483 103 q 535 63 510 63 q 612 80 569 63 q 697 122 654 97 q 779 173 740 146 q 846 219 818 200 q 940 294 892 254 q 1035 379 989 335 q 1124 472 1082 424 q 1197 569 1165 519 q 1248 682 1232 622 q 1263 801 1264 742 q 1244 914 1263 860 q 1190 1009 1225 968 q 1105 1074 1156 1050 q 989 1099 1054 1099 q 862 1058 914 1099 q 787 957 810 1017 q 774 830 764 897 q 831 710 783 763 q 840 690 840 699 q 835 675 840 681 q 822 670 831 669 q 804 682 813 671 q 734 824 746 744 q 750 973 722 903 q 841 1091 778 1043 q 996 1139 904 1139 q 1125 1112 1068 1139 q 1221 1040 1182 1085 q 1281 935 1260 994 q 1305 809 1303 875 q 1288 676 1307 743 q 1231 547 1269 608 q 1156 449 1199 499 q 1065 353 1113 400 q 966 265 1017 307 q 868 188 915 222 q 795 134 836 164 q 708 78 754 104 q 616 33 663 51 q 528 15 569 15 q 430 51 469 15 q 372 133 390 86 z "},"":{"ha":606,"x_min":-289,"x_max":588,"o":"m 160 107 q 167 104 168 113 q 165 83 167 96 q 166 60 164 71 q 181 49 168 49 q 216 65 197 49 q 253 107 235 82 q 288 160 272 132 q 311 211 303 189 q 349 326 339 274 q 363 446 360 379 q 361 524 364 481 q 349 604 358 567 q 321 667 339 642 q 272 692 303 692 q 222 660 243 692 q 185 588 200 629 q 162 508 171 547 q 151 454 153 469 q 121 258 136 354 q 82 65 106 163 l 43 -79 q 167 -83 101 -75 q 295 -110 232 -90 q 415 -160 358 -129 q 511 -235 471 -192 q 531 -196 525 -215 q 536 -158 536 -176 q 529 -119 536 -137 q 511 -87 522 -101 q 503 -65 503 -75 q 510 -51 504 -56 q 524 -47 515 -46 q 542 -60 533 -49 q 565 -104 556 -79 q 575 -157 575 -129 q 567 -211 576 -183 q 536 -267 558 -239 q 575 -440 588 -344 q 567 -478 572 -458 q 550 -513 561 -497 q 523 -540 539 -529 q 485 -550 507 -550 q 447 -537 461 -550 q 426 -506 433 -525 q 416 -466 418 -487 q 417 -426 414 -444 q 440 -342 422 -382 q 486 -267 458 -303 q 394 -193 450 -224 q 276 -144 339 -162 q 148 -120 213 -126 q 28 -119 83 -114 q -12 -207 11 -161 q -66 -291 -35 -253 q -139 -354 -97 -329 q -232 -379 -181 -379 q -276 -360 -262 -379 q -289 -315 -289 -342 q -277 -260 -289 -289 q -244 -210 -265 -231 q -181 -150 -218 -175 q -104 -110 -144 -125 q -51 103 -76 -1 q -8 319 -25 208 q -2 368 -7 333 q 8 448 3 403 q 20 543 14 493 q 33 636 26 593 q 43 711 39 679 q 50 753 47 743 q 77 774 53 765 q 128 783 101 782 q 174 778 154 785 q 190 753 194 771 q 178 649 186 703 q 196 679 183 663 q 224 710 208 696 q 259 733 240 724 q 297 742 278 742 q 386 713 349 742 q 447 640 424 685 q 480 541 469 596 q 488 435 490 486 q 473 310 485 368 q 428 190 461 251 q 381 123 408 157 q 319 62 353 89 q 251 18 286 35 q 185 1 217 1 q 149 15 161 1 q 134 45 136 28 q 139 80 132 63 q 160 107 146 97 m 536 -436 q 535 -366 540 -400 q 510 -300 529 -332 q 474 -362 489 -329 q 456 -431 460 -394 q 454 -453 454 -439 q 458 -479 454 -467 q 468 -501 461 -492 q 488 -511 475 -511 q 508 -503 500 -511 q 523 -483 517 -494 q 532 -458 529 -471 q 536 -436 535 -444 m -228 -332 q -181 -293 -211 -332 q -119 -160 -151 -254 q -214 -233 -181 -192 q -245 -303 -244 -274 q -228 -332 -246 -332 z "},"":{"ha":1157,"x_min":-6,"x_max":1136,"o":"m 104 699 q 108 731 106 711 q 109 772 111 751 q 99 806 107 792 q 72 819 90 819 q 38 801 44 819 q 40 758 31 782 q 63 727 47 743 q 104 699 79 711 m 208 133 q 194 207 197 168 q 191 284 190 246 q 195 358 192 322 q 203 421 199 393 q 215 488 208 457 q 217 546 221 519 q 194 594 214 572 q 128 636 175 617 q 119 603 124 621 q 105 558 114 586 q 83 490 96 531 q 50 389 69 449 l 13 389 q 53 518 31 451 q 93 650 76 585 q 32 692 60 665 q -3 758 4 719 q -2 794 -6 776 q 10 826 1 813 q 35 849 19 840 q 72 857 51 857 q 122 839 106 857 q 144 794 139 821 q 146 737 149 767 q 139 685 143 707 q 250 641 206 661 q 318 594 294 621 q 346 526 342 567 q 336 421 350 486 q 325 369 332 403 q 312 294 318 335 q 303 211 306 254 q 306 133 301 168 q 325 83 311 103 q 364 63 339 63 q 441 80 399 63 q 526 122 483 97 q 608 173 569 146 q 675 219 647 200 q 769 294 721 254 q 865 379 818 335 q 953 472 911 424 q 1026 569 994 519 q 1077 682 1061 622 q 1092 801 1093 742 q 1073 914 1092 860 q 1019 1009 1054 968 q 934 1074 985 1050 q 818 1099 883 1099 q 691 1058 743 1099 q 616 957 639 1017 q 603 830 593 897 q 660 710 613 763 q 669 690 669 699 q 665 675 669 681 q 651 670 660 669 q 633 682 642 671 q 563 824 575 744 q 579 973 551 903 q 670 1091 607 1043 q 825 1139 733 1139 q 954 1112 897 1139 q 1050 1040 1011 1085 q 1110 935 1089 994 q 1134 809 1132 875 q 1117 676 1136 743 q 1060 547 1099 608 q 985 449 1028 499 q 894 353 942 400 q 795 265 846 307 q 697 188 744 222 q 624 134 665 164 q 538 78 583 104 q 445 33 492 51 q 357 15 399 15 q 292 25 317 15 q 251 51 267 35 q 226 88 236 67 q 208 133 217 110 z "},"":{"ha":1335,"x_min":-12,"x_max":1313,"o":"m 382 133 q 372 177 375 154 q 365 224 368 200 l 357 204 q 326 142 344 178 q 283 76 308 107 q 228 23 258 44 q 163 1 197 1 q 85 21 117 1 q 35 73 54 40 q 5 147 15 106 q -10 229 -6 188 q -10 294 -12 260 q -3 362 -8 328 q 7 429 1 396 q 18 493 13 463 q 44 626 31 564 q 68 717 58 688 q 97 737 72 729 q 147 746 121 744 q 194 740 174 747 q 208 715 214 733 q 183 600 196 654 q 158 492 171 546 q 131 364 143 426 q 111 235 118 301 q 107 165 107 199 q 113 105 107 131 q 132 64 119 79 q 168 49 144 49 q 215 66 193 49 q 256 108 238 83 q 290 158 275 132 q 314 204 304 185 q 365 318 342 257 q 378 408 369 363 q 393 493 386 453 q 419 626 406 564 q 443 717 432 688 q 471 737 447 729 q 522 746 494 744 q 568 740 549 747 q 583 715 588 733 q 558 600 571 654 q 532 492 544 546 q 504 364 517 426 q 485 235 492 301 q 481 182 482 207 q 482 135 479 157 q 501 83 488 104 q 540 63 515 63 q 617 80 575 63 q 703 122 660 97 q 785 173 746 146 q 851 219 824 200 q 946 294 897 254 q 1041 379 994 335 q 1129 472 1088 424 q 1203 569 1171 519 q 1253 682 1238 622 q 1269 801 1269 742 q 1249 914 1268 860 q 1196 1009 1231 968 q 1110 1074 1161 1050 q 994 1099 1060 1099 q 867 1058 919 1099 q 792 957 815 1017 q 779 830 769 897 q 836 710 789 763 q 846 690 846 699 q 841 675 846 681 q 827 670 836 669 q 810 682 818 671 q 740 824 751 744 q 756 973 728 903 q 847 1091 783 1043 q 1001 1139 910 1139 q 1131 1112 1074 1139 q 1226 1040 1188 1085 q 1287 935 1265 994 q 1310 809 1308 875 q 1294 676 1313 743 q 1236 547 1275 608 q 1161 449 1204 499 q 1070 353 1118 400 q 972 265 1022 307 q 874 188 921 222 q 801 134 842 164 q 714 78 760 104 q 622 33 668 51 q 533 15 575 15 q 438 51 475 15 q 382 133 400 86 z "},"":{"ha":703,"x_min":-12,"x_max":992,"o":"m 447 -79 q 571 -83 506 -75 q 699 -110 636 -90 q 819 -160 763 -129 q 915 -235 875 -192 q 935 -196 929 -215 q 940 -158 940 -176 q 933 -119 940 -137 q 915 -87 926 -101 q 908 -65 907 -75 q 914 -51 908 -56 q 928 -47 919 -46 q 946 -60 938 -49 q 969 -104 960 -79 q 979 -157 979 -129 q 972 -211 981 -183 q 940 -267 963 -239 q 979 -440 992 -344 q 971 -478 976 -458 q 954 -513 965 -497 q 927 -540 943 -529 q 889 -550 911 -550 q 851 -537 865 -550 q 830 -506 838 -525 q 820 -466 822 -487 q 821 -426 818 -444 q 844 -342 826 -382 q 890 -267 863 -303 q 799 -193 854 -224 q 680 -144 743 -162 q 552 -120 617 -126 q 432 -119 488 -114 q 392 -207 415 -161 q 338 -291 369 -253 q 265 -354 307 -329 q 172 -379 224 -379 q 128 -360 142 -379 q 115 -315 115 -342 q 127 -260 115 -289 q 160 -210 139 -231 q 223 -150 186 -175 q 300 -110 260 -125 q 313 -67 307 -87 q 324 -24 318 -46 q 338 34 329 1 q 353 101 346 67 q 368 167 361 135 q 379 225 375 200 q 347 157 367 196 q 300 83 326 118 q 242 25 274 49 q 172 1 210 1 q 95 21 126 1 q 43 73 64 40 q 10 147 22 106 q -6 229 -1 188 q -3 362 -12 292 q 15 493 6 432 q 38 626 26 564 q 58 717 50 688 q 86 737 63 729 q 137 746 110 744 q 183 740 164 747 q 199 715 203 733 q 176 600 188 654 q 154 492 165 546 q 131 364 142 426 q 114 235 119 301 q 113 165 111 199 q 120 105 114 131 q 140 64 126 79 q 176 49 154 49 q 224 66 201 49 q 267 108 247 83 q 303 160 288 133 q 328 204 319 186 q 407 417 378 306 q 419 506 413 458 q 431 598 425 554 q 441 674 436 642 q 449 717 446 706 q 476 737 451 729 q 526 746 500 744 q 573 740 553 747 q 589 715 593 733 q 581 650 585 681 q 574 588 578 619 q 565 524 569 557 q 554 454 560 492 q 528 289 542 376 q 499 122 515 201 l 447 -79 m 940 -436 q 939 -366 944 -400 q 914 -300 933 -332 q 878 -362 893 -329 q 860 -431 864 -394 q 858 -453 858 -439 q 862 -479 858 -467 q 872 -501 865 -492 q 892 -511 879 -511 q 913 -503 904 -511 q 927 -483 921 -494 q 936 -458 933 -471 q 940 -436 939 -444 m 176 -332 q 223 -293 193 -332 q 285 -160 253 -254 q 190 -233 224 -192 q 159 -303 160 -274 q 176 -332 158 -332 z "},"":{"ha":692,"x_min":-443,"x_max":750,"o":"m 215 49 q 266 81 240 49 q 314 161 292 113 q 242 151 278 163 q 190 107 206 139 q 186 69 182 90 q 215 49 190 49 m 200 653 q 258 717 225 693 q 331 742 290 742 q 424 708 388 742 q 481 626 461 675 q 507 521 501 578 q 508 417 513 464 q 490 293 503 349 q 446 178 476 238 q 492 170 467 172 q 541 171 517 168 q 588 183 565 174 q 624 211 610 193 q 653 260 639 232 q 678 316 667 288 q 697 372 689 344 q 713 421 706 400 l 750 421 q 733 365 743 397 q 711 300 724 333 q 684 236 699 267 q 653 188 669 206 q 604 150 632 163 q 547 135 576 138 q 485 135 517 132 q 426 144 454 139 q 390 92 411 118 q 344 47 369 67 q 288 14 318 26 q 224 1 257 1 q 183 13 200 1 q 156 43 165 25 q 147 83 147 61 q 157 126 146 106 q 229 188 179 172 q 329 197 279 203 q 362 306 350 253 q 381 419 374 360 q 388 492 383 446 q 391 582 393 538 q 374 659 389 626 q 325 692 360 692 q 274 667 300 692 q 224 608 247 642 q 185 541 201 575 q 163 488 168 507 q 142 390 151 447 q 124 269 132 332 q 110 144 117 206 q 97 33 103 82 q 72 10 96 19 q 22 1 49 1 q -27 7 -6 0 q -44 33 -49 14 q -18 256 -33 150 q 14 474 -3 361 q 28 554 19 508 q 47 650 36 600 q 72 750 58 700 q 101 843 86 800 q -22 847 43 839 q -151 874 -87 854 q -272 924 -215 893 q -367 999 -328 954 q -392 922 -394 958 q -385 883 -392 901 q -368 851 -379 865 q -360 829 -360 839 q -365 815 -360 819 q -380 811 -371 810 q -397 824 -389 813 q -422 868 -412 843 q -432 921 -431 893 q -423 975 -432 947 q -392 1031 -414 1003 q -431 1204 -443 1108 q -423 1242 -429 1222 q -406 1277 -417 1261 q -378 1303 -394 1293 q -340 1314 -362 1314 q -304 1301 -318 1314 q -283 1270 -290 1289 q -273 1230 -275 1251 q -272 1190 -271 1208 q -296 1106 -278 1146 q -342 1031 -314 1067 q -250 957 -306 988 q -132 908 -194 926 q -4 884 -69 890 q 117 883 61 878 q 156 971 133 925 q 210 1055 179 1017 q 283 1118 242 1093 q 376 1143 324 1143 q 419 1124 406 1143 q 432 1079 432 1106 q 421 1024 432 1053 q 389 974 410 994 q 325 914 363 939 q 247 874 288 889 l 200 653 m -365 1064 q -330 1126 -344 1093 q -311 1194 -315 1158 q -311 1217 -311 1203 q -314 1243 -311 1231 q -324 1265 -317 1256 q -343 1275 -331 1275 q -364 1267 -356 1275 q -378 1247 -372 1258 q -387 1222 -385 1235 q -392 1200 -390 1208 q -365 1064 -403 1125 m 357 997 q 389 1067 388 1038 q 372 1096 390 1096 q 326 1058 356 1096 q 264 924 296 1019 q 357 997 326 956 z "},"":{"ha":740,"x_min":-101,"x_max":800,"o":"m 343 347 q 347 389 344 365 q 353 438 350 413 q 359 486 356 463 q 365 529 363 510 q 361 586 364 557 q 351 640 358 615 q 331 679 343 664 q 301 694 319 694 q 261 676 281 694 q 224 627 242 657 q 190 560 206 597 q 160 485 174 522 q 135 413 146 447 q 119 357 125 379 q 110 318 115 346 q 101 256 106 290 q 97 185 97 222 q 103 118 97 149 q 122 68 108 88 q 163 49 136 49 q 226 83 197 49 q 278 167 256 118 q 318 265 301 215 q 343 347 335 315 m 563 775 q 549 720 557 751 q 533 656 542 689 q 518 592 525 624 q 506 538 511 561 q 478 393 494 465 q 456 250 463 321 q 451 194 453 228 q 454 127 449 160 q 474 72 460 94 q 519 49 489 49 q 568 66 544 49 q 612 108 592 83 q 649 158 632 132 q 675 204 665 185 q 724 310 701 257 q 761 421 746 364 l 800 421 q 763 311 785 367 q 717 204 742 256 q 684 142 704 178 q 638 76 664 107 q 580 23 611 44 q 514 1 549 1 q 433 22 464 1 q 383 74 401 42 q 356 147 364 107 q 344 225 347 186 q 311 145 331 185 q 268 74 292 106 q 215 22 244 42 q 150 1 185 1 q 49 40 86 1 q -4 138 13 79 q -18 263 -21 196 q 0 388 -15 331 q 39 504 15 442 q 98 619 63 567 q 182 707 133 672 q 294 742 231 742 q 334 733 318 742 q 360 711 350 725 q 378 680 371 697 q 389 646 385 663 q 403 708 396 672 q 421 775 411 743 q 431 809 426 792 q 443 843 436 826 q 319 847 385 839 q 190 874 254 854 q 70 924 126 893 q -25 999 14 954 q -50 922 -53 958 q -44 883 -50 901 q -26 851 -37 865 q -18 829 -18 839 q -24 815 -18 819 q -38 811 -29 810 q -56 824 -47 813 q -80 868 -71 843 q -90 921 -89 893 q -81 975 -90 947 q -50 1031 -72 1003 q -89 1204 -101 1108 q -81 1242 -87 1222 q -64 1277 -75 1261 q -37 1303 -53 1293 q 1 1314 -21 1314 q 38 1301 24 1314 q 59 1270 51 1289 q 69 1230 67 1251 q 69 1190 71 1208 q 46 1106 64 1146 q 0 1031 28 1067 q 92 957 36 988 q 210 908 147 926 q 338 884 272 890 q 458 883 403 878 q 498 971 475 925 q 552 1055 521 1017 q 624 1118 583 1093 q 718 1143 665 1143 q 760 1124 747 1143 q 774 1079 774 1106 q 763 1024 774 1053 q 731 974 751 994 q 667 914 704 939 q 589 874 629 889 q 576 825 582 850 q 563 775 569 800 m -24 1064 q 12 1126 -3 1093 q 31 1194 26 1158 q 31 1217 31 1203 q 28 1243 31 1231 q 18 1265 25 1256 q -1 1275 11 1275 q -22 1267 -14 1275 q -37 1247 -31 1258 q -46 1222 -43 1235 q -50 1200 -49 1208 q -24 1064 -61 1125 m 699 997 q 731 1067 729 1038 q 714 1096 732 1096 q 667 1058 697 1096 q 606 924 638 1019 q 699 997 668 956 z "},"":{"ha":363,"x_min":-440,"x_max":435,"o":"m 169 -150 q 135 -60 156 -108 q 86 43 114 -12 q 74 -78 79 -14 q 72 -200 69 -143 q 85 -299 74 -257 q 124 -353 97 -342 q 163 -352 149 -364 q 183 -319 176 -340 q 190 -234 197 -278 q 169 -150 183 -190 m 167 538 q 131 345 150 439 q 100 151 113 251 q 213 174 163 154 q 303 244 264 193 q 351 328 335 286 q 383 421 368 371 l 421 421 q 388 317 406 365 q 333 222 369 269 q 228 139 288 163 q 94 114 168 115 l 94 113 q 160 -24 132 38 q 207 -139 189 -86 q 229 -234 222 -187 q 221 -331 236 -281 q 176 -395 206 -375 q 101 -394 147 -415 q 19 -326 50 -372 q -27 -222 -11 -281 q -47 -96 -43 -162 q -49 35 -51 -29 q -38 156 -46 99 q -24 254 -31 214 q 7 424 -8 338 q 38 594 22 511 q 50 651 43 619 q 66 717 57 683 q 85 783 75 750 q 104 843 94 815 q -19 847 46 839 q -149 874 -85 854 q -269 924 -212 893 q -364 999 -325 954 q -389 922 -392 958 q -383 883 -389 901 q -365 851 -376 865 q -357 829 -357 839 q -362 815 -357 819 q -377 811 -368 810 q -394 824 -386 813 q -419 868 -410 843 q -429 921 -428 893 q -420 975 -429 947 q -389 1031 -411 1003 q -428 1204 -440 1108 q -420 1242 -426 1222 q -403 1277 -414 1261 q -376 1303 -392 1293 q -337 1314 -360 1314 q -301 1301 -315 1314 q -280 1270 -287 1289 q -270 1230 -272 1251 q -269 1190 -268 1208 q -293 1106 -275 1146 q -339 1031 -311 1067 q -247 957 -303 988 q -129 908 -192 926 q -1 884 -67 890 q 119 883 64 878 q 159 971 136 925 q 213 1055 182 1017 q 285 1118 244 1093 q 379 1143 326 1143 q 422 1124 408 1143 q 435 1079 435 1106 q 424 1024 435 1053 q 392 974 413 994 q 328 914 365 939 q 250 874 290 889 l 167 538 m -362 1064 q -327 1126 -342 1093 q -308 1194 -312 1158 q -308 1217 -308 1203 q -311 1243 -308 1231 q -321 1265 -314 1256 q -340 1275 -328 1275 q -361 1267 -353 1275 q -376 1247 -369 1258 q -385 1222 -382 1235 q -389 1200 -387 1208 q -362 1064 -400 1125 m 360 997 q 392 1067 390 1038 q 375 1096 393 1096 q 328 1058 358 1096 q 267 924 299 1019 q 360 997 329 956 z "},"":{"ha":671,"x_min":-726,"x_max":561,"o":"m 451 79 q 440 38 449 68 q 423 -25 432 8 q 406 -89 414 -58 q 393 -131 397 -119 q 446 -143 422 -133 q 488 -167 469 -153 q 531 -232 522 -196 q 527 -300 540 -268 q 481 -354 514 -332 q 400 -376 449 -376 q 333 -367 368 -376 q 260 -342 297 -357 q 201 -376 232 -364 q 133 -389 169 -389 q 97 -376 108 -389 q 85 -344 86 -364 q 90 -303 83 -325 q 108 -262 97 -282 q 17 -209 67 -239 q -85 -153 -33 -179 q -190 -106 -137 -126 q -289 -81 -242 -86 q -423 -87 -358 -74 q -540 -133 -487 -100 q -628 -220 -592 -167 q -678 -344 -664 -274 q -681 -440 -686 -393 q -656 -525 -676 -486 q -599 -590 -636 -564 q -508 -622 -562 -617 q -428 -618 -468 -626 q -353 -590 -389 -610 q -291 -540 -318 -569 q -249 -472 -264 -510 q -236 -455 -244 -460 q -221 -452 -228 -450 q -210 -462 -214 -454 q -211 -483 -207 -471 q -259 -563 -228 -528 q -331 -622 -290 -599 q -419 -656 -372 -646 q -512 -661 -465 -667 q -619 -624 -575 -654 q -687 -551 -662 -594 q -719 -453 -712 -507 q -717 -344 -726 -399 q -663 -203 -703 -264 q -566 -104 -624 -143 q -436 -49 -508 -65 q -285 -42 -364 -33 q -178 -68 -233 -47 q -69 -117 -124 -89 q 36 -175 -15 -144 q 133 -232 88 -206 q 254 -146 176 -185 q 283 -40 272 -89 q 297 19 289 -14 q 313 88 306 53 q 328 158 321 124 q 340 217 336 192 q 308 140 326 178 q 265 71 289 101 q 212 21 240 40 q 149 1 183 1 q 48 40 85 1 q -4 138 11 79 q -17 263 -19 196 q 0 388 -15 331 q 46 510 17 447 q 115 625 75 574 q 206 709 156 676 q 318 742 257 742 q 378 714 358 742 q 406 646 397 686 q 411 685 410 671 q 415 717 413 699 q 441 739 417 731 q 492 749 465 747 q 540 742 519 750 q 557 715 561 733 q 531 520 546 618 q 499 326 517 422 q 477 202 489 264 q 451 79 465 140 m 372 528 q 373 587 374 557 q 367 641 372 617 q 351 680 363 665 q 321 694 340 694 q 274 673 297 694 q 228 617 250 651 q 189 543 207 583 q 157 465 171 503 q 133 398 143 428 q 121 357 124 368 q 111 318 117 346 q 101 256 106 290 q 97 185 97 222 q 101 118 96 149 q 121 68 107 88 q 161 49 135 49 q 225 83 196 49 q 278 167 254 118 q 317 265 301 215 q 342 347 333 315 q 364 444 358 400 q 372 528 369 489 m 400 -337 q 458 -323 435 -337 q 490 -287 481 -308 q 494 -242 500 -267 q 463 -197 488 -218 q 426 -178 447 -186 q 378 -169 406 -171 q 338 -247 358 -210 q 290 -311 317 -283 q 348 -331 321 -324 q 400 -337 375 -337 m 140 -342 q 183 -304 158 -342 l 143 -283 q 128 -324 128 -307 q 140 -342 129 -342 m 204 -271 q 219 -239 211 -256 q 236 -200 228 -222 q 168 -251 194 -225 q 186 -262 178 -257 q 204 -271 194 -267 z "},"":{"ha":738,"x_min":-446,"x_max":799,"o":"m 186 646 q 260 714 222 686 q 351 742 299 742 q 462 716 422 742 q 519 649 501 690 q 538 555 538 607 q 528 450 538 503 q 493 310 514 382 q 460 181 472 239 q 450 85 447 122 q 489 49 453 49 q 539 66 514 49 q 586 108 564 83 q 626 160 608 133 q 656 204 644 186 q 714 311 688 257 q 760 421 740 365 l 799 421 q 753 311 779 367 q 699 206 728 256 q 660 143 683 178 q 609 76 638 108 q 547 23 581 44 q 479 1 514 1 q 376 42 404 1 q 349 149 349 83 q 367 293 349 214 q 404 450 385 372 q 419 526 413 483 q 424 606 426 568 q 406 669 422 643 q 349 694 389 694 q 276 664 311 694 q 213 590 242 633 q 166 500 185 547 q 143 419 147 453 q 138 388 140 403 q 132 337 136 374 q 119 230 128 300 q 93 33 110 160 q 67 10 90 19 q 16 1 43 1 q -32 7 -11 0 q -49 33 -53 14 q -11 316 -33 176 q 36 597 11 456 q 63 719 46 650 q 99 843 79 788 q -25 847 40 839 q -154 874 -90 854 q -274 924 -218 893 q -369 999 -331 954 q -394 922 -397 958 q -388 883 -394 901 q -371 851 -382 865 q -362 829 -362 839 q -368 815 -362 819 q -383 811 -374 810 q -400 824 -392 813 q -424 868 -415 843 q -435 921 -433 893 q -426 975 -435 947 q -394 1031 -417 1003 q -433 1204 -446 1108 q -426 1242 -432 1222 q -408 1277 -419 1261 q -381 1303 -397 1293 q -343 1314 -365 1314 q -307 1301 -321 1314 q -285 1270 -293 1289 q -276 1230 -278 1251 q -275 1190 -274 1208 q -299 1106 -281 1146 q -344 1031 -317 1067 q -253 957 -308 988 q -135 908 -197 926 q -7 884 -72 890 q 114 883 58 878 q 153 971 131 925 q 208 1055 176 1017 q 280 1118 239 1093 q 374 1143 321 1143 q 416 1124 403 1143 q 429 1079 429 1106 q 418 1024 429 1053 q 386 974 407 994 q 322 914 360 939 q 244 874 285 889 l 186 646 m -368 1064 q -333 1126 -347 1093 q -314 1194 -318 1158 q -314 1217 -314 1203 q -317 1243 -314 1231 q -326 1265 -319 1256 q -346 1275 -333 1275 q -367 1267 -358 1275 q -381 1247 -375 1258 q -390 1222 -387 1235 q -394 1200 -393 1208 q -368 1064 -406 1125 m 354 997 q 386 1067 385 1038 q 369 1096 388 1096 q 323 1058 353 1096 q 261 924 293 1019 q 354 997 324 956 z "},"":{"ha":300,"x_min":-1094,"x_max":200,"o":"m -74 17 q -37 167 -54 92 q -10 319 -21 243 q -4 365 -8 333 q 6 438 0 397 q 17 524 11 479 q 28 609 22 569 q 38 678 33 649 q 44 717 42 707 q 71 737 47 729 q 121 746 94 744 q 168 740 147 747 q 185 715 189 733 q 177 650 181 681 q 169 588 174 619 q 160 524 165 557 q 150 454 156 492 q 121 267 135 360 q 85 82 107 175 q 74 38 82 68 q 56 -26 65 7 q 38 -90 46 -60 q 25 -131 29 -119 q 78 -143 54 -133 q 119 -167 101 -153 q 163 -232 154 -196 q 159 -300 172 -268 q 113 -354 146 -332 q 32 -376 81 -376 q -35 -367 0 -376 q -108 -342 -71 -357 q -167 -376 -136 -364 q -235 -389 -199 -389 q -271 -376 -260 -389 q -283 -344 -282 -364 q -278 -303 -285 -325 q -260 -262 -271 -282 q -351 -209 -301 -239 q -453 -153 -401 -179 q -558 -106 -506 -126 q -657 -81 -610 -86 q -791 -87 -726 -74 q -908 -133 -856 -100 q -996 -220 -960 -167 q -1046 -344 -1032 -274 q -1049 -440 -1054 -393 q -1024 -525 -1044 -486 q -967 -590 -1004 -564 q -876 -622 -931 -617 q -797 -618 -836 -626 q -722 -590 -757 -610 q -659 -540 -686 -569 q -617 -472 -632 -510 q -604 -455 -612 -460 q -589 -452 -596 -450 q -578 -462 -582 -454 q -579 -483 -575 -471 q -627 -563 -596 -528 q -699 -622 -658 -599 q -787 -656 -740 -646 q -881 -661 -833 -667 q -987 -624 -943 -654 q -1056 -551 -1031 -594 q -1087 -453 -1081 -507 q -1085 -344 -1094 -399 q -1031 -203 -1071 -264 q -934 -104 -992 -143 q -804 -49 -876 -65 q -653 -42 -732 -33 q -547 -68 -601 -47 q -437 -117 -492 -89 q -332 -175 -383 -144 q -235 -232 -281 -206 q -114 -146 -192 -185 q -104 -110 -110 -132 q -93 -65 -99 -89 q -82 -19 -87 -40 q -74 17 -76 3 m 32 -337 q 90 -323 67 -337 q 122 -287 113 -308 q 126 -242 132 -267 q 94 -197 119 -218 q 58 -178 79 -186 q 10 -169 38 -171 q -31 -247 -10 -210 q -78 -311 -51 -283 q -20 -331 -47 -324 q 32 -337 7 -337 m -228 -342 q -185 -304 -210 -342 l -225 -283 q -240 -324 -240 -307 q -228 -342 -239 -342 m -164 -271 q -149 -239 -157 -256 q -132 -200 -140 -222 q -200 -251 -174 -225 q -182 -262 -190 -257 q -164 -271 -174 -267 m 138 935 q 183 915 165 935 q 197 865 200 894 q 176 816 194 836 q 129 796 157 796 q 85 816 103 796 q 69 865 67 836 q 92 915 72 894 q 138 935 111 935 z "},"":{"ha":617,"x_min":-444,"x_max":678,"o":"m 140 397 q 165 392 139 392 q 228 403 192 392 q 299 444 264 415 q 353 522 335 472 q 363 567 358 538 q 367 626 368 597 q 357 677 367 656 q 322 699 347 699 q 274 679 299 699 q 226 629 249 660 q 186 560 204 599 q 160 486 168 522 q 153 455 156 465 q 148 437 150 444 q 144 421 146 429 q 140 397 143 413 m 189 653 q 254 716 218 690 q 340 742 290 742 q 413 724 382 742 q 464 676 444 706 q 490 612 483 647 q 486 542 496 576 q 452 462 474 494 q 401 408 431 429 q 334 373 371 386 q 256 350 297 360 q 253 316 253 338 q 255 269 253 294 q 263 215 257 243 q 279 160 268 186 q 293 130 283 149 q 315 93 303 111 q 342 62 328 75 q 368 49 356 49 q 418 66 393 49 q 466 108 443 83 q 507 158 489 132 q 536 204 525 185 q 594 311 568 257 q 640 421 619 365 l 678 421 q 633 311 658 367 q 579 206 607 256 q 535 133 558 169 q 483 68 513 97 q 418 20 454 39 q 336 1 382 1 q 253 36 288 1 q 194 118 218 71 q 173 178 182 144 q 157 245 164 211 q 145 310 150 279 q 135 365 140 342 l 93 33 q 67 10 90 19 q 16 1 43 1 q -32 7 -11 0 q -49 33 -53 14 q -11 316 -33 176 q 36 597 11 456 q 63 718 47 650 q 100 843 79 786 q -24 847 42 839 q -153 874 -89 854 q -273 924 -217 893 q -368 999 -329 954 q -393 922 -396 958 q -387 883 -393 901 q -369 851 -381 865 q -361 829 -361 839 q -367 815 -361 819 q -381 811 -372 810 q -399 824 -390 813 q -423 868 -414 843 q -433 921 -432 893 q -424 975 -433 947 q -393 1031 -415 1003 q -432 1204 -444 1108 q -424 1242 -431 1222 q -407 1277 -418 1261 q -380 1303 -396 1293 q -342 1314 -364 1314 q -306 1301 -319 1314 q -284 1270 -292 1289 q -274 1230 -276 1251 q -274 1190 -272 1208 q -297 1106 -279 1146 q -343 1031 -315 1067 q -251 957 -307 988 q -133 908 -196 926 q -6 884 -71 890 q 115 883 60 878 q 155 971 132 925 q 209 1055 178 1017 q 281 1118 240 1093 q 375 1143 322 1143 q 417 1124 404 1143 q 431 1079 431 1106 q 419 1024 431 1053 q 388 974 408 994 q 324 914 361 939 q 246 874 286 889 l 189 653 m -367 1064 q -331 1126 -346 1093 q -312 1194 -317 1158 q -312 1217 -312 1203 q -315 1243 -312 1231 q -325 1265 -318 1256 q -344 1275 -332 1275 q -365 1267 -357 1275 q -380 1247 -374 1258 q -389 1222 -386 1235 q -393 1200 -392 1208 q -367 1064 -404 1125 m 356 997 q 388 1067 386 1038 q 371 1096 389 1096 q 324 1058 354 1096 q 263 924 294 1019 q 356 997 325 956 z "},"":{"ha":394,"x_min":-449,"x_max":453,"o":"m 158 538 q 131 392 146 465 q 108 246 115 318 q 104 190 106 225 q 108 124 103 156 q 127 68 113 92 q 172 44 142 44 q 221 62 197 44 q 265 104 244 79 q 302 156 286 129 q 328 201 318 182 q 377 307 356 253 q 415 418 399 361 l 453 418 q 417 308 438 363 q 369 201 396 253 q 337 140 357 175 q 290 73 317 104 q 233 20 264 42 q 167 -1 201 -1 q 81 22 114 -1 q 31 82 49 46 q 5 163 13 118 q -4 249 -3 207 q 4 422 -7 328 q 31 594 15 515 q 42 652 35 621 q 58 717 50 683 q 76 783 67 750 q 96 843 86 815 q -28 847 38 839 q -157 874 -93 854 q -277 924 -221 893 q -372 999 -333 954 q -397 922 -400 958 q -391 883 -397 901 q -374 851 -385 865 q -365 829 -365 839 q -371 815 -365 819 q -385 811 -376 810 q -403 824 -394 813 q -427 868 -418 843 q -437 921 -436 893 q -428 975 -437 947 q -397 1031 -419 1003 q -436 1204 -449 1108 q -428 1242 -435 1222 q -411 1277 -422 1261 q -384 1303 -400 1293 q -346 1314 -368 1314 q -310 1301 -324 1314 q -288 1270 -296 1289 q -278 1230 -281 1251 q -278 1190 -276 1208 q -301 1106 -283 1146 q -347 1031 -319 1067 q -256 957 -311 988 q -137 908 -200 926 q -10 884 -75 890 q 111 883 56 878 q 151 971 128 925 q 205 1055 174 1017 q 277 1118 236 1093 q 371 1143 318 1143 q 413 1124 400 1143 q 426 1079 426 1106 q 415 1024 426 1053 q 383 974 404 994 q 319 914 357 939 q 242 874 282 889 l 158 538 m -371 1064 q -335 1126 -350 1093 q -317 1194 -321 1158 q -317 1217 -317 1203 q -319 1243 -317 1231 q -329 1265 -322 1256 q -349 1275 -336 1275 q -369 1267 -361 1275 q -384 1247 -378 1258 q -393 1222 -390 1235 q -397 1200 -396 1208 q -371 1064 -408 1125 m 351 997 q 383 1067 382 1038 q 367 1096 385 1096 q 320 1058 350 1096 q 258 924 290 1019 q 351 997 321 956 z "},"":{"ha":628,"x_min":-1096,"x_max":490,"o":"m -82 -24 q -41 147 -60 63 q -8 319 -22 231 q -2 368 -7 333 q 8 448 3 403 q 20 543 14 493 q 33 636 26 593 q 43 711 39 679 q 50 753 47 743 q 77 774 53 765 q 128 783 101 782 q 174 778 154 785 q 190 753 194 771 q 178 649 186 703 q 196 679 183 663 q 224 710 208 696 q 259 733 240 724 q 297 742 278 742 q 386 713 349 742 q 447 640 424 685 q 480 541 469 596 q 488 435 490 486 q 473 310 485 368 q 428 190 461 251 q 381 123 408 157 q 319 62 353 89 q 251 18 286 35 q 185 1 217 1 q 149 15 161 1 q 134 45 136 28 q 139 80 132 63 q 160 107 146 97 q 167 104 168 113 q 165 83 167 96 q 166 60 164 71 q 181 49 168 49 q 216 65 197 49 q 253 107 235 82 q 288 160 272 132 q 311 211 303 189 q 349 326 339 274 q 363 446 360 379 q 361 524 364 481 q 349 604 358 567 q 321 667 339 642 q 272 692 303 692 q 222 660 243 692 q 185 588 200 629 q 162 508 171 547 q 151 454 153 469 q 121 258 136 354 q 82 65 106 163 l 58 -24 q 42 -77 51 -47 q 24 -131 32 -107 q 76 -143 53 -133 q 118 -167 100 -153 q 162 -232 153 -196 q 158 -300 171 -268 q 112 -354 144 -332 q 31 -376 79 -376 q -37 -367 -1 -376 q -110 -342 -72 -357 q -169 -376 -137 -364 q -236 -389 -200 -389 q -272 -376 -261 -389 q -285 -344 -283 -364 q -279 -303 -286 -325 q -261 -262 -272 -282 q -353 -209 -303 -239 q -455 -153 -403 -179 q -559 -106 -507 -126 q -658 -81 -611 -86 q -792 -87 -728 -74 q -909 -133 -857 -100 q -997 -220 -961 -167 q -1047 -344 -1033 -274 q -1051 -440 -1056 -393 q -1026 -525 -1046 -486 q -969 -590 -1006 -564 q -878 -622 -932 -617 q -798 -618 -837 -626 q -723 -590 -758 -610 q -660 -540 -687 -569 q -618 -472 -633 -510 q -606 -455 -614 -460 q -590 -452 -597 -450 q -580 -462 -583 -454 q -581 -483 -576 -471 q -628 -563 -597 -528 q -701 -622 -660 -599 q -788 -656 -742 -646 q -882 -661 -835 -667 q -988 -624 -944 -654 q -1057 -551 -1032 -594 q -1089 -453 -1082 -507 q -1086 -344 -1096 -399 q -1033 -203 -1072 -264 q -935 -104 -993 -143 q -806 -49 -878 -65 q -654 -42 -733 -33 q -548 -68 -603 -47 q -439 -117 -493 -89 q -333 -175 -385 -144 q -236 -232 -282 -206 q -115 -146 -193 -185 q -98 -85 -107 -118 q -82 -24 -89 -51 m 31 -337 q 88 -323 65 -337 q 121 -287 111 -308 q 124 -242 131 -267 q 93 -197 118 -218 q 57 -178 78 -186 q 8 -169 36 -171 q -32 -247 -11 -210 q -79 -311 -53 -283 q -22 -331 -49 -324 q 31 -337 6 -337 m -229 -342 q -186 -304 -211 -342 l -226 -283 q -241 -324 -242 -307 q -229 -342 -240 -342 m -165 -271 q -150 -239 -158 -256 q -133 -200 -142 -222 q -201 -251 -175 -225 q -183 -262 -192 -257 q -165 -271 -175 -267 z "},"":{"ha":693,"x_min":-689,"x_max":593,"o":"m 379 225 q 347 157 367 196 q 300 83 326 118 q 242 25 274 49 q 172 1 210 1 q 95 21 126 1 q 43 73 64 40 q 10 147 22 106 q -6 229 -1 188 q -3 362 -12 292 q 15 493 6 432 q 38 626 26 564 q 58 717 50 688 q 86 737 63 729 q 137 746 110 744 q 183 740 164 747 q 199 715 203 733 q 176 600 188 654 q 154 492 165 546 q 131 364 142 426 q 114 235 119 301 q 113 165 111 199 q 120 105 114 131 q 140 64 126 79 q 176 49 154 49 q 224 66 201 49 q 267 108 247 83 q 303 160 288 133 q 328 204 319 186 q 407 417 378 306 q 419 506 413 458 q 431 598 425 554 q 441 674 436 642 q 449 717 446 706 q 476 737 451 729 q 526 746 500 744 q 573 740 553 747 q 589 715 593 733 q 581 650 585 681 q 574 588 578 619 q 565 524 569 557 q 554 454 560 492 q 530 292 543 381 q 501 121 517 204 q 488 62 496 93 q 471 -3 481 31 q 451 -69 461 -36 q 431 -131 440 -101 q 483 -143 460 -133 q 525 -167 507 -153 q 569 -232 560 -196 q 565 -300 578 -268 q 519 -354 551 -332 q 438 -376 486 -376 q 370 -367 406 -376 q 297 -342 335 -357 q 238 -376 269 -364 q 171 -389 207 -389 q 135 -376 146 -389 q 122 -344 124 -364 q 128 -303 121 -325 q 146 -262 135 -282 q 54 -209 104 -239 q -48 -153 4 -179 q -152 -106 -100 -126 q -251 -81 -204 -86 q -385 -87 -321 -74 q -502 -133 -450 -100 q -590 -220 -554 -167 q -640 -344 -626 -274 q -644 -440 -649 -393 q -619 -525 -639 -486 q -562 -590 -599 -564 q -471 -622 -525 -617 q -391 -618 -431 -626 q -316 -590 -351 -610 q -253 -540 -281 -569 q -211 -472 -226 -510 q -199 -455 -207 -460 q -183 -452 -190 -450 q -173 -462 -176 -454 q -174 -483 -169 -471 q -222 -563 -190 -528 q -294 -622 -253 -599 q -381 -656 -335 -646 q -475 -661 -428 -667 q -581 -624 -537 -654 q -650 -551 -625 -594 q -682 -453 -675 -507 q -679 -344 -689 -399 q -626 -203 -665 -264 q -528 -104 -586 -143 q -399 -49 -471 -65 q -247 -42 -326 -33 q -141 -68 -196 -47 q -32 -117 -86 -89 q 74 -175 22 -144 q 171 -232 125 -206 q 292 -146 214 -185 l 379 225 m 438 -337 q 495 -323 472 -337 q 528 -287 518 -308 q 531 -242 538 -267 q 500 -197 525 -218 q 464 -178 485 -186 q 415 -169 443 -171 q 375 -247 396 -210 q 328 -311 354 -283 q 385 -331 358 -324 q 438 -337 413 -337 m 178 -342 q 221 -304 196 -342 l 181 -283 q 166 -324 165 -307 q 178 -342 167 -342 m 242 -271 q 257 -239 249 -256 q 274 -200 265 -222 q 206 -251 232 -225 q 224 -262 215 -257 q 242 -271 232 -267 z "},"":{"ha":692,"x_min":-711,"x_max":750,"o":"m 215 49 q 266 81 240 49 q 314 161 292 113 q 242 151 278 163 q 190 107 206 139 q 186 69 182 90 q 215 49 190 49 m 200 653 q 258 717 225 693 q 331 742 290 742 q 424 708 388 742 q 481 626 461 675 q 507 521 501 578 q 508 417 513 464 q 490 293 503 349 q 446 178 476 238 q 492 170 467 172 q 541 171 517 168 q 588 183 565 174 q 624 211 610 193 q 653 260 639 232 q 678 316 667 288 q 697 372 689 344 q 713 421 706 400 l 750 421 q 733 365 743 397 q 711 300 724 333 q 684 236 699 267 q 653 188 669 206 q 604 150 632 163 q 547 135 576 138 q 485 135 517 132 q 426 144 454 139 q 390 92 411 118 q 344 47 369 67 q 288 14 318 26 q 224 1 257 1 q 183 13 200 1 q 156 43 165 25 q 147 83 147 61 q 157 126 146 106 q 229 188 179 172 q 329 197 279 203 q 362 306 350 253 q 381 419 374 360 q 388 492 383 446 q 391 582 393 538 q 374 659 389 626 q 325 692 360 692 q 274 667 300 692 q 224 608 247 642 q 185 541 201 575 q 163 488 168 507 q 142 390 151 447 q 124 269 132 332 q 110 144 117 206 q 97 33 103 82 q 72 10 96 19 q 22 1 49 1 q -27 7 -6 0 q -44 33 -49 14 q -18 256 -33 150 q 14 474 -3 361 q 27 553 18 508 q 47 647 36 599 q 73 746 58 696 q 103 839 88 796 q -92 808 8 813 q -287 826 -192 804 q -466 899 -382 849 q -612 1029 -550 949 q -672 1131 -649 1076 q -703 1244 -696 1186 q -701 1360 -711 1303 q -660 1471 -692 1418 q -585 1558 -631 1521 q -486 1615 -540 1594 q -374 1636 -432 1635 q -260 1618 -315 1638 q -144 1543 -186 1592 q -86 1433 -103 1494 q -74 1303 -69 1371 q -97 1169 -78 1235 q -112 1142 -103 1150 q -128 1137 -121 1135 q -137 1149 -135 1139 q -135 1179 -140 1160 q -112 1299 -118 1238 q -121 1415 -107 1360 q -172 1514 -135 1469 q -274 1582 -208 1558 q -374 1597 -322 1599 q -472 1578 -425 1596 q -560 1527 -519 1560 q -626 1451 -600 1494 q -663 1351 -654 1403 q -665 1247 -672 1299 q -635 1145 -657 1194 q -582 1054 -614 1096 q -437 928 -521 975 q -260 861 -354 881 q -69 849 -167 842 q 119 885 29 856 q 165 983 139 936 q 222 1066 190 1031 q 293 1122 254 1101 q 378 1143 332 1143 q 418 1126 407 1143 q 428 1084 429 1108 q 415 1035 426 1060 q 386 993 403 1010 q 257 899 346 946 l 200 653 m 356 1018 q 383 1072 381 1050 q 372 1096 385 1094 q 331 1063 358 1096 q 276 954 304 1031 q 356 1018 329 986 z "},"":{"ha":740,"x_min":-372,"x_max":800,"o":"m 343 347 q 347 389 344 365 q 353 438 350 413 q 359 486 356 463 q 365 529 363 510 q 361 586 364 557 q 351 640 358 615 q 331 679 343 664 q 301 694 319 694 q 261 676 281 694 q 224 627 242 657 q 190 560 206 597 q 160 485 174 522 q 135 413 146 447 q 119 357 125 379 q 110 318 115 346 q 101 256 106 290 q 97 185 97 222 q 103 118 97 149 q 122 68 108 88 q 163 49 136 49 q 226 83 197 49 q 278 167 256 118 q 318 265 301 215 q 343 347 335 315 m 506 538 q 478 393 494 465 q 456 250 463 321 q 451 194 453 228 q 454 127 449 160 q 474 72 460 94 q 519 49 489 49 q 568 66 544 49 q 612 108 592 83 q 649 158 632 132 q 675 204 665 185 q 724 310 701 257 q 761 421 746 364 l 800 421 q 763 311 785 367 q 717 204 742 256 q 684 142 704 178 q 638 76 664 107 q 580 23 611 44 q 514 1 549 1 q 433 22 464 1 q 383 74 401 42 q 356 147 364 107 q 344 225 347 186 q 311 145 331 185 q 268 74 292 106 q 215 22 244 42 q 150 1 185 1 q 49 40 86 1 q -4 138 13 79 q -18 263 -21 196 q 0 388 -15 331 q 39 504 15 442 q 98 619 63 567 q 182 707 133 672 q 294 742 231 742 q 334 733 318 742 q 360 711 350 725 q 378 680 371 697 q 389 646 385 663 q 412 741 400 688 q 442 839 424 794 q 247 808 347 813 q 52 826 147 804 q -127 899 -43 849 q -274 1029 -211 949 q -333 1131 -310 1076 q -365 1244 -357 1186 q -362 1360 -372 1303 q -321 1471 -353 1418 q -247 1558 -292 1521 q -147 1615 -201 1594 q -35 1636 -93 1635 q 79 1618 24 1638 q 194 1543 153 1592 q 253 1433 236 1494 q 265 1303 269 1371 q 242 1169 261 1235 q 227 1142 236 1150 q 211 1137 218 1135 q 201 1149 204 1139 q 204 1179 199 1160 q 226 1299 221 1238 q 218 1415 232 1360 q 167 1514 204 1469 q 65 1582 131 1558 q -35 1597 17 1599 q -133 1578 -86 1596 q -221 1527 -181 1560 q -287 1451 -261 1494 q -324 1351 -315 1403 q -326 1247 -333 1299 q -297 1145 -318 1194 q -243 1054 -275 1096 q -99 928 -182 975 q 78 861 -15 881 q 270 849 172 842 q 458 885 368 856 q 503 983 478 936 q 561 1066 529 1031 q 632 1122 593 1101 q 717 1143 671 1143 q 757 1126 746 1143 q 767 1084 768 1108 q 753 1035 765 1060 q 725 993 742 1010 q 596 899 685 946 l 506 538 m 694 1018 q 722 1072 719 1050 q 711 1096 724 1094 q 670 1063 697 1096 q 615 954 643 1031 q 694 1018 668 986 z "},"":{"ha":363,"x_min":-711,"x_max":429,"o":"m 169 -150 q 135 -60 156 -108 q 86 43 114 -12 q 74 -78 79 -14 q 72 -200 69 -143 q 85 -299 74 -257 q 124 -353 97 -342 q 163 -352 149 -364 q 183 -319 176 -340 q 190 -234 197 -278 q 169 -150 183 -190 m 224 775 q 210 720 218 751 q 194 656 203 689 q 179 592 186 624 q 167 538 172 561 q 131 345 150 439 q 100 151 113 251 q 213 174 163 154 q 303 244 264 193 q 351 328 335 286 q 383 421 368 371 l 421 421 q 388 317 406 365 q 333 222 369 269 q 228 139 288 163 q 94 114 168 115 l 94 113 q 160 -24 132 38 q 207 -139 189 -86 q 229 -234 222 -187 q 221 -331 236 -281 q 176 -395 206 -375 q 101 -394 147 -415 q 19 -326 50 -372 q -27 -222 -11 -281 q -47 -96 -43 -162 q -49 35 -51 -29 q -38 156 -46 99 q -24 254 -31 214 q 7 424 -8 338 q 38 594 22 511 q 56 680 44 631 q 82 775 68 729 q 103 839 92 810 q -92 808 8 813 q -287 826 -192 804 q -466 899 -382 849 q -612 1029 -550 949 q -672 1131 -649 1076 q -703 1244 -696 1186 q -701 1360 -711 1303 q -660 1471 -692 1418 q -585 1558 -631 1521 q -486 1615 -540 1594 q -374 1636 -432 1635 q -260 1618 -315 1638 q -144 1543 -186 1592 q -86 1433 -103 1494 q -74 1303 -69 1371 q -97 1169 -78 1235 q -112 1142 -103 1150 q -128 1137 -121 1135 q -137 1149 -135 1139 q -135 1179 -140 1160 q -112 1299 -118 1238 q -121 1415 -107 1360 q -172 1514 -135 1469 q -274 1582 -208 1558 q -374 1597 -322 1599 q -472 1578 -425 1596 q -560 1527 -519 1560 q -626 1451 -600 1494 q -663 1351 -654 1403 q -665 1247 -672 1299 q -635 1145 -657 1194 q -582 1054 -614 1096 q -437 928 -521 975 q -260 861 -354 881 q -69 849 -167 842 q 119 885 29 856 q 165 983 139 936 q 222 1066 190 1031 q 293 1122 254 1101 q 378 1143 332 1143 q 418 1126 407 1143 q 428 1084 429 1108 q 415 1035 426 1060 q 386 993 403 1010 q 257 899 346 946 q 240 837 247 868 q 224 775 232 806 m 356 1018 q 383 1072 381 1050 q 372 1096 385 1094 q 331 1063 358 1096 q 276 954 304 1031 q 356 1018 329 986 z "},"":{"ha":663,"x_min":-19,"x_max":1097,"o":"m 453 82 q 444 45 450 69 q 431 -4 438 21 q 417 -49 424 -29 q 410 -75 411 -69 q 622 -108 513 -76 q 826 -194 731 -139 q 994 -326 922 -249 q 1094 -494 1065 -403 q 1085 -509 1097 -506 q 1068 -500 1072 -512 q 968 -344 1040 -415 q 801 -221 896 -272 q 599 -142 707 -169 q 394 -115 492 -114 l 382 -150 q 336 -240 361 -197 q 281 -313 311 -282 q 213 -362 250 -344 q 133 -381 176 -381 q 92 -367 107 -381 q 72 -333 76 -354 q 72 -285 67 -312 q 92 -231 76 -258 q 165 -142 119 -178 q 268 -90 210 -106 l 292 10 q 317 114 304 63 q 340 217 331 165 q 308 140 326 178 q 265 71 289 101 q 212 21 240 40 q 149 1 183 1 q 48 40 85 1 q -4 138 11 79 q -17 263 -19 196 q 0 388 -15 331 q 46 510 17 447 q 115 625 75 574 q 206 709 156 676 q 318 742 257 742 q 378 714 358 742 q 406 646 397 686 q 411 685 410 671 q 415 717 413 699 q 441 739 417 731 q 492 749 465 747 q 540 742 519 750 q 557 715 561 733 q 531 520 546 618 q 499 326 517 422 q 478 203 489 265 q 453 82 467 142 m 372 528 q 373 587 374 557 q 367 641 372 617 q 351 680 363 665 q 321 694 340 694 q 274 673 297 694 q 228 617 250 651 q 189 543 207 583 q 157 465 171 503 q 133 398 143 428 q 121 357 124 368 q 111 318 117 346 q 101 256 106 290 q 97 185 97 222 q 101 118 96 149 q 121 68 107 88 q 161 49 135 49 q 225 83 196 49 q 278 167 254 118 q 317 265 301 215 q 342 347 333 315 q 364 444 358 400 q 372 528 369 489 m 215 -242 q 236 -190 226 -217 q 254 -136 246 -164 q 188 -177 218 -149 q 139 -236 158 -206 q 110 -303 115 -274 q 128 -333 104 -333 q 174 -308 151 -333 q 215 -242 196 -282 z "},"":{"ha":738,"x_min":-717,"x_max":799,"o":"m 186 646 q 260 714 222 686 q 351 742 299 742 q 462 716 422 742 q 519 649 501 690 q 538 555 538 607 q 528 450 538 503 q 493 310 514 382 q 460 181 472 239 q 450 85 447 122 q 489 49 453 49 q 539 66 514 49 q 586 108 564 83 q 626 160 608 133 q 656 204 644 186 q 714 311 688 257 q 760 421 740 365 l 799 421 q 753 311 779 367 q 699 206 728 256 q 660 143 683 178 q 609 76 638 108 q 547 23 581 44 q 479 1 514 1 q 376 42 404 1 q 349 149 349 83 q 367 293 349 214 q 404 450 385 372 q 419 526 413 483 q 424 606 426 568 q 406 669 422 643 q 349 694 389 694 q 276 664 311 694 q 213 590 242 633 q 166 500 185 547 q 143 419 147 453 q 138 388 140 403 q 132 337 136 374 q 119 230 128 300 q 93 33 110 160 q 67 10 90 19 q 16 1 43 1 q -32 7 -11 0 q -49 33 -53 14 q -11 316 -33 176 q 36 597 11 456 q 62 716 47 649 q 97 839 76 783 q -97 808 3 813 q -292 826 -197 804 q -472 899 -387 849 q -618 1029 -556 949 q -678 1131 -654 1076 q -709 1244 -701 1186 q -707 1360 -717 1303 q -665 1471 -697 1418 q -591 1558 -636 1521 q -492 1615 -546 1594 q -379 1636 -437 1635 q -265 1618 -321 1638 q -150 1543 -192 1592 q -92 1433 -108 1494 q -79 1303 -75 1371 q -103 1169 -83 1235 q -117 1142 -108 1150 q -133 1137 -126 1135 q -143 1149 -140 1139 q -140 1179 -146 1160 q -118 1299 -124 1238 q -126 1415 -112 1360 q -177 1514 -140 1469 q -279 1582 -214 1558 q -379 1597 -328 1599 q -478 1578 -431 1596 q -565 1527 -525 1560 q -632 1451 -606 1494 q -669 1351 -660 1403 q -670 1247 -678 1299 q -641 1145 -662 1194 q -587 1054 -619 1096 q -443 928 -526 975 q -266 861 -360 881 q -74 849 -172 842 q 114 885 24 856 q 159 983 133 936 q 217 1066 185 1031 q 288 1122 249 1101 q 372 1143 326 1143 q 413 1126 401 1143 q 422 1084 424 1108 q 409 1035 421 1060 q 381 993 397 1010 q 251 899 340 946 l 186 646 m 350 1018 q 377 1072 375 1050 q 367 1096 379 1094 q 326 1063 353 1096 q 271 954 299 1031 q 350 1018 324 986 z "},"":{"ha":297,"x_min":-301,"x_max":729,"o":"m 83 78 q 75 45 81 68 q 63 -3 69 22 q 49 -49 56 -28 q 42 -75 43 -69 q 253 -108 144 -76 q 458 -194 363 -139 q 626 -326 554 -249 q 726 -494 697 -403 q 717 -509 729 -506 q 700 -500 704 -512 q 600 -344 672 -415 q 433 -221 528 -272 q 231 -142 339 -169 q 26 -115 124 -114 l 14 -150 q -32 -240 -7 -197 q -87 -313 -57 -282 q -155 -362 -118 -344 q -235 -381 -192 -381 q -276 -367 -261 -381 q -297 -333 -292 -354 q -297 -285 -301 -312 q -276 -231 -292 -258 q -203 -142 -249 -178 q -100 -90 -158 -106 l -72 10 q -37 163 -53 86 q -10 319 -21 240 q -4 365 -8 333 q 6 438 0 397 q 17 524 11 479 q 28 609 22 569 q 38 678 33 649 q 44 717 42 707 q 71 737 47 729 q 121 746 94 744 q 168 740 147 747 q 185 715 189 733 q 177 650 181 681 q 169 588 174 619 q 160 524 165 557 q 150 454 156 492 q 121 265 135 358 q 83 78 107 172 m -153 -242 q -132 -190 -142 -217 q -114 -136 -122 -164 q -180 -177 -150 -149 q -229 -236 -210 -206 q -258 -303 -253 -274 q -240 -333 -264 -333 q -194 -308 -217 -333 q -153 -242 -172 -282 m 138 935 q 183 915 165 935 q 197 865 200 894 q 176 816 194 836 q 129 796 157 796 q 85 816 103 796 q 69 865 67 836 q 92 915 72 894 q 138 935 111 935 z "},"":{"ha":617,"x_min":-718,"x_max":678,"o":"m 140 397 q 165 392 139 392 q 228 403 192 392 q 299 444 264 415 q 353 522 335 472 q 363 567 358 538 q 367 626 368 597 q 357 677 367 656 q 322 699 347 699 q 274 679 299 699 q 226 629 249 660 q 186 560 204 599 q 160 486 168 522 q 153 455 156 465 q 148 437 150 444 q 144 421 146 429 q 140 397 143 413 m 189 653 q 254 716 218 690 q 340 742 290 742 q 413 724 382 742 q 464 676 444 706 q 490 612 483 647 q 486 542 496 576 q 452 462 474 494 q 401 408 431 429 q 334 373 371 386 q 256 350 297 360 q 253 316 253 338 q 255 269 253 294 q 263 215 257 243 q 279 160 268 186 q 293 130 283 149 q 315 93 303 111 q 342 62 328 75 q 368 49 356 49 q 418 66 393 49 q 466 108 443 83 q 507 158 489 132 q 536 204 525 185 q 594 311 568 257 q 640 421 619 365 l 678 421 q 633 311 658 367 q 579 206 607 256 q 535 133 558 169 q 483 68 513 97 q 418 20 454 39 q 336 1 382 1 q 253 36 288 1 q 194 118 218 71 q 173 178 182 144 q 157 245 164 211 q 145 310 150 279 q 135 365 140 342 l 93 33 q 67 10 90 19 q 16 1 43 1 q -32 7 -11 0 q -49 33 -53 14 q -11 316 -33 176 q 36 597 11 456 q 47 653 40 622 q 60 716 53 683 q 76 780 68 749 q 96 839 85 811 q -99 808 1 813 q -294 826 -199 804 q -473 899 -389 849 q -619 1029 -557 949 q -679 1131 -656 1076 q -710 1244 -703 1186 q -708 1360 -718 1303 q -667 1471 -699 1418 q -592 1558 -637 1521 q -493 1615 -547 1594 q -381 1636 -439 1635 q -267 1618 -322 1638 q -151 1543 -193 1592 q -93 1433 -110 1494 q -81 1303 -76 1371 q -104 1169 -85 1235 q -119 1142 -110 1150 q -135 1137 -128 1135 q -144 1149 -142 1139 q -142 1179 -147 1160 q -119 1299 -125 1238 q -128 1415 -114 1360 q -178 1514 -142 1469 q -281 1582 -215 1558 q -381 1597 -329 1599 q -479 1578 -432 1596 q -567 1527 -526 1560 q -633 1451 -607 1494 q -670 1351 -661 1403 q -672 1247 -679 1299 q -642 1145 -664 1194 q -589 1054 -621 1096 q -444 928 -528 975 q -267 861 -361 881 q -76 849 -174 842 q 113 885 22 856 q 158 983 132 936 q 215 1066 183 1031 q 286 1122 247 1101 q 371 1143 325 1143 q 411 1126 400 1143 q 421 1084 422 1108 q 408 1035 419 1060 q 379 993 396 1010 q 250 899 339 946 l 189 653 m 349 1018 q 376 1072 374 1050 q 365 1096 378 1094 q 324 1063 351 1096 q 269 954 297 1031 q 349 1018 322 986 z "},"":{"ha":394,"x_min":-719,"x_max":453,"o":"m 158 538 q 131 392 146 465 q 108 246 115 318 q 104 190 106 225 q 108 124 103 156 q 127 68 113 92 q 172 44 142 44 q 221 62 197 44 q 265 104 244 79 q 302 156 286 129 q 328 201 318 182 q 377 307 356 253 q 415 418 399 361 l 453 418 q 417 308 438 363 q 369 201 396 253 q 337 140 357 175 q 290 73 317 104 q 233 20 264 42 q 167 -1 201 -1 q 81 22 114 -1 q 31 82 49 46 q 5 163 13 118 q -4 249 -3 207 q 4 422 -7 328 q 31 594 15 515 q 58 714 42 646 q 94 839 74 782 q -100 808 0 813 q -295 826 -200 804 q -474 899 -390 849 q -621 1029 -558 949 q -681 1131 -657 1076 q -712 1244 -704 1186 q -710 1360 -719 1303 q -668 1471 -700 1418 q -594 1558 -639 1521 q -494 1615 -549 1594 q -382 1636 -440 1635 q -268 1618 -324 1638 q -153 1543 -194 1592 q -94 1433 -111 1494 q -82 1303 -78 1371 q -106 1169 -86 1235 q -120 1142 -111 1150 q -136 1137 -129 1135 q -146 1149 -143 1139 q -143 1179 -149 1160 q -121 1299 -126 1238 q -129 1415 -115 1360 q -180 1514 -143 1469 q -282 1582 -217 1558 q -382 1597 -331 1599 q -481 1578 -433 1596 q -568 1527 -528 1560 q -635 1451 -608 1494 q -672 1351 -662 1403 q -673 1247 -681 1299 q -644 1145 -665 1194 q -590 1054 -622 1096 q -446 928 -529 975 q -269 861 -362 881 q -77 849 -175 842 q 111 885 21 856 q 156 983 131 936 q 214 1066 182 1031 q 285 1122 246 1101 q 369 1143 324 1143 q 410 1126 399 1143 q 419 1084 421 1108 q 406 1035 418 1060 q 378 993 394 1010 q 249 899 338 946 l 158 538 m 347 1018 q 374 1072 372 1050 q 364 1096 376 1094 q 323 1063 350 1096 q 268 954 296 1031 q 347 1018 321 986 z "},"":{"ha":656,"x_min":-301,"x_max":729,"o":"m 72 26 q 65 1 69 17 q 56 -28 61 -14 q 47 -56 51 -43 q 42 -75 43 -69 q 253 -108 144 -76 q 458 -194 363 -139 q 626 -326 554 -249 q 726 -494 697 -403 q 717 -509 729 -506 q 700 -500 704 -512 q 600 -344 672 -415 q 433 -221 528 -272 q 231 -142 339 -169 q 26 -115 124 -114 l 14 -150 q -32 -240 -7 -197 q -87 -313 -57 -282 q -155 -362 -118 -344 q -235 -381 -192 -381 q -276 -367 -261 -381 q -297 -333 -292 -354 q -297 -285 -301 -312 q -276 -231 -292 -258 q -203 -142 -249 -178 q -100 -90 -158 -106 l -74 8 q -37 163 -54 85 q -8 319 -19 240 q -2 368 -7 333 q 8 448 3 403 q 20 543 14 493 q 33 636 26 593 q 43 711 39 679 q 50 753 47 743 q 77 774 53 765 q 128 783 101 782 q 174 778 154 785 q 190 753 194 771 q 178 649 186 703 q 196 679 183 663 q 224 710 208 696 q 259 733 240 724 q 297 742 278 742 q 386 713 349 742 q 447 640 424 685 q 480 541 469 596 q 488 435 490 486 q 472 305 485 365 q 422 181 458 244 q 556 206 497 178 q 644 314 615 235 q 663 372 656 343 q 678 421 671 400 l 715 421 q 703 372 710 400 q 685 314 696 344 q 574 172 649 210 q 399 144 499 133 q 358 92 381 118 q 308 47 335 67 q 249 14 281 26 q 185 1 218 1 q 144 13 161 1 q 120 43 128 25 q 114 83 113 61 q 128 126 115 106 q 160 164 140 149 q 204 188 181 179 q 253 198 228 196 q 304 197 279 200 q 331 261 319 231 q 348 321 342 292 q 358 381 354 350 q 363 446 361 411 q 361 524 364 481 q 349 604 358 567 q 321 667 339 642 q 272 692 303 692 q 222 660 243 692 q 185 588 200 629 q 162 508 171 547 q 151 454 153 469 q 117 240 133 346 q 72 26 100 135 m -153 -242 q -132 -190 -142 -217 q -114 -136 -122 -164 q -180 -177 -150 -149 q -229 -236 -210 -206 q -258 -303 -253 -274 q -240 -333 -264 -333 q -194 -308 -217 -333 q -153 -242 -172 -282 m 181 49 q 233 81 206 49 q 286 161 261 113 q 215 151 251 163 q 160 107 179 139 q 153 69 150 90 q 181 49 156 49 z "},"":{"ha":667,"x_min":-19,"x_max":726,"o":"m 726 421 q 693 317 711 365 q 639 222 675 269 q 556 149 603 174 q 454 118 510 125 q 527 -22 494 43 q 579 -139 560 -86 q 608 -234 599 -187 q 604 -331 617 -281 q 576 -384 594 -364 q 531 -404 558 -404 q 447 -377 482 -404 q 390 -306 413 -350 q 356 -205 368 -261 q 339 -90 344 -149 q 333 26 333 -31 q 335 127 333 83 q 340 198 338 171 q 343 225 343 225 q 310 145 329 185 q 267 74 290 106 q 213 22 243 42 q 149 1 183 1 q 48 40 85 1 q -4 138 11 79 q -17 263 -19 196 q 0 388 -15 331 q 46 510 17 447 q 115 625 75 574 q 206 709 156 676 q 318 742 257 742 q 378 715 358 742 q 406 647 397 688 q 417 692 411 671 q 424 726 421 710 q 429 750 428 743 q 452 772 432 764 q 495 782 472 781 q 535 775 518 783 q 546 749 551 767 q 534 678 540 714 q 521 607 528 643 q 502 506 511 558 q 482 375 493 453 q 467 267 472 321 q 457 156 461 213 q 540 183 503 163 q 610 244 578 204 q 658 328 642 286 q 689 421 674 371 l 726 421 m 372 529 q 373 586 374 557 q 367 640 372 615 q 350 679 361 664 q 321 694 339 694 q 274 673 297 694 q 228 617 250 651 q 189 543 207 583 q 157 465 171 503 q 133 398 143 428 q 121 357 124 368 q 111 318 117 346 q 101 256 106 290 q 97 185 97 222 q 101 118 96 149 q 121 68 107 88 q 161 49 135 49 q 225 83 196 49 q 278 167 254 118 q 317 265 301 215 q 342 347 333 315 q 353 399 349 376 q 360 442 357 422 q 365 483 363 463 q 372 529 368 503 m 543 -150 q 504 -61 528 -108 q 450 43 481 -14 q 447 -10 449 26 q 444 -90 444 -46 q 445 -182 443 -135 q 456 -268 447 -229 q 483 -333 465 -307 q 528 -358 500 -358 q 552 -347 543 -358 q 565 -319 561 -336 q 567 -234 576 -278 q 543 -150 558 -190 z "},"":{"ha":693,"x_min":-12,"x_max":1131,"o":"m 492 86 q 460 -24 472 15 q 443 -75 447 -64 q 655 -108 546 -76 q 860 -194 764 -139 q 1027 -326 956 -249 q 1128 -494 1099 -403 q 1118 -509 1131 -506 q 1101 -500 1106 -512 q 1001 -344 1074 -415 q 835 -221 929 -272 q 633 -142 740 -169 q 428 -115 525 -114 l 415 -150 q 369 -240 394 -197 q 314 -313 344 -282 q 247 -362 283 -344 q 167 -381 210 -381 q 125 -367 140 -381 q 105 -333 110 -354 q 105 -285 100 -312 q 125 -231 110 -258 q 198 -142 153 -178 q 301 -90 243 -106 l 332 22 q 356 124 344 74 q 379 225 368 174 q 347 157 367 196 q 300 83 326 118 q 242 25 274 49 q 172 1 210 1 q 95 21 126 1 q 43 73 64 40 q 10 147 22 106 q -6 229 -1 188 q -3 362 -12 292 q 15 493 6 432 q 38 626 26 564 q 58 717 50 688 q 86 737 63 729 q 137 746 110 744 q 183 740 164 747 q 199 715 203 733 q 176 600 188 654 q 154 492 165 546 q 131 364 142 426 q 114 235 119 301 q 113 165 111 199 q 120 105 114 131 q 140 64 126 79 q 176 49 154 49 q 224 66 201 49 q 267 108 247 83 q 303 160 288 133 q 328 204 319 186 q 407 417 378 306 q 419 506 413 458 q 431 598 425 554 q 441 674 436 642 q 449 717 446 706 q 476 737 451 729 q 526 746 500 744 q 573 740 553 747 q 589 715 593 733 q 581 650 585 681 q 574 588 578 619 q 565 524 569 557 q 554 454 560 492 q 526 269 540 361 q 492 86 513 178 m 249 -242 q 269 -190 260 -217 q 288 -136 279 -164 q 222 -177 251 -149 q 172 -236 192 -206 q 143 -303 149 -274 q 161 -333 138 -333 q 207 -308 185 -333 q 249 -242 229 -282 z "},"":{"ha":692,"x_min":-49,"x_max":1236,"o":"m 200 653 q 258 717 225 693 q 331 742 290 742 q 424 708 388 742 q 481 626 461 675 q 507 521 501 578 q 508 417 513 464 q 490 293 503 349 q 446 178 476 238 q 492 170 467 172 q 541 171 517 168 q 588 183 565 174 q 624 211 610 193 q 653 260 639 232 q 678 316 667 288 q 697 372 689 344 q 713 421 706 400 l 750 421 q 733 365 743 397 q 711 300 724 333 q 684 236 699 267 q 653 188 669 206 q 604 150 632 163 q 547 135 576 138 q 485 135 517 132 q 426 144 454 139 q 390 92 411 118 q 344 47 369 67 q 288 14 318 26 q 224 1 257 1 q 183 13 200 1 q 156 43 165 25 q 147 83 147 61 q 157 126 146 106 q 229 188 179 172 q 329 197 279 203 q 362 306 350 253 q 381 419 374 360 q 388 492 383 446 q 391 582 393 538 q 374 659 389 626 q 325 692 360 692 q 274 667 300 692 q 224 608 247 642 q 185 541 201 575 q 163 488 168 507 q 142 390 151 447 q 124 269 132 332 q 110 144 117 206 q 97 33 103 82 q 72 10 96 19 q 22 1 49 1 q -27 7 -6 0 q -44 33 -49 14 q -18 256 -33 150 q 14 474 -3 361 q 30 565 19 513 q 53 672 40 617 q 83 783 67 728 q 117 885 100 838 q 64 897 88 888 q 24 921 40 907 q -22 986 -12 950 q -17 1054 -31 1022 q 29 1108 -4 1086 q 111 1131 63 1131 q 178 1121 143 1131 q 251 1096 213 1111 q 310 1131 279 1118 q 376 1143 340 1143 q 413 1131 401 1143 q 426 1099 425 1118 q 421 1057 428 1079 q 401 1017 414 1035 q 494 963 444 992 q 597 906 544 933 q 701 860 649 879 q 800 835 753 840 q 934 841 869 828 q 1050 888 999 854 q 1138 974 1101 921 q 1188 1099 1174 1028 q 1191 1193 1196 1146 q 1166 1279 1186 1240 q 1109 1344 1146 1318 q 1018 1376 1072 1369 q 938 1372 978 1381 q 864 1343 899 1363 q 801 1293 829 1324 q 760 1225 774 1263 q 746 1208 754 1213 q 731 1206 738 1204 q 720 1217 724 1208 q 721 1238 717 1225 q 769 1317 738 1282 q 842 1376 801 1353 q 928 1410 882 1400 q 1022 1415 975 1421 q 1128 1378 1085 1408 q 1197 1305 1172 1349 q 1229 1207 1222 1261 q 1228 1099 1236 1153 q 1174 958 1214 1018 q 1076 858 1135 897 q 946 803 1018 819 q 796 796 874 788 q 690 822 744 801 q 581 871 635 843 q 475 929 526 899 q 378 986 424 960 q 256 899 338 942 l 200 653 m 133 924 q 173 1001 151 964 q 221 1065 194 1038 q 111 1092 157 1092 q 53 1077 76 1092 q 20 1042 29 1063 q 17 997 11 1021 q 49 951 24 972 q 85 933 64 940 q 133 924 106 925 m 215 49 q 266 81 240 49 q 314 161 292 113 q 242 151 278 163 q 190 107 206 139 q 186 69 182 90 q 215 49 190 49 m 367 1038 q 382 1078 382 1061 q 371 1096 382 1094 q 326 1058 351 1096 l 367 1038 m 275 954 q 342 1006 318 981 q 324 1016 332 1011 q 306 1025 315 1021 q 290 992 299 1010 q 275 954 282 975 z "},"":{"ha":740,"x_min":-21,"x_max":1574,"o":"m 506 538 q 478 393 494 465 q 456 250 463 321 q 451 194 453 228 q 454 127 449 160 q 474 72 460 94 q 519 49 489 49 q 568 66 544 49 q 612 108 592 83 q 649 158 632 132 q 675 204 665 185 q 724 310 701 257 q 761 421 746 364 l 800 421 q 763 311 785 367 q 717 204 742 256 q 684 142 704 178 q 638 76 664 107 q 580 23 611 44 q 514 1 549 1 q 433 22 464 1 q 383 74 401 42 q 356 147 364 107 q 344 225 347 186 q 311 145 331 185 q 268 74 292 106 q 215 22 244 42 q 150 1 185 1 q 49 40 86 1 q -4 138 13 79 q -18 263 -21 196 q 0 388 -15 331 q 39 504 15 442 q 98 619 63 567 q 182 707 133 672 q 294 742 231 742 q 334 733 318 742 q 360 711 350 725 q 378 680 371 697 q 389 646 385 663 q 417 765 400 701 q 454 885 435 829 q 401 897 425 888 q 361 921 378 907 q 316 986 325 950 q 320 1054 307 1022 q 367 1108 333 1086 q 449 1131 400 1131 q 515 1121 481 1131 q 589 1096 550 1111 q 647 1131 617 1118 q 714 1143 678 1143 q 751 1131 739 1143 q 764 1099 763 1118 q 758 1057 765 1079 q 739 1017 751 1035 q 832 963 782 992 q 934 906 882 933 q 1038 860 986 879 q 1138 835 1090 840 q 1272 841 1207 828 q 1388 888 1336 854 q 1475 974 1439 921 q 1525 1099 1511 1028 q 1528 1193 1533 1146 q 1503 1279 1524 1240 q 1447 1344 1483 1318 q 1356 1376 1410 1369 q 1276 1372 1315 1381 q 1201 1343 1236 1363 q 1139 1293 1167 1324 q 1097 1225 1111 1263 q 1083 1208 1092 1213 q 1068 1206 1075 1204 q 1058 1217 1061 1208 q 1058 1238 1054 1225 q 1107 1317 1075 1282 q 1179 1376 1139 1353 q 1266 1410 1219 1400 q 1360 1415 1313 1421 q 1466 1378 1422 1408 q 1535 1305 1510 1349 q 1567 1207 1560 1261 q 1565 1099 1574 1153 q 1512 958 1551 1018 q 1414 858 1472 897 q 1283 803 1356 819 q 1133 796 1211 788 q 1027 822 1082 801 q 918 871 972 843 q 813 929 864 899 q 715 986 761 960 q 593 899 675 942 l 506 538 m 343 347 q 347 389 344 365 q 353 438 350 413 q 359 486 356 463 q 365 529 363 510 q 361 586 364 557 q 351 640 358 615 q 331 679 343 664 q 301 694 319 694 q 261 676 281 694 q 224 627 242 657 q 190 560 206 597 q 160 485 174 522 q 135 413 146 447 q 119 357 125 379 q 110 318 115 346 q 101 256 106 290 q 97 185 97 222 q 103 118 97 149 q 122 68 108 88 q 163 49 136 49 q 226 83 197 49 q 278 167 256 118 q 318 265 301 215 q 343 347 335 315 m 471 924 q 510 1001 489 964 q 558 1065 532 1038 q 449 1092 494 1092 q 390 1077 414 1092 q 358 1042 367 1063 q 355 997 349 1021 q 386 951 361 972 q 422 933 401 940 q 471 924 443 925 m 704 1038 q 719 1078 719 1061 q 708 1096 719 1094 q 664 1058 689 1096 l 704 1038 m 613 954 q 679 1006 656 981 q 661 1016 669 1011 q 643 1025 653 1021 q 628 992 636 1010 q 613 954 619 975 z "},"":{"ha":363,"x_min":-51,"x_max":1236,"o":"m 222 775 q 208 719 215 750 q 194 657 201 689 q 179 594 186 625 q 167 538 172 563 q 131 345 150 439 q 100 151 113 251 q 213 174 163 154 q 303 244 264 193 q 351 328 335 286 q 383 421 368 371 l 421 421 q 388 317 406 365 q 333 222 369 269 q 228 139 288 163 q 94 114 168 115 l 94 113 q 160 -24 132 38 q 207 -139 189 -86 q 229 -234 222 -187 q 221 -331 236 -281 q 176 -395 206 -375 q 101 -394 147 -415 q 19 -326 50 -372 q -27 -222 -11 -281 q -47 -96 -43 -162 q -49 35 -51 -29 q -38 156 -46 99 q -24 254 -31 214 q 7 424 -8 338 q 38 594 22 511 q 56 680 44 632 q 82 775 68 728 q 98 830 90 803 q 117 885 106 857 q 64 897 88 888 q 24 921 40 907 q -22 986 -12 950 q -17 1054 -31 1022 q 29 1108 -4 1086 q 111 1131 63 1131 q 178 1121 143 1131 q 251 1096 213 1111 q 310 1131 279 1118 q 376 1143 340 1143 q 413 1131 401 1143 q 426 1099 425 1118 q 421 1057 428 1079 q 401 1017 414 1035 q 494 963 444 992 q 597 906 544 933 q 701 860 649 879 q 800 835 753 840 q 934 841 869 828 q 1050 888 999 854 q 1138 974 1101 921 q 1188 1099 1174 1028 q 1191 1193 1196 1146 q 1166 1279 1186 1240 q 1109 1344 1146 1318 q 1018 1376 1072 1369 q 938 1372 978 1381 q 864 1343 899 1363 q 801 1293 829 1324 q 760 1225 774 1263 q 746 1208 754 1213 q 731 1206 738 1204 q 720 1217 724 1208 q 721 1238 717 1225 q 769 1317 738 1282 q 842 1376 801 1353 q 928 1410 882 1400 q 1022 1415 975 1421 q 1128 1378 1085 1408 q 1197 1305 1172 1349 q 1229 1207 1222 1261 q 1228 1099 1236 1153 q 1174 958 1214 1018 q 1076 858 1135 897 q 946 803 1018 819 q 796 796 874 788 q 690 822 744 801 q 581 871 635 843 q 475 929 526 899 q 378 986 424 960 q 256 899 338 942 q 238 837 246 868 q 222 775 231 806 m 169 -150 q 135 -60 156 -108 q 86 43 114 -12 q 74 -78 79 -14 q 72 -200 69 -143 q 85 -299 74 -257 q 124 -353 97 -342 q 163 -352 149 -364 q 183 -319 176 -340 q 190 -234 197 -278 q 169 -150 183 -190 m 133 924 q 173 1001 151 964 q 221 1065 194 1038 q 111 1092 157 1092 q 53 1077 76 1092 q 20 1042 29 1063 q 17 997 11 1021 q 49 951 24 972 q 85 933 64 940 q 133 924 106 925 m 367 1038 q 382 1078 382 1061 q 371 1096 382 1094 q 326 1058 351 1096 l 367 1038 m 275 954 q 342 1006 318 981 q 324 1016 332 1011 q 306 1025 315 1021 q 290 992 299 1010 q 275 954 282 975 z "},"":{"ha":738,"x_min":-53,"x_max":1231,"o":"m 186 646 q 260 714 222 686 q 351 742 299 742 q 462 716 422 742 q 519 649 501 690 q 538 555 538 607 q 528 450 538 503 q 493 310 514 382 q 460 181 472 239 q 450 85 447 122 q 489 49 453 49 q 539 66 514 49 q 586 108 564 83 q 626 160 608 133 q 656 204 644 186 q 714 311 688 257 q 760 421 740 365 l 799 421 q 753 311 779 367 q 699 206 728 256 q 660 143 683 178 q 609 76 638 108 q 547 23 581 44 q 479 1 514 1 q 376 42 404 1 q 349 149 349 83 q 367 293 349 214 q 404 450 385 372 q 419 526 413 483 q 424 606 426 568 q 406 669 422 643 q 349 694 389 694 q 276 664 311 694 q 213 590 242 633 q 166 500 185 547 q 143 419 147 453 q 138 388 140 403 q 132 337 136 374 q 119 230 128 300 q 93 33 110 160 q 67 10 90 19 q 16 1 43 1 q -32 7 -11 0 q -49 33 -53 14 q -11 316 -33 176 q 36 597 11 456 q 67 740 47 661 q 111 885 88 818 q 58 897 82 888 q 18 921 35 907 q -27 986 -18 950 q -23 1054 -36 1022 q 24 1108 -10 1086 q 106 1131 57 1131 q 172 1121 138 1131 q 246 1096 207 1111 q 304 1131 274 1118 q 371 1143 335 1143 q 408 1131 396 1143 q 421 1099 419 1118 q 415 1057 422 1079 q 396 1017 408 1035 q 489 963 439 992 q 591 906 539 933 q 695 860 643 879 q 794 835 747 840 q 928 841 864 828 q 1044 888 993 854 q 1132 974 1096 921 q 1182 1099 1168 1028 q 1185 1193 1190 1146 q 1160 1279 1181 1240 q 1103 1344 1140 1318 q 1013 1376 1067 1369 q 933 1372 972 1381 q 858 1343 893 1363 q 796 1293 824 1324 q 754 1225 768 1263 q 740 1208 749 1213 q 725 1206 732 1204 q 715 1217 718 1208 q 715 1238 711 1225 q 764 1317 732 1282 q 836 1376 796 1353 q 923 1410 876 1400 q 1017 1415 969 1421 q 1123 1378 1079 1408 q 1192 1305 1167 1349 q 1224 1207 1217 1261 q 1222 1099 1231 1153 q 1169 958 1208 1018 q 1071 858 1129 897 q 940 803 1013 819 q 790 796 868 788 q 684 822 739 801 q 575 871 629 843 q 469 929 521 899 q 372 986 418 960 q 250 899 332 942 l 186 646 m 128 924 q 167 1001 146 964 q 215 1065 189 1038 q 106 1092 151 1092 q 47 1077 71 1092 q 15 1042 24 1063 q 12 997 6 1021 q 43 951 18 972 q 79 933 58 940 q 128 924 100 925 m 361 1038 q 376 1078 376 1061 q 365 1096 376 1094 q 321 1058 346 1096 l 361 1038 m 269 954 q 336 1006 313 981 q 318 1016 326 1011 q 300 1025 310 1021 q 285 992 293 1010 q 269 954 276 975 z "},"":{"ha":617,"x_min":-53,"x_max":1231,"o":"m 189 653 q 254 716 218 690 q 340 742 290 742 q 413 724 382 742 q 464 676 444 706 q 490 612 483 647 q 486 542 496 576 q 452 462 474 494 q 401 408 431 429 q 334 373 371 386 q 256 350 297 360 q 253 316 253 338 q 255 269 253 294 q 263 215 257 243 q 279 160 268 186 q 293 130 283 149 q 315 93 303 111 q 342 62 328 75 q 368 49 356 49 q 418 66 393 49 q 466 108 443 83 q 507 158 489 132 q 536 204 525 185 q 594 311 568 257 q 640 421 619 365 l 678 421 q 633 311 658 367 q 579 206 607 256 q 535 133 558 169 q 483 68 513 97 q 418 20 454 39 q 336 1 382 1 q 253 36 288 1 q 194 118 218 71 q 173 178 182 144 q 157 245 164 211 q 145 310 150 279 q 135 365 140 342 l 93 33 q 67 10 90 19 q 16 1 43 1 q -32 7 -11 0 q -49 33 -53 14 q -11 316 -33 176 q 36 597 11 456 q 68 740 49 661 q 111 885 88 818 q 58 897 82 888 q 18 921 35 907 q -27 986 -18 950 q -23 1054 -36 1022 q 24 1108 -10 1086 q 106 1131 57 1131 q 172 1121 138 1131 q 246 1096 207 1111 q 304 1131 274 1118 q 371 1143 335 1143 q 408 1131 396 1143 q 421 1099 419 1118 q 415 1057 422 1079 q 396 1017 408 1035 q 489 963 439 992 q 591 906 539 933 q 695 860 643 879 q 794 835 747 840 q 928 841 864 828 q 1044 888 993 854 q 1132 974 1096 921 q 1182 1099 1168 1028 q 1185 1193 1190 1146 q 1160 1279 1181 1240 q 1103 1344 1140 1318 q 1013 1376 1067 1369 q 933 1372 972 1381 q 858 1343 893 1363 q 796 1293 824 1324 q 754 1225 768 1263 q 740 1208 749 1213 q 725 1206 732 1204 q 715 1217 718 1208 q 715 1238 711 1225 q 764 1317 732 1282 q 836 1376 796 1353 q 923 1410 876 1400 q 1017 1415 969 1421 q 1123 1378 1079 1408 q 1192 1305 1167 1349 q 1224 1207 1217 1261 q 1222 1099 1231 1153 q 1169 958 1208 1018 q 1071 858 1129 897 q 940 803 1013 819 q 790 796 868 788 q 684 822 739 801 q 575 871 629 843 q 469 929 521 899 q 372 986 418 960 q 250 899 332 942 l 189 653 m 140 397 q 165 392 139 392 q 228 403 192 392 q 299 444 264 415 q 353 522 335 472 q 363 567 358 538 q 367 626 368 597 q 357 677 367 656 q 322 699 347 699 q 274 679 299 699 q 226 629 249 660 q 186 560 204 599 q 160 486 168 522 q 153 455 156 465 q 148 437 150 444 q 144 421 146 429 q 140 397 143 413 m 128 924 q 167 1001 146 964 q 215 1065 189 1038 q 106 1092 151 1092 q 47 1077 71 1092 q 15 1042 24 1063 q 12 997 6 1021 q 43 951 18 972 q 79 933 58 940 q 128 924 100 925 m 361 1038 q 376 1078 376 1061 q 365 1096 376 1094 q 321 1058 346 1096 l 361 1038 m 269 954 q 336 1006 313 981 q 318 1016 326 1011 q 300 1025 310 1021 q 285 992 293 1010 q 269 954 276 975 z "},"":{"ha":394,"x_min":-39,"x_max":1228,"o":"m 214 775 q 201 720 208 751 q 185 656 193 689 q 170 592 178 624 q 158 538 163 561 q 131 392 146 465 q 108 246 115 318 q 104 190 106 225 q 108 124 103 156 q 127 68 113 92 q 172 44 142 44 q 221 62 197 44 q 265 104 244 79 q 302 156 286 129 q 328 201 318 182 q 377 307 356 253 q 415 418 399 361 l 453 418 q 417 308 438 363 q 369 201 396 253 q 337 140 357 175 q 290 73 317 104 q 233 20 264 42 q 167 -1 201 -1 q 81 22 114 -1 q 31 82 49 46 q 5 163 13 118 q -4 249 -3 207 q 4 422 -7 328 q 31 594 15 515 q 49 680 38 631 q 74 775 61 729 q 90 830 82 803 q 108 885 97 857 q 56 897 79 888 q 15 921 32 907 q -30 986 -21 950 q -26 1054 -39 1022 q 21 1108 -12 1086 q 103 1131 54 1131 q 169 1121 135 1131 q 243 1096 204 1111 q 301 1131 271 1118 q 368 1143 332 1143 q 405 1131 393 1143 q 418 1099 417 1118 q 413 1057 419 1079 q 393 1017 406 1035 q 486 963 436 992 q 588 906 536 933 q 692 860 640 879 q 792 835 744 840 q 926 841 861 828 q 1042 888 990 854 q 1129 974 1093 921 q 1179 1099 1165 1028 q 1183 1193 1188 1146 q 1158 1279 1178 1240 q 1101 1344 1138 1318 q 1010 1376 1064 1369 q 930 1372 969 1381 q 856 1343 890 1363 q 793 1293 821 1324 q 751 1225 765 1263 q 738 1208 746 1213 q 722 1206 729 1204 q 712 1217 715 1208 q 713 1238 708 1225 q 761 1317 729 1282 q 833 1376 793 1353 q 920 1410 874 1400 q 1014 1415 967 1421 q 1120 1378 1076 1408 q 1189 1305 1164 1349 q 1221 1207 1214 1261 q 1219 1099 1228 1153 q 1166 958 1206 1018 q 1068 858 1126 897 q 938 803 1010 819 q 788 796 865 788 q 681 822 736 801 q 572 871 626 843 q 467 929 518 899 q 369 986 415 960 q 247 899 329 942 q 230 837 238 868 q 214 775 222 806 m 125 924 q 165 1001 143 964 q 213 1065 186 1038 q 103 1092 149 1092 q 44 1077 68 1092 q 12 1042 21 1063 q 9 997 3 1021 q 40 951 15 972 q 76 933 56 940 q 125 924 97 925 m 358 1038 q 374 1078 374 1061 q 363 1096 374 1094 q 318 1058 343 1096 l 358 1038 m 267 954 q 333 1006 310 981 q 315 1016 324 1011 q 297 1025 307 1021 q 282 992 290 1010 q 267 954 274 975 z "},"":{"ha":663,"x_min":-8,"x_max":725,"o":"m 725 421 q 708 365 718 397 q 686 299 699 332 q 659 235 674 265 q 629 188 644 206 q 524 133 586 138 q 399 158 463 128 q 358 101 379 129 q 310 51 338 74 q 248 15 283 29 q 165 1 213 1 q 81 25 113 1 q 30 85 49 49 q 3 165 11 121 q -6 251 -4 210 q 4 419 -8 338 q 18 510 10 463 q 36 605 26 557 q 58 699 46 653 q 82 785 69 744 q 128 911 101 847 q 192 1026 156 975 q 274 1108 228 1076 q 379 1140 321 1140 q 454 1099 436 1140 q 461 1000 472 1058 q 433 909 454 960 q 376 806 411 858 q 274 667 328 731 q 163 538 221 603 q 131 396 147 464 q 107 249 115 328 q 103 194 104 228 q 106 128 101 160 q 125 72 111 96 q 167 49 139 49 q 210 69 189 49 q 251 119 232 90 q 286 178 271 149 q 310 228 301 208 q 253 317 274 272 q 228 419 233 361 q 230 485 225 447 q 248 556 235 522 q 285 612 261 589 q 344 635 308 635 q 424 610 394 635 q 467 544 453 585 q 481 455 481 504 q 474 356 482 406 q 451 262 465 306 q 419 190 436 218 q 505 166 465 169 q 578 190 544 163 q 615 235 599 206 q 646 297 632 264 q 670 363 660 331 q 688 421 681 396 l 725 421 m 383 1093 q 334 1065 357 1093 q 290 991 311 1036 q 252 890 269 946 q 221 782 235 835 q 197 684 207 729 q 179 615 186 639 q 265 717 224 665 q 343 828 307 769 q 397 926 376 879 q 425 1011 418 972 q 428 1040 428 1025 q 425 1066 429 1054 q 411 1085 421 1078 q 383 1093 401 1093 m 358 386 q 369 436 363 403 q 378 503 376 469 q 373 563 381 538 q 340 588 365 588 q 301 567 317 588 q 278 520 286 547 q 268 465 271 493 q 267 421 265 438 q 285 337 269 374 q 325 268 301 300 q 348 342 340 313 q 358 386 356 372 z "},"":{"ha":403,"x_min":-354,"x_max":476,"o":"m 383 1140 q 458 1099 440 1140 q 465 1000 476 1058 q 381 806 450 915 q 281 670 333 733 q 172 542 229 607 q 265 522 222 528 q 329 532 307 515 q 347 538 339 539 q 360 533 354 538 q 366 523 365 529 q 363 511 367 517 q 326 486 347 494 q 278 476 304 478 q 222 479 251 475 q 160 490 192 483 q 125 278 142 382 q 79 67 108 174 q 49 -31 67 22 q 9 -135 32 -83 q -42 -236 -14 -187 q -106 -322 -71 -285 q -182 -381 -140 -358 q -271 -403 -224 -403 q -328 -385 -308 -403 q -353 -335 -347 -367 q -349 -318 -354 -324 q -337 -312 -344 -312 q -324 -318 -331 -312 q -312 -333 -317 -324 q -274 -357 -304 -356 q -231 -335 -251 -357 q -190 -278 -210 -314 q -151 -199 -169 -243 q -117 -108 -132 -154 q -89 -21 -101 -62 q -67 51 -76 21 q -15 290 -32 174 q 22 526 1 407 q -60 541 -22 538 q -118 526 -97 544 q -133 520 -125 519 q -147 525 -142 521 q -153 536 -151 529 q -147 550 -154 543 q -72 584 -119 581 q 31 578 -25 588 q 53 679 39 621 q 87 800 67 738 q 135 924 107 863 q 200 1033 164 985 q 282 1110 236 1081 q 383 1140 328 1140 m 429 1011 q 433 1040 432 1025 q 429 1066 433 1054 q 415 1085 425 1078 q 388 1093 406 1093 q 338 1065 361 1093 q 295 991 315 1036 q 258 890 275 946 q 226 782 240 835 q 201 684 211 729 q 183 615 190 639 q 269 718 228 667 q 347 828 311 769 q 401 926 381 879 q 429 1011 422 972 z "},"":{"ha":389,"x_min":-403,"x_max":864,"o":"m 650 1501 q 756 1465 713 1494 q 825 1391 800 1435 q 857 1293 850 1347 q 856 1185 864 1239 q 802 1044 842 1104 q 704 944 763 983 q 574 890 646 906 q 424 882 501 874 q 345 899 385 886 q 265 929 306 911 q 225 765 247 850 q 181 591 203 679 q 140 413 158 503 q 113 235 122 324 q 108 165 108 199 q 115 105 108 131 q 134 64 121 79 q 171 49 147 49 q 218 66 194 49 q 263 108 242 83 q 299 158 283 132 q 325 204 315 185 q 413 421 379 308 l 450 421 q 414 311 435 367 q 368 204 393 256 q 334 142 354 178 q 288 76 314 107 q 230 23 261 44 q 164 1 199 1 q 87 21 118 1 q 36 73 56 40 q 6 147 17 106 q -8 229 -4 188 q 1 402 -14 301 q 38 610 15 503 q 88 819 61 717 q 135 996 115 921 l 6 1072 q -68 1014 -24 1040 q -162 976 -112 988 q -260 969 -211 964 q -349 1007 -310 975 q -394 1072 -385 1036 q -390 1140 -403 1108 q -343 1194 -376 1172 q -261 1217 -310 1217 q -149 1193 -203 1217 q -46 1144 -96 1169 l -6 1124 q 10 1164 10 1147 q -1 1182 10 1181 q -24 1190 -17 1182 q -32 1206 -32 1197 q -24 1222 -32 1215 q 4 1229 -15 1229 q 41 1217 29 1229 q 54 1185 53 1204 q 49 1144 56 1167 q 29 1103 42 1121 l 144 1036 l 157 1081 q 185 1101 160 1093 q 239 1111 211 1110 q 288 1106 267 1113 q 304 1081 310 1099 l 274 968 q 353 938 314 950 q 428 921 392 925 q 562 927 497 914 q 678 974 626 940 q 765 1060 729 1007 q 815 1185 801 1114 q 819 1279 824 1232 q 794 1365 814 1326 q 737 1430 774 1404 q 646 1463 700 1456 q 566 1458 606 1467 q 492 1430 526 1450 q 429 1379 457 1410 q 388 1311 401 1349 q 374 1294 382 1299 q 358 1292 365 1290 q 348 1303 351 1294 q 349 1324 344 1311 q 397 1403 365 1368 q 469 1463 429 1439 q 556 1497 510 1486 q 650 1501 603 1507 m -324 1038 q -253 1009 -293 1013 q -171 1016 -212 1006 q -92 1047 -129 1026 q -31 1092 -54 1067 q -67 1111 -50 1103 q -161 1155 -111 1132 q -261 1178 -211 1178 q -319 1163 -296 1178 q -352 1128 -343 1149 q -355 1083 -361 1107 q -324 1038 -349 1058 z "},"":{"ha":389,"x_min":-417,"x_max":753,"o":"m 749 906 q 749 883 753 890 q 739 876 746 876 q 723 883 732 876 q 708 903 714 890 q 686 933 701 918 q 647 956 671 947 q 582 968 618 965 q 507 968 546 971 q 430 960 468 965 q 360 949 392 954 q 265 932 314 942 q 223 757 246 843 q 178 585 200 671 q 138 413 156 500 q 113 235 121 326 q 108 165 108 199 q 115 105 108 131 q 133 64 121 79 q 169 49 146 49 q 218 66 194 49 q 262 108 242 83 q 299 158 282 132 q 325 204 315 185 q 411 421 381 311 l 450 421 q 413 311 435 367 q 367 204 392 256 q 334 142 354 178 q 288 76 314 107 q 230 23 261 44 q 164 1 199 1 q 87 21 118 1 q 36 73 56 40 q 6 147 17 106 q -8 229 -4 188 q -3 388 -14 301 q 28 563 8 474 q 71 742 47 653 q 114 910 94 832 q 3 903 57 903 q -97 917 -51 904 q -276 1004 -207 944 q -381 1138 -346 1064 q -416 1290 -415 1213 q -388 1433 -417 1368 q -303 1539 -360 1497 q -168 1581 -247 1581 q -62 1562 -114 1581 q 32 1508 -10 1543 q 99 1421 74 1472 q 125 1304 125 1369 q 119 1284 125 1290 q 106 1278 113 1278 q 92 1285 99 1278 q 86 1307 86 1293 q 63 1406 85 1363 q 4 1479 40 1449 q -77 1526 -32 1510 q -168 1542 -122 1542 q -283 1505 -235 1542 q -354 1411 -331 1468 q -376 1285 -378 1354 q -343 1151 -375 1217 q -249 1033 -311 1086 q -87 954 -186 979 q 12 943 -43 943 q 125 950 67 943 q 146 1029 133 989 q 173 1050 149 1042 q 224 1060 197 1058 q 272 1054 251 1061 q 286 1029 292 1047 l 274 974 l 347 988 q 424 999 383 993 q 507 1008 465 1006 q 588 1007 549 1010 q 660 992 628 1004 q 719 955 696 978 q 749 906 742 932 z "},"":{"ha":389,"x_min":-357,"x_max":454,"o":"m 325 204 q 413 421 379 308 l 450 421 q 414 311 435 367 q 368 204 393 256 q 335 142 356 178 q 288 76 314 107 q 231 23 263 44 q 164 1 199 1 q 88 21 119 1 q 37 73 57 40 q 6 147 17 106 q -7 229 -4 188 q -4 363 -11 282 q 16 532 3 444 q 45 704 29 619 q 74 847 61 789 q 7 848 50 847 q -86 853 -36 849 q -187 869 -136 858 q -276 897 -237 879 q -336 940 -315 914 q -347 1006 -357 967 q -315 1050 -342 1031 q -252 1083 -287 1069 q -178 1107 -217 1097 q -111 1122 -140 1117 q 17 1143 -50 1135 q 36 1141 31 1144 q 40 1133 42 1138 q 32 1123 39 1128 q 15 1117 25 1118 q -52 1106 -18 1113 q -119 1093 -86 1100 q -168 1081 -139 1089 q -225 1061 -197 1072 q -274 1035 -253 1050 q -300 1004 -296 1021 q -283 967 -306 982 q -223 944 -261 953 q -137 930 -185 935 q -43 924 -89 925 q 39 923 3 922 q 92 924 75 924 q 113 1011 101 968 q 135 1097 124 1054 q 163 1118 139 1110 q 214 1128 188 1126 q 260 1122 240 1129 q 275 1097 281 1115 q 258 1015 267 1056 q 240 932 250 974 q 339 941 290 936 q 428 950 388 946 q 450 940 446 951 q 448 914 454 929 q 429 885 442 899 q 403 869 417 871 q 319 860 367 864 q 221 853 271 856 l 113 235 q 108 165 108 199 q 115 105 108 131 q 134 64 121 79 q 171 49 147 49 q 219 66 196 49 q 263 108 243 83 q 299 158 283 132 q 325 204 315 185 z "},"":{"ha":386,"x_min":-92,"x_max":735,"o":"m 110 235 q 106 165 106 199 q 112 105 106 131 q 131 64 118 79 q 167 49 143 49 q 215 66 192 49 q 259 108 239 83 q 296 158 279 132 q 322 204 313 185 q 408 421 378 311 l 447 421 q 410 311 432 367 q 364 204 389 256 q 331 142 351 178 q 285 76 311 107 q 227 23 258 44 q 161 1 196 1 q 84 21 115 1 q 33 73 53 40 q 3 147 14 106 q -11 229 -7 188 q -9 333 -14 271 q 8 474 -4 394 q 38 646 19 553 q 79 842 56 739 q 14 848 44 844 q -42 854 -17 851 q -68 869 -56 856 q -86 897 -81 882 q -88 922 -92 911 q -67 931 -85 932 l 97 915 q 113 984 104 950 q 132 1051 122 1018 q 159 1072 135 1064 q 210 1082 183 1081 q 258 1076 238 1083 q 272 1051 278 1069 q 257 979 265 1015 q 240 907 249 943 q 282 905 263 906 q 319 904 301 904 q 374 904 339 904 q 451 907 410 904 q 536 915 493 910 q 613 931 579 921 q 665 954 646 940 q 679 989 685 968 q 653 1020 675 1006 q 604 1046 632 1035 q 547 1065 576 1057 q 497 1078 518 1074 q 444 1103 446 1090 q 490 1107 443 1115 q 558 1092 519 1101 q 631 1069 596 1083 q 693 1035 667 1054 q 726 990 719 1015 q 719 931 735 956 q 672 890 704 907 q 598 862 640 872 q 510 845 556 851 q 419 836 464 839 q 342 832 375 833 q 288 832 318 832 q 224 833 257 832 l 110 235 z "}}}
